<svg width="20" height="20" viewBox="0 0 20 20" fill="none" xmlns="http://www.w3.org/2000/svg">
<path d="M17.9837 1.69994C18.0725 1.69994 18.1391 1.73319 18.1835 1.79969C18.2279 1.84402 18.2612 1.91052 18.2834 1.99919C18.35 2.33169 18.35 2.6531 18.2834 2.96344C18.2168 3.27377 18.1169 3.57302 17.9837 3.86119C17.8505 4.14935 17.7062 4.43752 17.5508 4.72568C17.3954 5.01385 17.2511 5.27985 17.1179 5.52368C16.0079 5.47935 15.1976 5.60127 14.687 5.88943C14.1764 6.1776 13.9211 6.32168 13.9211 6.32168C14.1653 6.18868 14.5649 6.1111 15.1199 6.08893C15.6971 6.06677 16.241 6.10002 16.7516 6.18868C16.6184 6.43252 16.4741 6.67635 16.3187 6.92018C16.1633 7.14185 16.0079 7.36352 15.8525 7.58518C15.8303 7.65168 15.7859 7.72927 15.7193 7.81793C15.6749 7.88443 15.6305 7.95093 15.5861 8.01743C14.2097 7.88443 13.2662 7.96202 12.7556 8.25018L11.9897 8.71568C12.1895 8.60485 12.6002 8.5051 13.2218 8.41643C13.8434 8.3056 14.5205 8.34993 15.2531 8.54943C15.0533 8.81543 14.8424 9.09251 14.6204 9.38068C14.4206 9.64668 14.2208 9.91268 14.021 10.1787C13.0664 10.1122 12.2006 10.1898 11.4236 10.4114C10.6688 10.6331 10.2914 10.7439 10.2914 10.7439C10.58 10.6774 11.024 10.6774 11.6234 10.7439C12.2228 10.8104 12.8111 10.8991 13.3883 11.0099C13.3883 11.0321 13.3772 11.0543 13.355 11.0764L13.2884 11.1429C12.9332 11.5863 12.578 12.0296 12.2228 12.4729C11.8676 12.8941 11.5013 13.3042 11.1239 13.7032C10.9019 13.947 10.6799 14.1908 10.4579 14.4347C10.2359 14.6563 10.0028 14.878 9.75857 15.0997C9.55877 15.2548 9.35897 15.4211 9.15917 15.5984C8.95937 15.7536 8.73737 15.8755 8.49317 15.9642C8.35997 16.0307 8.21567 16.075 8.06027 16.0972C7.92707 16.1415 7.77167 16.1526 7.59407 16.1304C7.41647 16.1304 7.22777 16.1083 7.02797 16.0639C6.85037 16.0196 6.66167 15.9642 6.46187 15.8977C6.32867 15.8533 6.19547 15.7979 6.06227 15.7314C5.92907 15.6649 5.80697 15.5873 5.69597 15.4987C5.62937 15.4543 5.57387 15.4433 5.52947 15.4654C5.48507 15.4876 5.45177 15.5098 5.42957 15.5319L4.79687 16.1637C4.75247 16.208 4.70807 16.2523 4.66367 16.2967C4.61927 16.341 4.57487 16.3853 4.53047 16.4297C4.48607 16.474 4.44167 16.5073 4.39727 16.5294C4.37507 16.5738 4.34177 16.6181 4.29737 16.6624C4.25297 16.7068 4.20857 16.7511 4.16417 16.7954C4.11977 16.8398 4.05317 16.9063 3.96437 16.9949C3.87557 17.0836 3.78677 17.1612 3.69797 17.2277C3.63137 17.3163 3.56477 17.3939 3.49817 17.4604L2.79887 18.1587L2.66567 18.2252C2.62127 18.2473 2.57687 18.2584 2.53247 18.2584H2.23276H1.89976C1.81096 18.2584 1.74436 18.2363 1.69996 18.1919C1.67776 18.1698 1.66666 18.1143 1.66666 18.0257V17.7264V17.4272C1.66666 17.3607 1.67776 17.2831 1.69996 17.1944C1.74436 17.1279 1.79986 17.0725 1.86646 17.0282L3.29837 15.5984L4.73027 14.1687C5.08547 13.814 5.44067 13.4704 5.79587 13.1379C6.15107 12.8054 6.50627 12.4618 6.86147 12.1072C7.19447 11.7968 7.51637 11.4754 7.82717 11.1429C8.16017 10.8104 8.49317 10.4779 8.82617 10.1454L10.025 8.91518C10.8464 8.09502 11.2571 7.68493 11.2571 7.68493C11.6345 7.33027 12.0008 6.9756 12.356 6.62093C12.7334 6.2441 13.0997 5.86727 13.4549 5.49043L13.5548 5.39068C13.5992 5.36852 13.6436 5.34635 13.688 5.32418L13.6547 5.29093C13.6103 5.29093 13.577 5.3131 13.5548 5.35743C13.5326 5.3796 13.4993 5.40177 13.4549 5.42393C13.1219 5.66777 12.7889 5.93377 12.4559 6.22193C12.1229 6.48793 11.7899 6.76502 11.4569 7.05318C10.9463 7.43002 10.4468 7.82902 9.95837 8.25018C9.46997 8.64918 8.98157 9.05927 8.49317 9.48043C7.84937 9.99026 7.22777 10.5001 6.62837 11.0099C6.02897 11.5198 5.40737 12.0185 4.76357 12.5062C4.67477 12.5948 4.56377 12.6946 4.43057 12.8054C4.31957 12.8941 4.21967 12.9828 4.13087 13.0714C4.06427 13.1379 4.00877 13.1601 3.96437 13.1379C3.94217 13.1158 3.93107 13.0714 3.93107 13.0049C3.88667 12.8719 3.85337 12.7389 3.83117 12.6059C3.80897 12.4729 3.79787 12.3399 3.79787 12.2069C3.77567 12.0518 3.78677 11.9077 3.83117 11.7747C3.87557 11.6417 3.94217 11.5087 4.03097 11.3757C4.23077 10.9988 4.46387 10.6553 4.73027 10.3449C5.01887 10.0346 5.31857 9.73535 5.62937 9.44718C6.07337 9.00385 6.52847 8.58268 6.99467 8.18368C7.46087 7.76252 7.94927 7.36352 8.45987 6.98668C8.83727 6.65418 9.22577 6.34385 9.62537 6.05568C10.0472 5.74535 10.4579 5.45718 10.8575 5.19118C11.5235 4.68135 12.2006 4.20477 12.8888 3.76144C13.577 3.3181 14.2985 2.90802 15.0533 2.53119C15.3419 2.37602 15.6194 2.24302 15.8858 2.13219C16.1744 1.99919 16.4741 1.87727 16.7849 1.76644C16.8959 1.7221 17.018 1.69994 17.1512 1.69994C17.3066 1.67777 17.4509 1.66669 17.5841 1.66669H17.8172C17.8616 1.66669 17.9171 1.67777 17.9837 1.69994Z" fill="currentColor"/>
</svg>
