<svg width="20" height="20" viewBox="0 0 20 20" fill="none" xmlns="http://www.w3.org/2000/svg">
<path d="M17.353 18.3333H2.64704C2.15685 18.3333 1.66666 17.8445 1.66666 17.3557C1.66666 16.8669 2.15685 16.3781 2.64704 16.3781H17.353C17.8432 16.3781 18.3333 16.8669 18.3333 17.3557C18.3333 17.8445 17.8432 18.3333 17.353 18.3333Z" fill="currentColor"/>
<path d="M16.1273 13.4458H3.87228C3.38209 13.4458 2.8919 12.957 2.8919 12.4682V8.8022C2.8919 8.5578 3.01447 8.3134 3.13701 8.06901L6.8135 4.403C7.18115 4.0364 7.67135 4.0364 8.03899 4.2808L11.1027 6.236L15.392 1.959C15.6371 1.7146 16.1273 1.5924 16.4948 1.7146C16.8625 1.8368 17.1076 2.2034 17.1076 2.57V12.346C17.1076 12.957 16.6174 13.4458 16.1273 13.4458ZM4.85267 11.4906H15.1469V5.01401L11.9605 8.1912C11.5929 8.5578 11.1027 8.5578 10.735 8.3134L7.67129 6.3582L4.85267 9.16881V11.4906Z" fill="currentColor"/>
</svg>
