<svg  viewBox="0 0 24 24" fill="none" xmlns="http://www.w3.org/2000/svg">
<path fill-rule="evenodd" clip-rule="evenodd" d="M7.88199 17.59C7.88199 16.94 8.40899 16.413 9.05799 16.413H14.058C14.3615 16.4255 14.6484 16.5549 14.8587 16.7741C15.069 16.9932 15.1865 17.2852 15.1865 17.589C15.1865 17.8928 15.069 18.1848 14.8587 18.4039C14.6484 18.6231 14.3615 18.7525 14.058 18.765H9.05799C8.40799 18.765 7.88199 18.239 7.88199 17.59ZM7.88199 14.06C7.88199 13.41 8.40899 12.883 9.05799 12.883H14.058C14.37 12.883 14.6693 13.0069 14.8899 13.2276C15.1105 13.4482 15.2345 13.7475 15.2345 14.0595C15.2345 14.3715 15.1105 14.6708 14.8899 14.8914C14.6693 15.112 14.37 15.236 14.058 15.236H9.05799C8.40799 15.236 7.88199 14.709 7.88199 14.06Z" fill="currentColor"/>
<path d="M19.794 6.99999L15.529 2.73499C14.941 2.29499 14.353 1.99999 13.617 1.99999H6.11699C5.76898 1.99854 5.42412 2.06601 5.10231 2.19852C4.78051 2.33103 4.48812 2.52595 4.24204 2.77204C3.99595 3.01812 3.80103 3.3105 3.66852 3.63231C3.53601 3.95412 3.46854 4.29898 3.46999 4.64699V19.353C3.46854 19.701 3.53601 20.0459 3.66852 20.3677C3.80103 20.6895 3.99595 20.9819 4.24204 21.2279C4.48812 21.474 4.78051 21.669 5.10231 21.8015C5.42412 21.934 5.76898 22.0014 6.11699 22H17.882C18.23 22.0014 18.5749 21.934 18.8967 21.8015C19.2185 21.669 19.5109 21.474 19.757 21.2279C20.003 20.9819 20.198 20.6895 20.3305 20.3677C20.463 20.0459 20.5304 19.701 20.529 19.353V8.91199C20.529 8.17599 20.235 7.44099 19.794 6.99999ZM13.764 4.49999L18.029 8.76499C18.177 8.76499 18.177 8.91199 18.177 8.91199V9.35199H13.175V4.35199H13.617C13.617 4.35199 13.763 4.35199 13.765 4.49999H13.764ZM17.882 19.647H6.11699C6.04079 19.6416 5.96908 19.6089 5.91506 19.5549C5.86104 19.5009 5.82835 19.4292 5.82299 19.353V4.64699C5.82299 4.49999 5.96999 4.35299 6.11699 4.35299H10.823V10.529C10.823 11.117 11.411 11.705 11.999 11.705H18.177V19.353C18.1716 19.4294 18.1388 19.5012 18.0845 19.5552C18.0303 19.6093 17.9584 19.6419 17.882 19.647Z" fill="currentColor"/>
</svg>
