<svg width="20" height="20" viewBox="0 0 20 20" fill="none" xmlns="http://www.w3.org/2000/svg">
<path d="M2.91667 10.9055C2.91667 10.4452 3.28977 10.0721 3.75 10.0721C4.21024 10.0721 4.58334 10.4452 4.58334 10.9055V16.0414H15.4167V10.9055C15.4167 10.4452 15.7898 10.0721 16.25 10.0721C16.7102 10.0721 17.0833 10.4452 17.0833 10.9055V16.8747C17.0833 17.3349 16.7102 17.708 16.25 17.708H3.75C3.28977 17.708 2.91667 17.3349 2.91667 16.8747V10.9055Z" fill="currentColor"/>
<path d="M15.7813 2.29166L15.9001 2.29654C16.1352 2.31578 16.3624 2.39162 16.5617 2.51789L16.6593 2.58544L16.7505 2.66112C16.9269 2.81817 17.0628 3.01542 17.146 3.23648L17.1834 3.34879L18.3016 7.27131C18.3733 7.5227 18.3224 7.79346 18.1649 8.00211C18.0074 8.21064 17.7613 8.33332 17.5 8.33332H2.5C2.23867 8.33332 1.99261 8.21064 1.83513 8.00211C1.67771 7.79343 1.6267 7.52266 1.69841 7.27131L2.81901 3.34879C2.90588 3.04517 3.08889 2.77771 3.34066 2.58707L3.4375 2.52033C3.66935 2.37256 3.93897 2.29275 4.2155 2.29166H15.7813ZM3.60515 6.66666H16.3957L15.6234 3.95832H4.37826L3.60515 6.66666Z" fill="currentColor"/>
<path d="M1.66667 8.74999V7.49999C1.66667 7.03975 2.03977 6.66666 2.5 6.66666C2.96024 6.66666 3.33334 7.03975 3.33334 7.49999V8.74999L3.34147 8.91438C3.37929 9.29604 3.54805 9.6548 3.82162 9.92837C4.13418 10.2409 4.55798 10.4167 5 10.4167C5.44203 10.4167 5.86583 10.2409 6.17839 9.92837C6.45196 9.6548 6.62071 9.29604 6.65853 8.91438L6.66667 8.74999V7.49999C6.66667 7.03975 7.03977 6.66666 7.5 6.66666C7.96024 6.66666 8.33334 7.03975 8.33334 7.49999V8.74999C8.33334 9.63404 7.98189 10.4816 7.35677 11.1068C6.73165 11.7319 5.88406 12.0833 5 12.0833C4.11595 12.0833 3.26835 11.7319 2.64323 11.1068C2.01811 10.4816 1.66667 9.63404 1.66667 8.74999Z" fill="currentColor"/>
<path d="M6.66667 8.74999V7.49999C6.66667 7.03975 7.03977 6.66666 7.5 6.66666C7.96024 6.66666 8.33334 7.03975 8.33334 7.49999V8.74999L8.34147 8.91438C8.37929 9.29604 8.54805 9.6548 8.82162 9.92837C9.13418 10.2409 9.55798 10.4167 10 10.4167C10.442 10.4167 10.8658 10.2409 11.1784 9.92837C11.4909 9.61581 11.6667 9.19202 11.6667 8.74999V7.49999C11.6667 7.03975 12.0398 6.66666 12.5 6.66666C12.9602 6.66666 13.3333 7.03975 13.3333 7.49999V8.74999C13.3333 9.63404 12.9819 10.4816 12.3568 11.1068C11.7317 11.7319 10.8841 12.0833 10 12.0833C9.11595 12.0833 8.26835 11.7319 7.64323 11.1068C7.01811 10.4816 6.66667 9.63404 6.66667 8.74999Z" fill="currentColor"/>
<path d="M11.6667 8.74999V7.49999C11.6667 7.03975 12.0398 6.66666 12.5 6.66666C12.9602 6.66666 13.3333 7.03975 13.3333 7.49999V8.74999C13.3333 9.19202 13.5091 9.61581 13.8216 9.92837C14.1342 10.2409 14.558 10.4167 15 10.4167C15.442 10.4167 15.8658 10.2409 16.1784 9.92837C16.4909 9.61581 16.6667 9.19202 16.6667 8.74999V7.49999C16.6667 7.03975 17.0398 6.66666 17.5 6.66666C17.9602 6.66666 18.3333 7.03975 18.3333 7.49999V8.74999C18.3333 9.63404 17.9819 10.4816 17.3568 11.1068C16.7317 11.7319 15.8841 12.0833 15 12.0833C14.1159 12.0833 13.2684 11.7319 12.6432 11.1068C12.0181 10.4816 11.6667 9.63404 11.6667 8.74999Z" fill="currentColor"/>
</svg>
