<svg  viewBox="0 0 24 24" fill="none" xmlns="http://www.w3.org/2000/svg">
<path d="M11 16C11 15.4477 10.5523 15 10 15H5C4.44772 15 4 15.4477 4 16V18C4 18.5523 4.44772 19 5 19H10C10.5523 19 11 18.5523 11 18V16ZM13 18C13 19.6569 11.6569 21 10 21H5C3.34315 21 2 19.6569 2 18V16C2 14.3431 3.34315 13 5 13H10C11.6569 13 13 14.3431 13 16V18Z" />
<path d="M18 6C18 5.44772 17.5523 5 17 5H5C4.44772 5 4 5.44772 4 6V8C4 8.55228 4.44772 9 5 9H17C17.5523 9 18 8.55228 18 8V6ZM20 8C20 9.65685 18.6569 11 17 11H5C3.34315 11 2 9.65685 2 8V6C2 4.34315 3.34315 3 5 3H17C18.6569 3 20 4.34315 20 6V8Z" />
<path d="M18.5 13H17.5C17.5 14.933 15.933 16.5 14 16.5V17.5C15.933 17.5 17.5 19.067 17.5 21H18.5C18.5 19.067 20.067 17.5 22 17.5V16.5C20.067 16.5 18.5 14.933 18.5 13Z" />
</svg>
