<svg viewBox="0 0 24 24" fill="none" xmlns="http://www.w3.org/2000/svg">
<path fill-rule="evenodd" clip-rule="evenodd" d="M13.1018 15.8327H16.475C16.7093 15.8327 16.901 16.0258 16.901 16.2626V18.248C17.3073 18.3478 17.6681 18.5808 17.9255 18.9094C18.1829 19.238 18.322 19.6433 18.3204 20.0601C18.3204 21.0888 17.4935 21.9234 16.475 21.9234C15.4554 21.9234 14.6285 21.0888 14.6285 20.0601C14.6285 19.1797 15.2352 18.4411 16.049 18.247V16.6924H13.1029V21.7794C13.1032 21.8533 13.0844 21.926 13.0484 21.9905C13.0123 22.0551 12.9602 22.1094 12.897 22.1481L9.95096 23.9383C9.88412 23.979 9.80721 24.0004 9.72887 24C9.65052 23.9996 9.57383 23.9775 9.5074 23.9361L4.11252 20.5695C4.05027 20.5306 3.999 20.4765 3.96355 20.4124C3.9281 20.3483 3.90964 20.2762 3.90991 20.203V16.6913L1.21466 15.1313C1.15336 15.0959 1.10173 15.046 1.06431 14.9861C1.02688 14.9262 1.0048 14.8581 1 14.7876V14.7582V9.17048C1 9.01775 1.07995 8.87593 1.21028 8.79957L3.90991 7.20464V3.76169C3.90991 3.62096 3.97781 3.49005 4.09061 3.41042L4.11361 3.39514L9.5096 0.0634674C9.57647 0.0219867 9.65368 0 9.73247 0C9.81125 0 9.88846 0.0219867 9.95534 0.0634674L12.9014 1.89076C12.9636 1.92968 13.0149 1.98376 13.0504 2.0479C13.0858 2.11203 13.1043 2.1841 13.104 2.25731V7.20028H17.327V5.10898C16.9206 5.00914 16.5596 4.77607 16.3022 4.44722C16.0448 4.11838 15.9058 3.71287 15.9077 3.29587C15.9077 2.26713 16.7345 1.43257 17.7531 1.43257C18.7727 1.43257 19.5984 2.26713 19.5984 3.29587C19.5984 4.17624 18.9928 4.9148 18.1791 5.10898V7.6301C18.1795 7.68621 18.1688 7.74185 18.1476 7.79384C18.1265 7.84583 18.0952 7.89314 18.0556 7.93306C18.016 7.97299 17.9689 8.00475 17.917 8.02652C17.8651 8.04829 17.8094 8.05964 17.7531 8.05993H13.104V10.0301H20.3585C20.4517 9.62451 20.6799 9.26222 21.006 9.00216C21.3321 8.74211 21.7369 8.59958 22.1546 8.59775C23.1731 8.59775 24 9.43121 24 10.46C24 11.4887 23.1742 12.3232 22.1546 12.3232C21.7367 12.3214 21.3318 12.1787 21.0057 11.9184C20.6796 11.6581 20.4515 11.2956 20.3585 10.8898H13.1018V13.0029H18.5263L19.5284 14.2902C19.8074 14.1276 20.125 14.0421 20.4483 14.0425C21.4679 14.0425 22.2937 14.876 22.2937 15.9047C22.2937 16.9335 21.4679 17.768 20.4483 17.768C19.4298 17.768 18.6029 16.9335 18.6029 15.9047C18.6029 15.5273 18.7146 15.176 18.9052 14.8826L18.1123 13.8625H13.1018V15.8327ZM9.73192 0.934023L7.49445 2.31513V5.55299H6.6424V2.84096L4.76196 4.00279V7.21555L7.07281 8.69921L9.44607 7.21119V4.72825H10.2981V7.45119C10.2981 7.59956 10.2215 7.7381 10.0966 7.81665L7.53059 9.42358V11.6938L9.08795 12.7945L8.5995 13.4993L7.05966 12.4105L5.38403 13.5069L4.92077 12.7869L6.67854 11.636V9.46503L4.32718 7.95302L1.85205 9.41485V11.2432L4.01176 9.94613L4.44765 10.6847L1.85205 12.2436V14.5095L4.22423 15.8818L6.7103 14.3895L7.14509 15.128L4.76196 16.5582V19.9641L6.81653 21.2459L9.40665 19.6902L9.84253 20.4299L7.63354 21.7565L9.73411 23.0666L12.2508 21.5361V15.2306L7.03995 18.3866L6.60188 17.6502L12.2508 14.2291V2.49731L9.73192 0.934023ZM16.475 19.0586C16.3435 19.0593 16.2134 19.0859 16.0922 19.1367C15.9711 19.1876 15.8611 19.2617 15.7688 19.3549C15.6764 19.4482 15.6034 19.5586 15.5539 19.68C15.5045 19.8014 15.4795 19.9313 15.4805 20.0622C15.4805 20.6153 15.9252 21.0637 16.475 21.0637C16.6063 21.0629 16.7361 21.0362 16.8571 20.9854C16.9781 20.9346 17.0879 20.8605 17.1801 20.7674C17.2723 20.6743 17.3453 20.564 17.3947 20.4428C17.4442 20.3216 17.4692 20.192 17.4683 20.0612C17.4693 19.9303 17.4444 19.8005 17.395 19.6792C17.3456 19.5579 17.2727 19.4475 17.1805 19.3542C17.0882 19.261 16.9784 19.1868 16.8574 19.1359C16.7363 19.085 16.6064 19.0595 16.475 19.0586ZM20.4505 14.9022C20.319 14.9029 20.1889 14.9294 20.0678 14.9803C19.9466 15.0311 19.8367 15.1053 19.7443 15.1985C19.6519 15.2918 19.5789 15.4022 19.5295 15.5236C19.48 15.645 19.4551 15.7749 19.4561 15.9058C19.4561 16.46 19.9007 16.9095 20.4494 16.9095C20.5809 16.9088 20.711 16.8822 20.8321 16.8314C20.9533 16.7805 21.0633 16.7064 21.1556 16.6131C21.248 16.5199 21.321 16.4094 21.3705 16.2881C21.4199 16.1667 21.4448 16.0368 21.4438 15.9058C21.4448 15.7749 21.4199 15.645 21.3705 15.5236C21.321 15.4022 21.248 15.2918 21.1556 15.1985C21.0633 15.1053 20.9533 15.0311 20.8321 14.9803C20.711 14.9294 20.582 14.9029 20.4505 14.9022ZM22.1535 9.45849C22.022 9.4592 21.892 9.48574 21.7708 9.5366C21.6496 9.58745 21.5397 9.66161 21.4473 9.75484C21.3549 9.84806 21.2819 9.95852 21.2325 10.0799C21.183 10.2013 21.1581 10.3312 21.1591 10.4621C21.1591 11.0152 21.6048 11.4636 22.1535 11.4636C22.2848 11.4627 22.4147 11.4361 22.5357 11.3853C22.6567 11.3344 22.7664 11.2604 22.8586 11.1673C22.9509 11.0742 23.0238 10.9639 23.0733 10.8427C23.1227 10.7215 23.1477 10.5918 23.1469 10.461C23.1479 10.3302 23.123 10.2003 23.0736 10.0791C23.0242 9.95775 22.9513 9.84734 22.859 9.75413C22.7668 9.66092 22.657 9.58673 22.5359 9.53582C22.4149 9.4849 22.2849 9.45825 22.1535 9.4574V9.45849ZM17.752 2.29113C17.6206 2.29199 17.4906 2.31863 17.3696 2.36955C17.2485 2.42047 17.1387 2.49465 17.0465 2.58786C16.9542 2.68108 16.8813 2.79149 16.8319 2.91279C16.7825 3.03408 16.7576 3.16389 16.7586 3.29478C16.7586 3.84897 17.2033 4.29843 17.752 4.29843C17.8835 4.29771 18.0135 4.27117 18.1347 4.22032C18.2559 4.16947 18.3658 4.0953 18.4582 4.00208C18.5506 3.90885 18.6236 3.79839 18.673 3.67702C18.7225 3.55565 18.7474 3.42576 18.7464 3.29478C18.7474 3.1638 18.7225 3.0339 18.673 2.91253C18.6236 2.79117 18.5506 2.68071 18.4582 2.58748C18.3658 2.49425 18.2559 2.42009 18.1347 2.36924C18.0135 2.31839 17.8835 2.29184 17.752 2.29113Z" fill="black"/>
</svg>
