<svg viewBox="0 0 24 24" fill="none" xmlns="http://www.w3.org/2000/svg">
<path d="M19 16L21 18.5L19 21M16 16L14 18.5L16 21M12.7932 5.65729C12.6374 5.81614 12.5502 6.02971 12.5502 6.25215C12.5502 6.47459 12.6374 6.68816 12.7932 6.84701L14.1529 8.20669C14.3117 8.3624 14.5253 8.44961 14.7477 8.44961C14.9702 8.44961 15.1838 8.3624 15.3426 8.20669L17.9822 5.56806C18.2541 5.29442 18.7156 5.3811 18.8176 5.75331C19.0743 6.68714 19.0598 7.67478 18.7757 8.60065C18.4916 9.52653 17.9497 10.3524 17.2134 10.9815C16.4771 11.6106 15.5768 12.0171 14.6179 12.1532C13.6591 12.2894 12.6812 12.1497 11.7989 11.7504L5.07676 18.4723C4.73868 18.8103 4.28019 19.0001 3.80215 19C3.32411 18.9999 2.86568 18.8099 2.52771 18.4719C2.18974 18.1338 1.99992 17.6753 2 17.1973C2.00008 16.7193 2.19006 16.2609 2.52814 15.9229L9.25024 9.20096C8.85094 8.31862 8.7112 7.34081 8.84737 6.38195C8.98353 5.42309 9.38997 4.52284 10.0191 3.78654C10.6483 3.05025 11.4741 2.50835 12.4 2.22428C13.3259 1.9402 14.3136 1.92569 15.2474 2.18245C15.6197 2.28442 15.7063 2.74501 15.4336 3.01865L12.7932 5.65729Z" stroke="currentColor" stroke-width="2" stroke-linecap="round" stroke-linejoin="round"/>
</svg>

