<svg viewBox="0 0 24 24" fill="none" xmlns="http://www.w3.org/2000/svg">
<g clip-path="url(#clip0_2054_91)">
<path d="M8.335 1.63501H14.845L8.0875 21.66C8.01742 21.8654 7.8847 22.0437 7.708 22.1697C7.5313 22.2957 7.31953 22.3632 7.1025 22.3625H2.0375C1.87284 22.3629 1.71047 22.324 1.56386 22.249C1.41726 22.174 1.29067 22.0651 1.19459 21.9314C1.09851 21.7977 1.03573 21.643 1.01145 21.4801C0.987171 21.3172 1.0021 21.1509 1.055 20.995L7.35 2.34501C7.41923 2.13867 7.55159 1.95932 7.72836 1.83235C7.90513 1.70538 8.11736 1.63722 8.335 1.63751V1.63501Z" fill="url(#paint0_linear_2054_91)"/>
<path d="M17.7925 15.065H7.46999C7.37402 15.065 7.28026 15.0939 7.20095 15.1479C7.12163 15.2019 7.06044 15.2786 7.02536 15.3679C6.99028 15.4573 6.98292 15.5551 7.00426 15.6487C7.0256 15.7422 7.07465 15.8272 7.14499 15.8925L13.7775 22.0825C13.9705 22.2637 14.2252 22.3647 14.49 22.365H20.335L17.7925 15.065Z" fill="#0078D4"/>
<path d="M8.335 1.63499C8.1151 1.63387 7.90062 1.70316 7.72293 1.83271C7.54524 1.96226 7.41368 2.14529 7.3475 2.35499L1.0625 20.98C1.00626 21.1365 0.988563 21.3043 1.01092 21.4691C1.03327 21.6339 1.09502 21.7909 1.19092 21.9268C1.28683 22.0627 1.41407 22.1735 1.56187 22.2497C1.70967 22.326 1.87368 22.3656 2.04 22.365H7.2375C7.43063 22.3301 7.61104 22.2446 7.76036 22.1172C7.90968 21.9899 8.02256 21.8252 8.0875 21.64L9.3425 17.945L13.82 22.12C14.008 22.2752 14.2437 22.3608 14.4875 22.3625H20.31L17.755 15.065H10.31L14.8675 1.63749L8.335 1.63499Z" fill="url(#paint1_linear_2054_91)"/>
<path d="M16.65 2.34001C16.5808 2.13434 16.4487 1.95561 16.2724 1.8291C16.0961 1.70259 15.8845 1.63469 15.6675 1.63501H8.41251C8.62942 1.63507 8.84085 1.70311 9.01709 1.82957C9.19332 1.95603 9.32549 2.13454 9.39501 2.34001L15.69 20.995C15.7428 21.1511 15.7577 21.3175 15.7334 21.4805C15.7091 21.6434 15.6464 21.7983 15.5503 21.9321C15.4543 22.066 15.3278 22.1751 15.1812 22.2504C15.0347 22.3257 14.8723 22.365 14.7075 22.365H21.9625C22.1273 22.365 22.2897 22.3257 22.4362 22.2504C22.5828 22.1751 22.7093 22.066 22.8053 21.9321C22.9014 21.7983 22.9641 21.6434 22.9884 21.4805C23.0127 21.3175 22.9978 21.1511 22.945 20.995L16.65 2.34001Z" fill="url(#paint2_linear_2054_91)"/>
</g>
<defs>
<linearGradient id="paint0_linear_2054_91" x1="10.7075" y1="3.17251" x2="3.9475" y2="23.1425" gradientUnits="userSpaceOnUse">
<stop stop-color="#114A8B"/>
<stop offset="1" stop-color="#0669BC"/>
</linearGradient>
<linearGradient id="paint1_linear_2054_91" x1="12.8175" y1="12.48" x2="11.255" y2="13.0075" gradientUnits="userSpaceOnUse">
<stop stop-opacity="0.3"/>
<stop offset="0.07" stop-opacity="0.2"/>
<stop offset="0.32" stop-opacity="0.1"/>
<stop offset="0.62" stop-opacity="0.05"/>
<stop offset="1" stop-opacity="0"/>
</linearGradient>
<linearGradient id="paint2_linear_2054_91" x1="11.96" y1="2.59001" x2="19.38" y2="22.36" gradientUnits="userSpaceOnUse">
<stop stop-color="#3CCBF4"/>
<stop offset="1" stop-color="#2892DF"/>
</linearGradient>
<clipPath id="clip0_2054_91">
<rect width="24" height="24" fill="white"/>
</clipPath>
</defs>
</svg>
