<svg viewBox="0 0 24 24" fill="currentColor" xmlns="http://www.w3.org/2000/svg">
<path d="M10 16C10 15.4477 9.55228 15 9 15H4C3.44772 15 3 15.4477 3 16V18C3 18.5523 3.44772 19 4 19H9C9.55228 19 10 18.5523 10 18V16ZM12 18C12 19.6569 10.6569 21 9 21H4C2.34315 21 1 19.6569 1 18V16C1 14.3431 2.34315 13 4 13H9C10.6569 13 12 14.3431 12 16V18Z"/>
<path d="M17 6C17 5.44772 16.5523 5 16 5H4C3.44772 5 3 5.44772 3 6V8C3 8.55228 3.44772 9 4 9H16C16.5523 9 17 8.55228 17 8V6ZM19 8C19 9.65685 17.6569 11 16 11H4C2.34315 11 1 9.65685 1 8V6C1 4.34315 2.34315 3 4 3H16C17.6569 3 19 4.34315 19 6V8Z"/>
<path d="M18.5 13H17.5C17.5 14.933 15.933 16.5 14 16.5V17.5C15.933 17.5 17.5 19.067 17.5 21H18.5C18.5 19.067 20.067 17.5 22 17.5V16.5C20.067 16.5 18.5 14.933 18.5 13Z"/>
</svg>
