<svg width="20" height="20" viewBox="0 0 20 20" fill="none" xmlns="http://www.w3.org/2000/svg">
<path d="M2.24699 13.8159C2.0895 13.8159 1.93493 13.7518 1.82277 13.6317C1.65449 13.4515 1.61854 13.1846 1.7331 12.9662L5.19899 6.36014C5.27708 6.21123 5.41593 6.10359 5.57962 6.06499C5.74324 6.02638 5.91558 6.06073 6.05197 6.15904L10.1604 9.1203L17.5196 5.88246C17.7446 5.78348 18.0075 5.837 18.1758 6.01606C18.3442 6.19512 18.3815 6.46085 18.2688 6.67932L14.9259 13.1643C14.8485 13.3144 14.7096 13.4233 14.5454 13.4627C14.3812 13.502 14.208 13.4679 14.071 13.3691L10.0202 10.4496L2.48044 13.7668C2.40522 13.7999 2.32574 13.8159 2.24699 13.8159ZM5.91584 7.49123L3.53092 12.037L8.92815 9.66241L5.91584 7.49123ZM11.2525 9.90737L14.2031 12.0341L16.4865 7.60466L11.2525 9.90744V9.90737Z" fill="currentColor"/>
</svg>
