<svg viewBox="0 0 24 24" fill="currentColor" xmlns="http://www.w3.org/2000/svg">
<path d="M11.016 2.09898C11.7719 1.38115 12.7783 0.986945 13.8206 1.00039C14.863 1.01384 15.8589 1.43388 16.596 2.17098L16.669 2.24498C17.0846 2.68213 17.3957 3.2078 17.579 3.78249C17.7622 4.35718 17.8128 4.96592 17.727 5.56298C18.3245 5.4773 18.9337 5.52816 19.5087 5.71176C20.0837 5.89535 20.6097 6.2069 21.047 6.62298L21.12 6.69398L21.168 6.74098L21.239 6.81598C21.9445 7.55894 22.3379 8.54441 22.3379 9.56898C22.3379 10.5935 21.9445 11.579 21.239 12.322L21.168 12.396L12.985 20.578L12.951 20.62C12.9173 20.6712 12.9023 20.7325 12.9085 20.7935C12.9147 20.8545 12.9417 20.9115 12.985 20.955L14.665 22.635C14.8053 22.7869 14.8813 22.9871 14.8772 23.1938C14.873 23.4005 14.789 23.5976 14.6427 23.7437C14.4965 23.8898 14.2994 23.9737 14.0927 23.9776C13.886 23.9816 13.6857 23.9054 13.534 23.765L11.854 22.086C11.51 21.742 11.314 21.2773 11.3076 20.7909C11.3013 20.3045 11.4851 19.8348 11.82 19.482L20.08 11.221C20.5106 10.7671 20.747 10.1631 20.7388 9.53753C20.7305 8.91197 20.4784 8.31435 20.036 7.87198L19.989 7.82498L19.945 7.78198C19.4913 7.35124 18.8873 7.11468 18.2618 7.12272C17.6362 7.13075 17.0385 7.38273 16.596 7.82498L9.76399 14.657L9.73399 14.686C9.57844 14.8217 9.37645 14.892 9.17025 14.8823C8.96405 14.8725 8.7696 14.7834 8.62756 14.6336C8.48552 14.4838 8.40687 14.2849 8.40807 14.0785C8.40927 13.8721 8.49022 13.6741 8.63399 13.526L15.51 6.65098C15.9409 6.19709 16.1775 5.59283 16.1692 4.96703C16.161 4.34123 15.9087 3.74339 15.466 3.30098L15.287 3.13998C14.8347 2.77084 14.2634 2.57928 13.68 2.60118C13.0967 2.62309 12.5413 2.85696 12.118 3.25898L12.073 3.30198L3.02599 12.349L2.99599 12.377C2.84044 12.5127 2.63845 12.583 2.43225 12.5733C2.22605 12.5635 2.0316 12.4744 1.88956 12.3246C1.74752 12.1748 1.66887 11.9759 1.67007 11.7695C1.67127 11.5631 1.75222 11.3651 1.89599 11.217L10.942 2.17098L11.016 2.09898Z" />
<path d="M13.234 4.40398C13.3895 4.26827 13.5915 4.19794 13.7977 4.20769C14.0039 4.21745 14.1984 4.30654 14.3404 4.45633C14.4825 4.60612 14.5611 4.80502 14.5599 5.01145C14.5587 5.21787 14.4778 5.41585 14.334 5.56398L7.64399 12.255C7.19405 12.7049 6.94128 13.3152 6.94128 13.9515C6.94128 14.5878 7.19405 15.198 7.64399 15.648C8.09393 16.0979 8.70418 16.3507 9.34049 16.3507C9.9768 16.3507 10.5871 16.0979 11.037 15.648L17.728 8.95598C17.8792 8.81228 18.0806 8.73336 18.2893 8.73603C18.4979 8.7387 18.6972 8.82275 18.8447 8.97028C18.9922 9.1178 19.0763 9.31711 19.0789 9.52572C19.0816 9.73433 19.0027 9.93573 18.859 10.087L12.168 16.779C11.4303 17.5156 10.4342 17.9352 9.39172 17.9483C8.34928 17.9613 7.34293 17.5669 6.58699 16.849L6.51399 16.779C6.1426 16.4077 5.84798 15.9669 5.64698 15.4818C5.44598 14.9966 5.34252 14.4766 5.34252 13.9515C5.34252 13.4263 5.44598 12.9063 5.64698 12.4212C5.84798 11.936 6.1426 11.4952 6.51399 11.124L13.204 4.43298L13.234 4.40398Z" />
</svg>
