<svg width="20" height="20" viewBox="0 0 20 20" fill="none" xmlns="http://www.w3.org/2000/svg">
<path fill-rule="evenodd" clip-rule="evenodd" d="M2.5 9.64306C2.5 9.11709 2.92639 8.6907 3.45236 8.6907L15.833 8.6907C16.359 8.6907 16.7854 9.11709 16.7854 9.64306C16.7854 10.169 16.359 10.5954 15.833 10.5954L3.45236 10.5954C2.92639 10.5954 2.5 10.169 2.5 9.64306Z" fill="currentColor"/>
<path fill-rule="evenodd" clip-rule="evenodd" d="M2.5 17.3809C2.5 16.855 2.92639 16.4286 3.45236 16.4286L15.833 16.4286C16.359 16.4286 16.7854 16.855 16.7854 17.3809C16.7854 17.9069 16.359 18.3333 15.833 18.3333L3.45236 18.3333C2.92639 18.3333 2.5 17.9069 2.5 17.3809Z" fill="currentColor"/>
<path fill-rule="evenodd" clip-rule="evenodd" d="M3.69045 17.1428L3.69045 10.0002H5.59517V17.1428H3.69045Z" fill="currentColor"/>
<path fill-rule="evenodd" clip-rule="evenodd" d="M13.6902 17.1428V10.0002H15.5949V17.1428H13.6902Z" fill="currentColor"/>
<path fill-rule="evenodd" clip-rule="evenodd" d="M8.69028 17.1428V10.0002H10.595V17.1428H8.69028Z" fill="currentColor"/>
<path d="M9.15272 1.80219C9.45416 1.62136 9.83071 1.62149 10.1322 1.80219L16.0853 5.37347C16.4523 5.59376 16.6273 6.03231 16.5131 6.44476C16.3988 6.85718 16.0231 7.14293 15.5951 7.14301H3.6908C3.26282 7.14301 2.88718 6.85717 2.77283 6.44476C2.65857 6.03223 2.8335 5.59371 3.20057 5.37347L9.15272 1.80219Z" fill="currentColor"/>
</svg>
