<svg  viewBox="0 0 24 24" fill="none" xmlns="http://www.w3.org/2000/svg">
<path d="M4 4V9H9V4H4ZM11 9C11 10.1046 10.1046 11 9 11H4C2.89543 11 2 10.1046 2 9V4C2 2.89543 2.89543 2 4 2H9C10.1046 2 11 2.89543 11 4V9Z" fill="currentColor"/>
<path d="M15 4V9H20V4H15ZM22 9C22 10.1046 21.1046 11 20 11H15C13.8954 11 13 10.1046 13 9V4C13 2.89543 13.8954 2 15 2H20C21.1046 2 22 2.89543 22 4V9Z" fill="currentColor"/>
<path d="M4 15V20H9V15H4ZM11 20C11 21.1046 10.1046 22 9 22H4C2.89543 22 2 21.1046 2 20V15C2 13.8954 2.89543 13 4 13H9C10.1046 13 11 13.8954 11 15V20Z" fill="currentColor"/>
<path d="M20.5 17C21.0523 17 21.5 17.4477 21.5 18C21.5 18.5523 21.0523 19 20.5 19H14.5C13.9477 19 13.5 18.5523 13.5 18C13.5 17.4477 13.9477 17 14.5 17H20.5Z" fill="currentColor"/>
<path d="M16.5 21V15C16.5 14.4477 16.9477 14 17.5 14C18.0523 14 18.5 14.4477 18.5 15V21C18.5 21.5523 18.0523 22 17.5 22C16.9477 22 16.5 21.5523 16.5 21Z" fill="currentColor"/>
</svg>
