<svg width="131" height="20" viewBox="0 0 131 20" fill="none" xmlns="http://www.w3.org/2000/svg" class="MuiSvgIcon-root MuiSvgIcon-fontSizeInherit css-flmtrt" focusable="false" aria-hidden="true" data-testid="alation-company-logo"><g clip-path="url(#clip0_6106_4003)"><path d="M1.47513 19.9996C1.07478 19.9996 0.681906 19.8399 0.396798 19.5406C-0.0309361 19.0917 -0.12233 18.4268 0.168871 17.8829L8.9787 1.42662C9.17719 1.05569 9.53014 0.787527 9.94619 0.691357C10.3621 0.595186 10.8002 0.680764 11.1468 0.925668L21.59 8.30237L40.2958 0.236687C40.8679 -0.00988314 41.5361 0.123434 41.964 0.569493C42.392 1.01555 42.4866 1.67749 42.2004 2.22173L33.7031 18.3764C33.5066 18.7503 33.1533 19.0216 32.7359 19.1196C32.3185 19.2176 31.8782 19.1325 31.5302 18.8866L21.2336 11.6137L2.06851 19.8772C1.87732 19.9596 1.67529 19.9996 1.47513 19.9996ZM10.8008 4.24424L4.73868 15.5682L18.4577 9.65283L10.8008 4.24424ZM24.3659 10.2631L31.8659 15.5609L37.67 4.52681L24.3659 10.2631Z" fill="url(#paint0_linear_6106_4003)"></path><path d="M116.45 19.6009L118.682 6.9785H122.505L122.299 8.13298L122.351 8.15863C123.531 7.18374 124.822 6.69629 126.225 6.69629C127.422 6.69629 128.371 7.05546 129.072 7.77381C129.774 8.49215 130.124 9.44139 130.124 10.6215C130.124 11.032 130.073 11.5451 129.97 12.1608L128.662 19.6009H124.762L126.019 12.4687C126.088 12.0924 126.122 11.7846 126.122 11.5451C126.122 11.1004 125.994 10.7413 125.737 10.4676C125.481 10.1939 125.087 10.0571 124.557 10.0571C123.616 10.0571 122.71 10.4077 121.838 11.109L120.35 19.6009H116.45Z" fill="white"></path><path d="M101.451 14.0337C101.451 11.9813 102.152 10.2367 103.554 8.80001C104.923 7.39753 106.667 6.69629 108.788 6.69629C110.601 6.69629 112.097 7.2265 113.278 8.28691C114.475 9.34733 115.073 10.7669 115.073 12.5457C115.073 14.5981 114.372 16.3426 112.97 17.7793C111.601 19.1818 109.857 19.8831 107.736 19.8831C105.923 19.8831 104.418 19.3529 103.221 18.2924C102.041 17.232 101.451 15.8124 101.451 14.0337ZM105.35 13.7771C105.35 14.5981 105.572 15.2651 106.017 15.7782C106.479 16.2913 107.12 16.5479 107.941 16.5479C108.882 16.5479 109.635 16.2229 110.199 15.573C110.849 14.8204 111.174 13.8968 111.174 12.8022C111.174 11.9813 110.943 11.3142 110.481 10.8011C110.037 10.288 109.404 10.0315 108.583 10.0315C107.642 10.0315 106.889 10.3564 106.325 11.0064C105.675 11.7589 105.35 12.6825 105.35 13.7771Z" fill="white"></path><path d="M96.6192 3.07876C96.6192 2.41173 96.8501 1.85587 97.3119 1.41117C97.7737 0.966485 98.3381 0.744141 99.0051 0.744141C99.6037 0.744141 100.108 0.957934 100.519 1.38552C100.929 1.796 101.134 2.292 101.134 2.87352C101.134 3.54056 100.904 4.09642 100.442 4.54111C99.98 4.9858 99.4156 5.20814 98.7486 5.20814C98.1499 5.20814 97.6454 5.0029 97.2349 4.59242C96.8244 4.16483 96.6192 3.66028 96.6192 3.07876ZM93.9767 19.6007L96.2087 6.97835H100.108L97.8763 19.6007H93.9767Z" fill="white"></path><path d="M85.1235 16.0598C85.1235 15.6835 85.1833 15.1362 85.303 14.4178L86.047 10.2104H83.9946L84.559 6.97782H86.6115L87.2272 3.48871L91.1781 3.25781L90.511 6.97782H93.8206L93.2562 10.2104H89.9466L89.2283 14.3409C89.1599 14.7171 89.1257 15.0164 89.1257 15.2388C89.1257 16.1453 89.596 16.5985 90.5367 16.5985C91.1011 16.5985 91.657 16.4617 92.2043 16.188L91.6142 19.5489C90.9985 19.7712 90.2973 19.8824 89.5105 19.8824C88.279 19.8824 87.2357 19.566 86.3806 18.9331C85.5425 18.3003 85.1235 17.3425 85.1235 16.0598Z" fill="white"></path><path d="M82.1299 8.18429L80.1288 19.6009H76.3062L76.4601 18.7542L76.4088 18.7286C75.5365 19.4982 74.5018 19.8831 73.3045 19.8831C71.885 19.8831 70.7134 19.3785 69.7898 18.3694C68.8833 17.3603 68.4301 16.0519 68.4301 14.4442C68.4301 13.4008 68.6267 12.3832 69.0201 11.3912C69.4306 10.3821 70.0121 9.50981 70.7647 8.77436C72.1843 7.38898 74.0058 6.69629 76.2292 6.69629C78.0764 6.69629 80.0433 7.19229 82.1299 8.18429ZM76.8963 15.8039L77.8455 10.365C77.2298 10.0742 76.5713 9.92884 75.8701 9.92884C74.8439 9.92884 73.9972 10.3222 73.3302 11.109C72.6803 11.8957 72.3553 12.8621 72.3553 14.008C72.3553 14.8461 72.5605 15.5131 72.971 16.0091C73.3986 16.488 73.9716 16.7275 74.6899 16.7275C75.4596 16.7275 76.195 16.4196 76.8963 15.8039Z" fill="white"></path><path d="M60.9055 19.6006L64.369 0H68.2686L64.8051 19.6006H60.9055Z" fill="white"></path><path d="M40.5 19.6007L51.0956 1.02637H55.0722L59.177 19.6007H54.9695L54.1742 15.7011H46.9651L44.7844 19.6007H40.5ZM49.9668 10.2879L48.7353 12.4942H53.5072L53.0454 10.2622C52.7888 9.01369 52.5323 7.6283 52.2757 6.1061H52.2244C51.7455 7.04679 50.993 8.44072 49.9668 10.2879Z" fill="white"></path></g><defs><linearGradient id="paint0_linear_6106_4003" x1="-0.00000322528" y1="20.0306" x2="20.0851" y2="-16.3496" gradientUnits="userSpaceOnUse"><stop stop-color="#F47C20"></stop><stop offset="1" stop-color="#FDA600"></stop></linearGradient><clipPath id="clip0_6106_4003"><rect width="131" height="20" fill="white"></rect></clipPath></defs></svg>