<svg width="24" height="24" viewBox="0 0 24 24" xmlns="http://www.w3.org/2000/svg">
<path fill-rule="evenodd" clip-rule="evenodd" d="M8.28572 4.28571H4.28571L4.28571 8.28572H8.28572V4.28571ZM4.28571 2C3.02335 2 2 3.02335 2 4.28571V8.28572C2 9.54808 3.02335 10.5714 4.28571 10.5714H8.28572C9.54808 10.5714 10.5714 9.54808 10.5714 8.28572V4.28571C10.5714 3.02335 9.54808 2 8.28572 2H4.28571Z" />
<path fill-rule="evenodd" clip-rule="evenodd" d="M8.28572 15.7154H4.28571L4.28571 19.7154H8.28572V15.7154ZM4.28571 13.4297C3.02335 13.4297 2 14.453 2 15.7154V19.7154C2 20.9778 3.02335 22.0011 4.28571 22.0011H8.28572C9.54808 22.0011 10.5714 20.9778 10.5714 19.7154V15.7154C10.5714 14.453 9.54808 13.4297 8.28572 13.4297H4.28571Z" />
<path fill-rule="evenodd" clip-rule="evenodd" d="M19.7143 15.7154H15.7143L15.7143 19.7154H19.7143V15.7154ZM15.7143 13.4297C14.4519 13.4297 13.4286 14.453 13.4286 15.7154V19.7154C13.4286 20.9778 14.4519 22.0011 15.7143 22.0011H19.7143C20.9766 22.0011 22 20.9778 22 19.7154V15.7154C22 14.453 20.9766 13.4297 19.7143 13.4297H15.7143Z" />
<path fill-rule="evenodd" clip-rule="evenodd" d="M13.7143 6.28739C13.7143 5.65621 14.2259 5.14453 14.8571 5.14453L20.5714 5.14453C21.2026 5.14453 21.7143 5.65621 21.7143 6.28739C21.7143 6.91857 21.2026 7.43024 20.5714 7.43025L14.8571 7.43025C14.2259 7.43025 13.7143 6.91857 13.7143 6.28739Z" />
<path fill-rule="evenodd" clip-rule="evenodd" d="M17.7143 10.2852C17.0831 10.2852 16.5714 9.77348 16.5714 9.1423L16.5714 3.42801C16.5714 2.79683 17.0831 2.28516 17.7143 2.28516C18.3455 2.28516 18.8571 2.79683 18.8571 3.42801L18.8571 9.1423C18.8571 9.77348 18.3455 10.2852 17.7143 10.2852Z" />
</svg>
