<svg  viewBox="0 0 24 24" fill="none" xmlns="http://www.w3.org/2000/svg">
<path d="M19.375 16H18.625C18.625 17.4497 17.4497 18.625 16 18.625V19.375C17.4497 19.375 18.625 20.5503 18.625 22H19.375C19.375 20.5503 20.5503 19.375 22 19.375V18.625C20.5503 18.625 19.375 17.4497 19.375 16Z" fill="currentColor"/>
<path d="M20 2C20.5523 2 21 2.44772 21 3V8C21 8.55228 20.5523 9 20 9H15V22C15 22.5523 14.5523 23 14 23H10C9.44772 23 9 22.5523 9 22V9H3.5C2.94772 9 2.5 8.55228 2.5 8V5.61803C2.5 5.23926 2.714 4.893 3.05279 4.72361L8.5 2H20ZM15 4H8.97214L4.5 6.23607V7H11V21H13V7H15V4ZM19 4H17V7H19V4Z" fill="currentColor"/>
</svg>
