<svg width="24" height="24" viewBox="0 0 24 24" xmlns="http://www.w3.org/2000/svg">
<path fill-rule="evenodd" clip-rule="evenodd" d="M19.5884 8.12311C20.9203 8.12311 22 7.04342 22 5.71155C22 4.37968 20.9203 3.29999 19.5884 3.29999C18.2566 3.29999 17.1769 4.37968 17.1769 5.71155C17.1769 6.1642 17.3016 6.58773 17.5185 6.94964L15.1965 11.3592C14.7922 11.3717 14.4129 11.4837 14.0824 11.6715L10.7711 9.28534C10.7866 9.17471 10.7947 9.06168 10.7947 8.94676C10.7947 7.61489 9.71499 6.5352 8.38312 6.5352C7.05125 6.5352 5.97156 7.61489 5.97156 8.94676C5.97156 9.47662 6.14244 9.96657 6.43211 10.3645L4.16724 15.8903C2.95012 16.0128 2 17.0403 2 18.2897C2 19.6215 3.07969 20.7012 4.41156 20.7012C5.74343 20.7012 6.82312 19.6215 6.82312 18.2897C6.82312 17.7109 6.61923 17.1798 6.27936 16.7641L8.4961 11.3557C8.82422 11.3406 9.13522 11.2599 9.4163 11.1264L12.8658 13.6122C12.8625 13.6642 12.8608 13.7167 12.8608 13.7696C12.8608 15.1015 13.9405 16.1811 15.2723 16.1811C16.6042 16.1811 17.6839 15.1015 17.6839 13.7696C17.6839 13.2517 17.5206 12.7719 17.2428 12.3789L19.485 8.12093C19.5193 8.12238 19.5538 8.12311 19.5884 8.12311ZM19.5884 6.69454C20.1313 6.69454 20.5714 6.25444 20.5714 5.71155C20.5714 5.16866 20.1313 4.72856 19.5884 4.72856C19.0455 4.72856 18.6054 5.16866 18.6054 5.71155C18.6054 6.25444 19.0455 6.69454 19.5884 6.69454ZM8.38312 9.92975C8.92601 9.92975 9.36611 9.48965 9.36611 8.94676C9.36611 8.40387 8.92601 7.96377 8.38312 7.96377C7.84023 7.96377 7.40013 8.40387 7.40013 8.94676C7.40013 9.48965 7.84023 9.92975 8.38312 9.92975ZM4.41156 19.2727C4.95445 19.2727 5.39455 18.8326 5.39455 18.2897C5.39455 17.7468 4.95445 17.3067 4.41156 17.3067C3.86867 17.3067 3.42857 17.7468 3.42857 18.2897C3.42857 18.8326 3.86867 19.2727 4.41156 19.2727ZM16.2553 13.7696C16.2553 14.3125 15.8152 14.7526 15.2723 14.7526C14.7294 14.7526 14.2893 14.3125 14.2893 13.7696C14.2893 13.2267 14.7294 12.7866 15.2723 12.7866C15.8152 12.7866 16.2553 13.2267 16.2553 13.7696Z" />
</svg>
