<svg xmlns="http://www.w3.org/2000/svg" width="24" height="24" ><path  d="M19.573 20.5h-3.831c-.511 0-1.022-.5-1.022-1s.51-1 1.022-1h3.831c.128 0 .256-.125.256-.25V9.5c0-.125-.128-.25-.256-.25h-5.747c-.767 0-1.533-.375-1.916-1l-1.788-2.625c0-.125-.128-.125-.256-.125H5.524c-.128 0-.256.125-.256.25V7c0 .5-.51 1-1.021 1-.511 0-1.022-.5-1.022-1V5.75c0-1.25 1.022-2.25 2.299-2.25h4.47c.766 0 1.533.375 1.916 1l1.788 2.625c0 .125.128.125.255.125h5.748c1.277 0 2.299 1 2.299 2.25v8.75c-.128 1.25-1.15 2.25-2.427 2.25Z"/><path  d="M10.634 14.25H2.97c-.383 0-.766-.25-.894-.625-.127-.375-.127-.75.256-1.125L4.886 10a1.018 1.018 0 0 1 1.405 0c.383.375.383 1 0 1.375l-.766.75h5.236c.511 0 1.022.5 1.022 1s-.638 1.125-1.15 1.125ZM9.355 20.5c-.255 0-.51-.125-.766-.25a.966.966 0 0 1 0-1.375l.766-.75H4.247c-.511 0-1.022-.5-1.022-1s.51-1 1.022-1h7.663c.383 0 .766.25.894.625s.128.75-.255 1.125l-2.555 2.5c-.128 0-.383.125-.639.125Z"/></svg>