<svg xmlns="http://www.w3.org/2000/svg" width="24" height="24" ><path  d="M20.824 22H3.176C2.588 22 2 21.413 2 20.827c0-.587.588-1.173 1.176-1.173h17.648c.588 0 1.176.586 1.176 1.173 0 .586-.588 1.173-1.176 1.173ZM19.353 16.135H4.647c-.588 0-1.177-.587-1.177-1.173v-4.4c0-.293.147-.586.294-.88l4.412-4.398c.441-.44 1.03-.44 1.47-.147l3.677 2.346 5.147-5.132c.295-.293.883-.44 1.324-.293.441.146.735.586.735 1.026v11.731c0 .733-.588 1.32-1.176 1.32Zm-13.53-2.346h12.353V6.017l-3.823 3.812c-.442.44-1.03.44-1.471.147L9.206 7.63l-3.383 3.373v2.786Z"/></svg>