<svg xmlns="http://www.w3.org/2000/svg" width="24" height="24" ><path  d="m19.767 7-4.25-4.265C14.931 2.295 14.345 2 13.612 2H6.138A2.631 2.631 0 0 0 3.5 4.647v14.706A2.631 2.631 0 0 0 6.138 22h11.724a2.631 2.631 0 0 0 2.638-2.647V8.912c0-.736-.294-1.471-.733-1.912Zm-6.01-2.5 4.25 4.265c.147 0 .147.147.147.147v.44h-4.982v-5h.44s.146 0 .146.148Zm4.105 15.147H6.138c-.147 0-.293-.147-.293-.294V4.647c0-.147.146-.294.293-.294h4.69v6.176c0 .588.585 1.176 1.171 1.176h6.155v7.648a.314.314 0 0 1-.292.294Z"/></svg>