<svg xmlns="http://www.w3.org/2000/svg" width="24" height="24" ><path  fill-rule="evenodd" d="M15.556 2.7H4.068A2.06 2.06 0 0 0 2 4.768v10.34a2.06 2.06 0 0 0 2.068 2.068h3.936a9.01 9.01 0 0 1 .318-.662c.513-.967 1.284-1.97 2.41-2.733v-.275a4.845 4.845 0 0 1-.42-1.975c0-.703.15-1.371.42-1.975v-3.87h5.054v1.025a4.828 4.828 0 0 1 1.838.625V4.768A2.06 2.06 0 0 0 15.556 2.7ZM3.838 5.686h5.055v3.907H3.838V5.686Zm0 9.422v-3.676h5.055v3.906H4.068c-.115 0-.23-.116-.23-.23Z" clip-rule="evenodd"/><path  fill-rule="evenodd" d="M11.441 11.544c0 1.002.395 1.913 1.038 2.585-2.976 1.214-3.998 4.364-4.095 6.209a.887.887 0 0 0 .837.937c.48.045.904-.346.937-.837.011-.2.346-5.022 5.022-5.022 4.688 0 5.022 4.822 5.033 5.022.023.48.424.849.893.849.011 0 .034 0 .045-.012a.897.897 0 0 0 .848-.937c-.098-1.848-1.122-5.004-4.108-6.215a3.708 3.708 0 0 0 1.028-2.568 3.746 3.746 0 0 0-3.739-3.739 3.737 3.737 0 0 0-3.739 3.728Zm3.74-1.942c-1.072 0-1.954.87-1.954 1.953 0 1.082.882 1.942 1.953 1.942 1.071 0 1.953-.87 1.953-1.953 0-1.083-.87-1.942-1.953-1.942Z" clip-rule="evenodd"/></svg>