<svg width="24" height="24" viewBox="0 0 24 24" xmlns="http://www.w3.org/2000/svg">
<path d="M20.1079 2H11.891C10.5215 2 9.42542 3.09604 9.42542 4.46554V9.31921H11.6167L11.6164 5.56158H20.3825V19.5356C20.3825 19.6717 20.2452 19.809 20.1079 19.809H11.891C11.7537 19.809 11.6175 19.6717 11.6175 19.5345L11.6172 15.3192H9.42542V19.5345C9.42542 20.904 10.5215 22 11.891 22H20.109C21.4785 22 22.5746 20.904 22.5746 19.5345V4.46554C22.5735 3.09604 21.4774 2 20.1079 2Z"/>
<path fill-rule="evenodd" clip-rule="evenodd" d="M8.97778 11.0764C8.56447 9.40612 7.05565 8.16782 5.25761 8.16782C3.14115 8.16782 1.42542 9.88355 1.42542 12C1.42542 14.1165 3.14115 15.8322 5.25761 15.8322C7.05562 15.8322 8.56441 14.594 8.97775 12.9237H15.1527V14.7373C15.1527 15.2474 15.5662 15.6609 16.0764 15.6609C16.5865 15.6609 17 15.2474 17 14.7373V12.0001C17 11.49 16.5865 11.0764 16.0764 11.0764L8.97778 11.0764ZM5.25761 10.0151C6.35385 10.0151 7.24253 10.9038 7.24253 12C7.24253 13.0963 6.35385 13.9849 5.25761 13.9849C4.16137 13.9849 3.27269 13.0963 3.27269 12C3.27269 10.9038 4.16137 10.0151 5.25761 10.0151Z"/>
</svg>
