<svg width="24" height="24" viewBox="0 0 24 24" xmlns="http://www.w3.org/2000/svg">
<path fill-rule="evenodd" clip-rule="evenodd" d="M14.8938 9.56592C14.8938 11.1233 13.8213 12.4301 12.3745 12.7881V18.0703C12.3745 18.5121 12.0164 18.8703 11.5745 18.8703H9.20374C8.76191 18.8703 8.40374 18.5121 8.40374 18.0703C8.40374 17.6285 8.76191 17.2703 9.20374 17.2703H10.7745V12.7881C9.32787 12.4301 8.25537 11.1232 8.25537 9.56592C8.25537 7.73277 9.74143 6.2467 11.5746 6.2467C13.4077 6.2467 14.8938 7.73277 14.8938 9.56592ZM11.5746 11.2851C12.5241 11.2851 13.2938 10.5154 13.2938 9.56592C13.2938 8.61642 12.5241 7.8467 11.5746 7.8467C10.6251 7.8467 9.85537 8.61642 9.85537 9.56592C9.85537 10.5154 10.6251 11.2851 11.5746 11.2851Z"/>
<path fill-rule="evenodd" clip-rule="evenodd" d="M15.6825 2H7.46554C6.09604 2 5 3.09604 5 4.46554V19.5345C5 20.904 6.09604 22 7.46554 22H15.6836C17.0531 22 18.1492 20.904 18.1492 19.5345V4.46554C18.1481 3.09604 17.052 2 15.6825 2ZM7.19097 5.56158H15.9571V19.5356C15.9571 19.6717 15.8198 19.809 15.6825 19.809H7.46554C7.32826 19.809 7.19209 19.6717 7.19209 19.5345L7.19097 5.56158Z"/>
</svg>
