<svg width="24" height="24" viewBox="0 0 24 24" xmlns="http://www.w3.org/2000/svg">
<path d="M7.46554 2H15.6825C17.052 2 18.1481 3.09604 18.1492 4.46554V19.5345C18.1492 20.904 17.0531 22 15.6836 22H7.46554C6.1883 22 5.14891 21.0466 5.01467 19.8073H7.43823C7.4473 19.8084 7.45642 19.809 7.46554 19.809H15.6825C15.8198 19.809 15.9571 19.6717 15.9571 19.5356V16.5209H9.26489V14.3288H15.956V11.0407H9.26489V8.8486H15.9571V5.56158L5 5.5625V4.46554C5 3.09604 6.09604 2 7.46554 2Z"/>
<path d="M7.51233 8.59564C7.51233 9.43084 6.83526 10.1079 6.00006 10.1079C5.16486 10.1079 4.48779 9.43084 4.48779 8.59564C4.48779 7.76044 5.16486 7.08337 6.00006 7.08337C6.83526 7.08337 7.51233 7.76044 7.51233 8.59564Z"/>
<path d="M7.09717 18.1473V11.5233H4.90295V18.1473H7.09717Z" />
</svg>
