<svg xmlns="http://www.w3.org/2000/svg" width="24" height="24" ><path  d="M10.729 22c-.257 0-.386-.128-.641-.257a1.042 1.042 0 0 1-.257-1.41l2.566-3.461c.77-.898 1.925-1.154 2.952-.513l1.668 1.026h.257l2.952-3.462c.386-.385 1.027-.513 1.413-.128.385.385.514 1.025.128 1.41l-2.952 3.462c-.77.77-1.925 1.026-2.823.385l-1.669-1.025h-.257L11.5 21.36s-.515.64-.771.64ZM17.146 2H4.31A2.3 2.3 0 0 0 2 4.308v11.538a2.3 2.3 0 0 0 2.31 2.308h2.567c.514 0 1.027-.511 1.027-1.025 0-.513-.513-1.025-1.027-1.025H4.311a.276.276 0 0 1-.257-.257v-4.103H9.7v2.179c0 .513.513 1.026 1.027 1.026.514 0 1.027-.513 1.027-1.026v-2.179h6.675c.513 0 1.027-.513 1.027-1.025V4.308A2.3 2.3 0 0 0 17.146 2ZM4.054 9.692V5.334H9.7v4.358H4.054Zm7.7 0V5.334h5.649v4.358h-5.648Z"/></svg>