<svg xmlns="http://www.w3.org/2000/svg" width="24" height="24" ><path  d="M17.882 22H3.176C2.588 22 2 21.412 2 20.823V3.177C2 2.588 2.588 2 3.176 2h14.706C20.088 2 22 3.912 22 6.118v11.764C22 20.088 20.088 22 17.882 22Zm-13.53-2.353h13.53c1.03 0 1.765-.735 1.765-1.765V6.118c0-1.03-.735-1.765-1.765-1.765H4.352v15.294Z"/><path  d="M7.587 16.117c-.588 0-1.177-.588-1.177-1.177v-1.47c0-.588.589-1.177 1.177-1.177.588 0 1.176.589 1.176 1.177v1.47c0 .589-.588 1.177-1.176 1.177ZM12 16.118c-.588 0-1.176-.588-1.176-1.176V9.059c0-.588.588-1.176 1.176-1.176s1.177.588 1.177 1.176v5.883c0 .588-.589 1.176-1.177 1.176ZM16.41 16.118c-.588 0-1.176-.588-1.176-1.177v-2.94c0-.59.588-1.177 1.176-1.177.589 0 1.177.588 1.177 1.176v2.941c0 .589-.588 1.177-1.177 1.177Z"/></svg>