<svg width="24" height="24" viewBox="0 0 24 24" xmlns="http://www.w3.org/2000/svg">
<path d="M18.7793 2H13.6432C11.8755 2 10.1918 2.75901 9.01265 4.06544L3.14068 10.5984C1.56208 12.3683 1.6254 15.0659 3.30923 16.7314L7.26646 20.6936C8.12976 21.5579 9.26602 22 10.4237 22C11.4974 22 12.5499 21.6205 13.4123 20.8623L19.9371 14.9616C21.2419 13.7811 22 12.0951 22 10.3253V5.20319C21.9786 3.4333 20.5471 2 18.7793 2ZM19.937 10.3458C19.937 11.5263 19.4322 12.6639 18.5475 13.465L12.0226 19.3442C11.0754 20.2086 9.60207 20.1658 8.6968 19.2603L4.74041 15.2981C3.83518 14.3918 3.79325 12.938 4.65655 11.9682L10.5285 5.4352C11.3285 4.55026 12.4648 4.04397 13.6438 4.04397H18.7791C19.4105 4.04397 19.9367 4.57083 19.9367 5.20305L19.937 10.3458Z" />
<path d="M17.7267 8.34372C17.7267 9.49538 16.7935 10.4297 15.6425 10.4297C14.4923 10.4297 13.5591 9.49538 13.5591 8.34372C13.5591 7.19122 14.4923 6.2569 15.6425 6.2569C16.7936 6.2569 17.7267 7.19124 17.7267 8.34372Z" />
</svg>
