<svg width="24" height="24" viewBox="0 0 24 24" fill="none" xmlns="http://www.w3.org/2000/svg">
  <path d="M20.667 22.5L20.666 21.5791C20.1625 21.97 19.5914 22.2679 18.9775 22.4512C18.1892 22.6865 17.3555 22.7297 16.5469 22.5781C15.7384 22.4265 14.9776 22.084 14.3281 21.5791C13.6786 21.0742 13.1589 20.421 12.8125 19.6748C12.5802 19.1739 12.798 18.5791 13.2988 18.3467C13.7998 18.1142 14.3944 18.3321 14.627 18.833C14.8392 19.2904 15.1576 19.6905 15.5557 20C15.9538 20.3095 16.4204 20.5194 16.916 20.6123C17.4116 20.7052 17.9222 20.6784 18.4053 20.5342C18.6888 20.4495 18.9575 20.3253 19.2051 20.167H18.333C17.781 20.1668 17.3332 19.719 17.333 19.167C17.333 18.6148 17.7809 18.1672 18.333 18.167H21.666C22.218 18.1671 22.6657 18.614 22.666 19.166L22.667 22.5C22.667 23.0521 22.2192 23.4998 21.667 23.5C21.1147 23.5001 20.6671 23.0523 20.667 22.5ZM16.0215 12.5488C16.8097 12.3136 17.6427 12.2703 18.4512 12.4219C19.2598 12.5735 20.0214 12.916 20.6709 13.4209C21.3203 13.9258 21.8392 14.579 22.1855 15.3252C22.4179 15.8261 22.201 16.4208 21.7002 16.6533C21.1993 16.8858 20.6047 16.6678 20.3721 16.167C20.1598 15.7097 19.8413 15.3095 19.4434 15C19.0453 14.6905 18.5786 14.4806 18.083 14.3877C17.5875 14.2948 17.0769 14.3216 16.5938 14.4658C16.3103 14.5504 16.0414 14.6747 15.7939 14.833H16.666C17.2182 14.833 17.6658 15.2809 17.666 15.833C17.666 16.3853 17.2183 16.833 16.666 16.833H13.333C12.7807 16.833 12.333 16.3853 12.333 15.833V12.5C12.333 11.9477 12.7807 11.5 13.333 11.5C13.8852 11.5001 14.333 11.9478 14.333 12.5V13.4189C14.8363 13.0285 15.4081 12.7319 16.0215 12.5488ZM4 14H8V10H4V14ZM20 5C20 4.44771 19.5523 4 19 4H10V8H20V5ZM4 19C4 19.5523 4.44771 20 5 20H8V16H4V19ZM4 8H8V4H5C4.44772 4 4 4.44772 4 5V8ZM22 11C22 11.5523 21.5523 12 21 12C20.4477 12 20 11.5523 20 11V10H10V14H10.5C11.0523 14 11.5 14.4477 11.5 15C11.5 15.5523 11.0523 16 10.5 16H10V20H10.5C11.0523 20 11.5 20.4477 11.5 21C11.5 21.5523 11.0523 22 10.5 22H5C3.34315 22 2 20.6569 2 19V5C2 3.34315 3.34315 2 5 2H19C20.6569 2 22 3.34315 22 5V11Z"/>
</svg>
