<svg xmlns="http://www.w3.org/2000/svg" width="24" height="24" ><path  fill-rule="evenodd" d="M16.472 8.033a1.397 1.397 0 0 1-1.397-1.397v-3.24a1.397 1.397 0 0 1 2.794 0v3.24c0 .772-.626 1.397-1.397 1.397Zm2.587-1.048H20v11.238a.857.857 0 0 1-.857.858H4.857A.857.857 0 0 1 4 18.223V6.985h.99a3.097 3.097 0 0 1-.016-.314V3.756c0-.216.022-.426.064-.628h-.18A2.857 2.857 0 0 0 2 5.985v12.238a2.857 2.857 0 0 0 2.857 2.858h14.286A2.857 2.857 0 0 0 22 18.223V5.985a2.857 2.857 0 0 0-2.857-2.857h-.092c.02.149.032.302.032.458v3.001c0 .135-.008.268-.024.398ZM13.9 3.128h-3.774c.042.202.064.412.064.628v2.915c0 .106-.005.21-.015.314h3.717a3.282 3.282 0 0 1-.025-.398V3.586c0-.156.011-.31.033-.458ZM6.13 6.806a1.447 1.447 0 1 0 2.895 0V3.45a1.447 1.447 0 1 0-2.895 0v3.356Z" clip-rule="evenodd"/><path  d="M7.07 11.994a1.708 1.708 0 0 1-.355-.317c-.118-.143-.178-.337-.178-.582 0-.456.28-.781.836-.976l1.482-.532h.431c.321 0 .579.097.773.292.194.194.291.451.291.772v6.714c-.093.025-.215.05-.367.076-.152.025-.321.038-.507.038-.38 0-.654-.064-.823-.19-.17-.127-.254-.368-.254-.722v-5.042l-1.33.469ZM12.155 10.727c0-.397.207-.7.62-.912.423-.21.972-.316 1.648-.316.48 0 .907.059 1.279.177.371.118.68.283.925.494.245.203.43.448.557.735.127.278.19.582.19.912 0 .456-.127.895-.38 1.317-.245.422-.633.853-1.165 1.292l-1.736 1.444h3.18c.042.076.084.182.126.317.043.135.064.274.064.418 0 .27-.06.468-.178.595-.118.118-.278.177-.481.177h-4.42c-.347-.236-.52-.59-.52-1.064 0-.253.05-.468.152-.646.11-.185.232-.337.367-.456l1.85-1.621c.447-.388.755-.705.924-.95.17-.253.254-.49.254-.71a.747.747 0 0 0-.304-.633c-.203-.16-.494-.24-.874-.24-.355 0-.668.055-.938.164a3.322 3.322 0 0 0-.671.342 1.412 1.412 0 0 1-.33-.342.85.85 0 0 1-.139-.494Z"/></svg>