<svg xmlns="http://www.w3.org/2000/svg" width="24" height="24" ><path  d="M14.893 19.31c-.643 0-1.158-.257-1.672-.643L8.333 13.78c-.9-.9-.9-2.315 0-3.216l4.888-4.888c.9-.9 2.315-.9 3.216 0l4.888 4.888c.9.9.9 2.316 0 3.216l-4.888 4.888a2.13 2.13 0 0 1-1.544.643Zm0-12.348c-.129 0-.129 0-.129.128l-4.887 4.888c-.13.129-.13.258 0 .386l4.887 4.888c.13.129.258.129.386 0l4.888-4.888c.129-.128.129-.257 0-.386L15.15 7.09c-.128-.128-.128-.128-.257-.128Z"/><path  d="M8.592 19.181c-.257 0-.514-.129-.771-.257l-5.146-5.146c-.9-.9-.9-2.315 0-3.215l5.146-5.146a1.01 1.01 0 0 1 1.415 0 1.01 1.01 0 0 1 0 1.415L4.09 11.978c-.128.128-.128.257 0 .386l5.146 5.145a1.01 1.01 0 0 1 0 1.415.983.983 0 0 1-.644.257Z"/></svg>