<svg width="24" height="24" viewBox="0 0 24 24" fill="none" xmlns="http://www.w3.org/2000/svg">
<path d="M3 9.15039V4C3 3.20435 3.3163 2.44151 3.87891 1.87891C4.44152 1.3163 5.20435 1 6 1H14C14.448 0.999224 14.8916 1.08748 15.3057 1.25879C15.7199 1.43023 16.0965 1.68159 16.4131 1.99902L20 5.58594L20.1162 5.70703C20.3799 5.99708 20.591 6.33138 20.7412 6.69434C20.9125 7.10835 21.0008 7.55195 21 8V20C21 20.7956 20.6837 21.5585 20.1211 22.1211C19.5585 22.6837 18.7957 23 18 23H13C12.4477 23 12 22.5523 12 22C12 21.4477 12.4477 21 13 21H18C18.2652 21 18.5195 20.8946 18.707 20.707C18.8946 20.5195 19 20.2652 19 20V9H15C14.4696 9 13.961 8.78913 13.5859 8.41406C13.2109 8.03899 13 7.53043 13 7V3H6C5.73478 3 5.4805 3.10543 5.29297 3.29297C5.10543 3.4805 5 3.73479 5 4V9.15039C4.99979 9.7025 4.55216 10.1504 4 10.1504C3.44784 10.1504 3.00021 9.7025 3 9.15039ZM18.5859 7L15 3.41406V7H18.5859Z"/>
<path d="M5.49168 12C5.98237 12.0025 6.46378 12.1368 6.88538 12.39L6.88806 12.3918L9.66562 14.0745L9.81958 14.1747C10.1703 14.4204 10.4603 14.7457 10.6655 15.1253C10.8952 15.5505 11.0098 16.029 10.9993 16.5128V19.4945L10.9958 19.6795C10.9733 20.1088 10.8517 20.5275 10.6404 20.9027C10.4023 21.3254 10.0577 21.6766 9.64234 21.9228L9.64324 21.9237L6.92118 23.5965C6.91597 23.5997 6.91034 23.6033 6.90507 23.6064C6.53712 23.8225 6.12515 23.9475 5.70203 23.9756C5.63686 23.9905 5.56934 24 5.49973 24C5.42146 24 5.34579 23.9888 5.27327 23.9702C4.86471 23.9329 4.46824 23.8056 4.11409 23.5929L4.1114 23.5911L1.33385 21.9084C0.914108 21.6542 0.569212 21.2911 0.334895 20.8576C0.105108 20.4323 -0.00945259 19.954 0.00101605 19.4701L0.000120927 16.4758C-0.00442961 15.9868 0.119525 15.5054 0.359064 15.0801C0.597129 14.6576 0.941017 14.3053 1.35623 14.0592L4.07828 12.3864L4.0944 12.3765C4.51846 12.1274 5.00095 11.9976 5.49168 12ZM6.41633 18.979V21.7414L8.68904 20.3449C8.69519 20.3411 8.7016 20.3377 8.70784 20.334C8.84908 20.2518 8.96653 20.1331 9.04709 19.9901C9.1276 19.8472 9.16835 19.685 9.16614 19.5207V17.3261L6.41633 18.979ZM1.83332 19.5008C1.82806 19.6654 1.8662 19.8284 1.94432 19.9729C2.02245 20.1175 2.13733 20.2385 2.2773 20.3232L4.58313 21.7197V18.979L1.83332 17.3261V19.5008ZM5.48273 13.8488C5.31921 13.848 5.15858 13.8913 5.01726 13.9743L5.01637 13.9734L2.45543 15.5487L5.49973 17.3767L8.54135 15.5496L5.94729 13.9788L5.83809 13.9228C5.72611 13.8746 5.60529 13.8494 5.48273 13.8488Z"/>
</svg>
