<svg width="24" height="24" viewBox="0 0 24 24" fill="none" xmlns="http://www.w3.org/2000/svg">
<path d="M4.875 18.0005V16.1255H3C2.37884 16.1255 1.87526 15.6216 1.875 15.0005C1.875 14.3792 2.37868 13.8755 3 13.8755H4.875V12.0005C4.875 11.3792 5.37868 10.8755 6 10.8755C6.62132 10.8755 7.125 11.3792 7.125 12.0005V13.8755H9C9.62132 13.8755 10.125 14.3792 10.125 15.0005C10.1247 15.6216 9.62116 16.1255 9 16.1255H7.125V18.0005C7.12474 18.6216 6.62116 19.1255 6 19.1255C5.37884 19.1255 4.87526 18.6216 4.875 18.0005ZM2.87549 8V3.99951C2.87562 3.17089 3.20508 2.37646 3.79102 1.79053C4.37704 1.20463 5.17131 0.875 6 0.875H15L15.2212 0.896973C15.4372 0.940286 15.6373 1.04653 15.7954 1.20459L20.7949 6.2041C21.0058 6.41496 21.1244 6.70132 21.1245 6.99951V20C21.1245 20.8288 20.795 21.6229 20.209 22.209C19.6229 22.795 18.8288 23.1245 18 23.1245H4.00049C3.37917 23.1245 2.87549 22.6208 2.87549 21.9995C2.87575 21.3784 3.37933 20.8745 4.00049 20.8745H18C18.2321 20.8745 18.4541 20.7823 18.6182 20.6182C18.7823 20.4541 18.8745 20.2321 18.8745 20V9.125H16.0005C15.1717 9.125 14.3761 8.79552 13.79 8.20947C13.2043 7.62356 12.8746 6.829 12.8745 6.00049V3.125H6C5.76805 3.125 5.54591 3.21741 5.38184 3.38135C5.21786 3.54533 5.12562 3.76762 5.12549 3.99951V8C5.12549 8.62116 4.62158 9.12474 4.00049 9.125C3.37917 9.125 2.87549 8.62132 2.87549 8ZM15.1245 6.00049C15.1246 6.23226 15.217 6.4547 15.3809 6.61865C15.545 6.78275 15.7684 6.875 16.0005 6.875H18.2842L15.1245 3.71533V6.00049Z" />
</svg>
