<svg width="24" height="24" viewBox="0 0 24 24" fill="none" xmlns="http://www.w3.org/2000/svg">
<path d="M15.875 17.8276C15.8748 17.5958 15.7826 17.3734 15.6187 17.2095L11.999 13.5898L8.38086 17.2095C8.21701 17.3734 8.12472 17.5959 8.12451 17.8276V20.8745H15.875V17.8276ZM15.875 3.125H8.12451V6.17188L8.14209 6.34326C8.17571 6.51122 8.25803 6.66707 8.38086 6.79004L11.999 10.4082L15.6187 6.79004L15.7285 6.65674C15.8234 6.51422 15.8749 6.34564 15.875 6.17188V3.125ZM18.1104 6.48096C18.0392 7.19634 17.7223 7.8696 17.2095 8.38232L17.208 8.38086L13.5898 11.999L17.2095 15.6187L17.4175 15.8472C17.8731 16.4031 18.1248 17.1025 18.125 17.8276V20.8745H18.9995C19.6207 20.8745 20.1242 21.3784 20.1245 21.9995C20.1245 22.6208 19.6208 23.1245 18.9995 23.1245H5C4.37868 23.1245 3.875 22.6208 3.875 21.9995C3.87526 21.3784 4.37884 20.8745 5 20.8745H5.87451V17.8276C5.87472 16.9991 6.20424 16.2045 6.79004 15.6187L10.4082 11.999L6.79004 8.38086C6.20437 7.79501 5.87469 7.00029 5.87451 6.17188V3.125H5C4.37868 3.125 3.875 2.62132 3.875 2C3.875 1.37868 4.37868 0.875 5 0.875H18.9995C19.6208 0.875 20.1245 1.37868 20.1245 2C20.1245 2.62132 19.6208 3.125 18.9995 3.125H18.125V6.17188L18.1104 6.48096Z" />
</svg>
