<svg width="24" height="24" viewBox="0 0 24 24" fill="none" xmlns="http://www.w3.org/2000/svg">
<path d="M8.6 22.5L6.7 19.3L3.1 18.5L3.45 14.8L1 12L3.45 9.2L3.1 5.5L6.7 4.7L8.6 1.5L12 2.95L15.4 1.5L17.3 4.7L20.9 5.5L20.55 9.2L23 12L20.55 14.8L20.9 18.5L17.3 19.3L15.4 22.5L12 21.05L8.6 22.5ZM9.45 19.95L12 18.85L14.6 19.95L16 17.55L18.75 16.9L18.5 14.1L20.35 12L18.5 9.85L18.75 7.05L16 6.45L14.55 4.05L12 5.15L9.4 4.05L8 6.45L5.25 7.05L5.5 9.85L3.65 12L5.5 14.1L5.25 16.95L8 17.55L9.45 19.95ZM10.95 15.55L16.6 9.9L15.2 8.45L10.95 12.7L8.8 10.6L7.4 12L10.95 15.55Z" />
<path d="M17.2993 4.70068L20.8999 5.50049L20.5498 9.20068L23.0005 12L20.5498 14.7993L20.8999 18.4995L17.2993 19.2993L15.3994 22.5L11.9995 21.0498L8.59961 22.5L6.69971 19.2993L3.10059 18.4995L3.45068 14.7993L1 12L3.45068 9.20068L3.10059 5.50049L6.69971 4.70068L8.59961 1.5L11.9995 2.9502L15.3994 1.5L17.2993 4.70068ZM11.9995 5.15039L9.39941 4.05029L8.00049 6.44971L5.24951 7.05029L5.5 9.84961L3.6499 12L5.5 14.1006L5.24951 16.9497L8.00049 17.5503L9.45068 19.9497L11.9995 18.8496L14.5996 19.9497L16 17.5503L18.7495 16.8999L18.5005 14.1006L20.3506 12L18.5005 9.84961L18.7495 7.05029L16 6.44971L14.5498 4.05029L11.9995 5.15039ZM16.6006 9.89941L10.9507 15.5493L7.3999 12L8.80029 10.5996L10.9507 12.7002L15.2002 8.45068L16.6006 9.89941Z" />
</svg>
