<svg width="24" height="24" viewBox="0 0 24 24" fill="none" xmlns="http://www.w3.org/2000/svg">
<path d="M12.8755 14.1245C12.8755 13.9935 12.8494 13.8632 12.7993 13.7422C12.7491 13.621 12.6753 13.5098 12.5825 13.417C12.4898 13.3243 12.3799 13.2504 12.2588 13.2002C12.1377 13.15 12.0075 13.1241 11.8765 13.124C11.7455 13.124 11.6152 13.1502 11.4941 13.2002C11.3729 13.2504 11.2617 13.3242 11.1689 13.417L6.15918 18.4297C6.0813 18.5075 6.01827 18.5988 5.97461 18.6992L5.93799 18.8032L5.41943 20.5786L7.19629 20.0615C7.33727 20.0203 7.46598 19.9428 7.56982 19.8389L12.5825 14.8306L12.707 14.6797C12.7433 14.6254 12.7742 14.5674 12.7993 14.5068C12.8495 14.3858 12.8754 14.2555 12.8755 14.1245ZM2.875 13.5005V3.99951C2.87513 3.17089 3.20459 2.37646 3.79053 1.79053C4.37646 1.20459 5.17089 0.875129 5.99951 0.875H14.9995C15.2978 0.875 15.584 0.993764 15.7949 1.20459L20.7959 6.2041C21.0068 6.41496 21.1254 6.70132 21.1255 6.99951V20C21.1255 20.8286 20.7957 21.623 20.21 22.209C19.6239 22.795 18.8283 23.1245 17.9995 23.1245H12.5005C11.8792 23.1245 11.3755 22.6208 11.3755 21.9995C11.3758 21.3784 11.8793 20.8745 12.5005 20.8745H17.9995C18.2316 20.8745 18.455 20.7823 18.6191 20.6182C18.7829 20.4541 18.8755 20.2318 18.8755 20V9.125H16C15.1713 9.125 14.377 8.79537 13.791 8.20947C13.2051 7.62354 12.8756 6.82911 12.8755 6.00049V3.125H5.99951C5.76762 3.12513 5.54533 3.21737 5.38135 3.38135C5.21737 3.54533 5.12513 3.76762 5.125 3.99951V13.5005C5.12474 14.1216 4.62116 14.6255 4 14.6255C3.37884 14.6255 2.87526 14.1216 2.875 13.5005ZM15.1255 14.1245C15.1254 14.5508 15.041 14.9728 14.8779 15.3667C14.7553 15.6626 14.5897 15.9389 14.3872 16.1855L14.1733 16.4214L9.16064 21.4312L9.15918 21.4297C8.83457 21.7543 8.44386 22.0035 8.01367 22.1592L7.82617 22.2207L4.95654 23.0586C4.677 23.1401 4.38023 23.144 4.09814 23.0718C3.81609 22.9995 3.55847 22.8528 3.35254 22.647C3.14656 22.441 2.99857 22.1836 2.92627 21.9014C2.85398 21.6192 2.85937 21.3226 2.94092 21.043L3.77734 18.1733V18.1719C3.92453 17.6681 4.19724 17.21 4.56836 16.8389L9.57812 11.8262C9.87984 11.5245 10.2386 11.2849 10.6328 11.1216C11.0269 10.9584 11.4499 10.874 11.8765 10.874C12.3027 10.8741 12.7248 10.9586 13.1187 11.1216C13.5128 11.2848 13.8717 11.5245 14.1733 11.8262C14.4751 12.1279 14.7146 12.4867 14.8779 12.8809C15.0411 13.275 15.1255 13.698 15.1255 14.1245ZM15.1255 6.00049C15.1256 6.23238 15.2179 6.45467 15.3818 6.61865C15.5459 6.78259 15.7681 6.875 16 6.875H18.2852L15.1255 3.71533V6.00049Z" />
</svg>
