<svg width="24" height="24" viewBox="0 0 24 24" fill="none" xmlns="http://www.w3.org/2000/svg">
<path d="M21.1504 11.8477H14.8496V15.6191C14.8497 16.603 15.193 17.3005 15.7354 17.8408C16.2833 18.3868 17.0683 18.8015 18.0078 19.127C18.9397 18.7999 19.7194 18.386 20.2646 17.8418C20.8069 17.3006 21.1503 16.603 21.1504 15.6191V11.8477ZM10 18.1484C10.4694 18.1484 10.8496 18.5286 10.8496 18.998C10.8496 19.4675 10.4694 19.8477 10 19.8477H3C2.53056 19.8477 2.15039 19.4675 2.15039 18.998C2.15039 18.5286 2.53056 18.1484 3 18.1484H10ZM10 11.1484C10.4694 11.1484 10.8496 11.5286 10.8496 11.998C10.8496 12.4675 10.4694 12.8477 10 12.8477H3C2.53056 12.8477 2.15039 12.4675 2.15039 11.998C2.15039 11.5286 2.53056 11.1484 3 11.1484H10ZM21 4.14844C21.4694 4.14844 21.8496 4.5286 21.8496 4.99805C21.8496 5.46749 21.4694 5.84766 21 5.84766H3C2.53056 5.84766 2.15039 5.46749 2.15039 4.99805C2.15039 4.5286 2.53056 4.14844 3 4.14844H21ZM22.8496 15.6191C22.8496 17.0671 22.3184 18.1939 21.4658 19.0449C20.6378 19.8714 19.5419 20.4048 18.4434 20.7773L18.4365 20.7793C18.1531 20.8727 17.8463 20.87 17.5645 20.7725V20.7734C16.4628 20.4033 15.3654 19.871 14.5361 19.0449C13.6823 18.1942 13.1504 17.0671 13.1504 15.6191V10.998C13.1504 10.7726 13.24 10.5569 13.3994 10.3975C13.5588 10.2381 13.7746 10.1484 14 10.1484H22C22.4694 10.1485 22.8496 10.5286 22.8496 10.998V15.6191Z" />
</svg>
