<svg width="24" height="24" viewBox="0 0 24 24" fill="none" xmlns="http://www.w3.org/2000/svg">
<path d="M9.15039 14.8477H2.84961V17.6191C2.84966 18.603 3.19301 19.3005 3.73535 19.8408C4.28333 20.3868 5.06833 20.8015 6.00781 21.127C6.93972 20.7999 7.71938 20.386 8.26465 19.8418C8.8069 19.3006 9.15034 18.603 9.15039 17.6191V14.8477ZM3.15039 9.14844V3.99805C3.15039 3.24218 3.4499 2.5169 3.98438 1.98242C4.51885 1.44795 5.24413 1.14844 6 1.14844H14V1.14941C14.4284 1.14864 14.8532 1.23168 15.249 1.39551C15.6447 1.55932 16.0042 1.7994 16.3066 2.10254L19.8936 5.68945C20.1974 5.99221 20.4385 6.35271 20.6025 6.74902C20.7664 7.14489 20.8504 7.56963 20.8496 7.99805V19.998C20.8496 20.7539 20.5501 21.4792 20.0156 22.0137C19.4811 22.5482 18.7559 22.8477 18 22.8477H13C12.5306 22.8477 12.1504 22.4675 12.1504 21.998C12.1504 21.5286 12.5306 21.1484 13 21.1484H18C18.305 21.1484 18.5978 21.0272 18.8135 20.8115C19.0291 20.5959 19.1504 20.303 19.1504 19.998V8.84766H15C14.5093 8.84766 14.0383 8.65358 13.6914 8.30664C13.3445 7.9597 13.1504 7.4887 13.1504 6.99805V2.84766H6C5.695 2.84766 5.40219 2.96891 5.18652 3.18457C4.97086 3.40024 4.84961 3.69305 4.84961 3.99805V9.14844C4.8494 9.6177 4.46931 9.99805 4 9.99805C3.53069 9.99805 3.1506 9.6177 3.15039 9.14844ZM10.8496 17.6191C10.8496 19.0671 10.3184 20.1939 9.46582 21.0449C8.63777 21.8714 7.54191 22.4048 6.44336 22.7773L6.43652 22.7793C6.15308 22.8727 5.84629 22.87 5.56445 22.7725V22.7734C4.46276 22.4033 3.36536 21.871 2.53613 21.0449C1.6823 20.1942 1.15044 19.0671 1.15039 17.6191V13.998C1.15039 13.7726 1.24001 13.5569 1.39941 13.3975C1.55882 13.2381 1.77457 13.1484 2 13.1484H10C10.4694 13.1485 10.8496 13.5286 10.8496 13.998V17.6191ZM14.8496 6.99805C14.8496 7.03783 14.8654 7.07636 14.8936 7.10449C14.9217 7.13262 14.9602 7.14844 15 7.14844H18.8984C18.8392 7.0573 18.7717 6.97164 18.6943 6.89453L15.1035 3.30371C15.0263 3.22625 14.9409 3.15792 14.8496 3.09863V6.99805Z" />
</svg>
