<svg width="24" height="24" viewBox="0 0 24 24" fill="none" xmlns="http://www.w3.org/2000/svg">
<path d="M19 5.69332L12 3.06832L5 5.69332V13C5.00001 15.2358 5.77047 16.8611 6.98633 18.1064C8.07407 19.2204 9.55298 20.0645 11.2539 20.7236L11.9961 20.9951L12.0186 21.0019C14.0236 20.3022 15.7728 19.3814 17.0137 18.1084C18.229 16.8615 19 15.2358 19 13V5.69332ZM21 13C21 15.7639 20.0208 17.8883 18.4463 19.5039C16.8988 21.0915 14.8205 22.1446 12.6689 22.8945L12.6611 22.8974C12.233 23.0425 11.7688 23.0364 11.3438 22.8837C9.18648 22.1388 7.10496 21.0906 5.55566 19.5039C3.97913 17.8892 3.00001 15.764 3 13V4.99996C3 4.58323 3.25831 4.20988 3.64844 4.06343L11.6484 1.06343L11.7344 1.03609C11.937 0.980244 12.1533 0.989098 12.3516 1.06343L20.3516 4.06343C20.7417 4.20988 21 4.58323 21 4.99996V13Z" />
<path d="M10.7395 13.2604L8.23535 12.3377C8.1663 12.3122 8.10672 12.2661 8.06464 12.2057C8.02256 12.1454 8 12.0735 8 11.9999C8 11.9263 8.02256 11.8545 8.06464 11.7941C8.10672 11.7337 8.1663 11.6877 8.23535 11.6622L10.7395 10.7394L11.6623 8.23527C11.6877 8.16622 11.7338 8.10664 11.7942 8.06456C11.8546 8.02248 11.9264 7.99992 12 7.99992C12.0736 7.99992 12.1454 8.02248 12.2058 8.06456C12.2662 8.10664 12.3123 8.16622 12.3377 8.23527L13.2605 10.7394L15.7647 11.6622C15.8337 11.6877 15.8933 11.7337 15.9354 11.7941C15.9774 11.8545 16 11.9263 16 11.9999C16 12.0735 15.9774 12.1454 15.9354 12.2057C15.8933 12.2661 15.8337 12.3122 15.7647 12.3377L13.2605 13.2604L12.3377 15.7646C12.3123 15.8336 12.2662 15.8932 12.2058 15.9353C12.1454 15.9774 12.0736 15.9999 12 15.9999C11.9264 15.9999 11.8546 15.9774 11.7942 15.9353C11.7338 15.8932 11.6877 15.8336 11.6623 15.7646L10.7395 13.2604Z" />
</svg>
