<svg width="24" height="24" viewBox="0 0 24 24" xmlns="http://www.w3.org/2000/svg">
<path d="M20.8231 22H3.17642C2.5882 22 2 21.4117 2 20.8236C2 20.2353 2.5882 19.6472 3.17642 19.6472H20.8231C21.4112 19.6472 21.9995 20.2353 21.9995 20.8236C21.9995 21.4117 21.4112 22 20.8231 22Z" />
<path d="M6.11711 16.1169C5.52888 16.1169 4.94066 15.5288 4.94066 14.9405V10.5288C4.94066 9.94063 5.52888 9.3524 6.11711 9.3524C6.70534 9.3524 7.29355 9.94063 7.29355 10.5288V14.9405C7.29355 15.5288 6.70534 16.1169 6.11711 16.1169Z" />
<path d="M11.9999 16.1173C11.4117 16.1173 10.8235 15.5291 10.8235 14.9408V3.17644C10.8235 2.58822 11.4117 2 11.9999 2C12.5881 2 13.1763 2.58822 13.1763 3.17644V14.9408C13.1763 15.5291 12.5881 16.1173 11.9999 16.1173Z" />
<path d="M17.8814 16.1173C17.2932 16.1173 16.705 15.5291 16.705 14.9408V7.58816C16.705 6.99994 17.2932 6.41173 17.8814 6.41173C18.4696 6.41173 19.0579 6.99994 19.0579 7.58816V14.9408C19.0579 15.5291 18.4696 16.1173 17.8814 16.1173Z" />
</svg>
