<svg xmlns="http://www.w3.org/2000/svg" width="24" height="24" ><path  d="M17.83 9.478c-.646-3.25-3.594-5.695-6.97-5.463-3.67.254-6.454 3.416-6.327 7.087 0 .065.006.126.016.185a4.807 4.807 0 0 0 2.26 9.053h9.744c1.392 0 2.657-.505 3.543-1.391a5.779 5.779 0 0 0 1.899-3.797c.113-2.727-1.612-5.047-4.164-5.674Zm2.14 5.548c0 1.012-.506 1.772-1.14 2.404-.632.633-1.518.886-2.53.886H6.809c-1.519 0-2.785-1.265-2.785-2.784 0-1.52 1.266-2.785 2.785-2.785.507 0 1.012-.507 1.012-1.012 0-.507-.506-1.012-1.012-1.012-.127 0-.252.004-.377.014.021-1.229.404-2.446 1.264-3.307.886-.886 2.025-1.391 3.29-1.519a4.69 4.69 0 0 1 4.776 3.432 4.807 4.807 0 0 0-1.867.493c-.506.254-.76.887-.506 1.392.253.507.886.76 1.392.507.38-.253.886-.38 1.519-.38h.505c1.899.128 3.29 1.773 3.164 3.671Z"/></svg>