<svg xmlns="http://www.w3.org/2000/svg" width="24" height="24" ><path  d="M7.636 21.8c-.145 0-.29 0-.581-.145-.437-.146-.582-.582-.582-1.018v-3.2H5.455c-1.019 0-2.037-.582-2.473-1.6a19.047 19.047 0 0 1 0-12.073C3.418 2.6 4.436 1.873 5.6 2.018h12.8c1.164-.145 2.182.582 2.618 1.746 1.31 3.927 1.31 8 0 11.927-.436 1.164-1.454 1.746-2.618 1.746h-4.509l-5.527 4.072c-.291.146-.437.291-.728.291Zm0-6.69c.582 0 1.164.581 1.164 1.163v2.036l3.927-2.909c.146-.145.437-.29.728-.29H18.4c.145 0 .291 0 .436-.146 1.019-3.346 1.019-6.982 0-10.473 0-.145-.145-.145-.29-.145H5.6c-.145 0-.29 0-.29.145-1.02 3.346-1.02 6.982 0 10.473 0 0 .145.145.29.145h2.036Z"/></svg>