<svg xmlns="http://www.w3.org/2000/svg" width="24" height="24" ><path  d="M21.58 2.04a.27.27 0 0 1 .24.12.506.506 0 0 1 .12.239c.08.399.08.785 0 1.157-.08.373-.2.732-.36 1.077-.16.346-.333.692-.52 1.038-.185.346-.359.665-.518.957-1.333-.053-2.305.093-2.918.44l-.919.518c.293-.16.773-.253 1.439-.28a9.339 9.339 0 0 1 1.958.12c-.16.293-.333.586-.52.878l-.559.798c-.027.08-.08.173-.16.28l-.16.239c-1.651-.16-2.784-.067-3.396.28l-.92.558c.24-.133.733-.253 1.48-.36.745-.132 1.558-.08 2.437.16-.24.32-.493.652-.76.998l-.719.957c-1.145-.08-2.184.014-3.117.28l-1.358.399c.346-.08.879-.08 1.598 0 .72.08 1.425.186 2.118.319 0 .027-.013.053-.04.08l-.08.08-1.279 1.595c-.426.506-.865.998-1.318 1.477l-.8.878c-.266.266-.546.532-.839.798-.24.186-.48.385-.719.598-.24.186-.506.333-.8.439-.159.08-.332.133-.519.16-.16.053-.346.066-.56.04-.212 0-.439-.027-.678-.08a9.267 9.267 0 0 1-.68-.2c-.16-.053-.32-.12-.48-.2a2.467 2.467 0 0 1-.439-.279c-.08-.053-.146-.066-.2-.04a.465.465 0 0 0-.12.08l-.759.758-.16.16-.16.16a.626.626 0 0 1-.16.12.625.625 0 0 1-.12.159l-.159.16-.24.239a3 3 0 0 1-.32.28c-.08.106-.16.199-.24.279l-.838.837-.16.08a.355.355 0 0 1-.16.04h-.76c-.106 0-.186-.026-.239-.08-.027-.026-.04-.093-.04-.2v-.718c0-.08.013-.172.04-.279a.713.713 0 0 1 .2-.2l1.718-1.715 1.718-1.716c.427-.425.853-.837 1.279-1.236.426-.4.853-.812 1.279-1.237.4-.373.786-.758 1.159-1.158l1.198-1.197 1.439-1.476 1.479-1.476a60.672 60.672 0 0 0 2.637-2.633l.12-.12.16-.08-.04-.04c-.054 0-.094.027-.12.08a.465.465 0 0 1-.12.08c-.4.292-.8.611-1.199.957-.4.32-.8.652-1.199.998-.612.452-1.212.93-1.798 1.436-.586.479-1.172.971-1.758 1.476a82.646 82.646 0 0 0-2.238 1.836c-.72.612-1.465 1.21-2.238 1.795-.106.107-.24.226-.4.36a4.358 4.358 0 0 0-.359.319c-.08.08-.146.106-.2.08-.026-.027-.04-.08-.04-.16a3.147 3.147 0 0 1-.12-.479c-.026-.16-.04-.32-.04-.479a1.118 1.118 0 0 1 .04-.518c.054-.16.134-.32.24-.48.24-.451.52-.864.84-1.236a20.59 20.59 0 0 1 1.078-1.077A29.083 29.083 0 0 1 8.394 9.82c.559-.505 1.145-.984 1.758-1.436.453-.399.919-.771 1.398-1.117.507-.373 1-.718 1.479-1.038.8-.611 1.612-1.183 2.438-1.715a27.363 27.363 0 0 1 2.597-1.477c.346-.186.68-.345.999-.478.346-.16.706-.306 1.079-.44.133-.053.28-.08.44-.08.186-.026.36-.039.519-.039h.28c.053 0 .12.013.2.04Z"/></svg>