<svg xmlns="http://www.w3.org/2000/svg" width="24" height="24" ><path  fill-rule="evenodd" d="M6.769 2.306c.408.408.408 1.07 0 1.478L5.567 4.985h9.418a4.03 4.03 0 0 1 0 8.06h-5.97a1.94 1.94 0 1 0 0 3.88h9.418l-1.202-1.201a1.045 1.045 0 0 1 1.478-1.478l2.985 2.985c.408.408.408 1.07 0 1.478l-2.985 2.985a1.045 1.045 0 0 1-1.478-1.477l1.202-1.202H9.015a4.03 4.03 0 1 1 0-8.06h5.97a1.94 1.94 0 1 0 0-3.88H5.567L6.77 8.276A1.045 1.045 0 1 1 5.29 9.754L2.306 6.769a1.045 1.045 0 0 1 0-1.478l2.985-2.985a1.045 1.045 0 0 1 1.478 0Z" clip-rule="evenodd"/></svg>