<svg width="24" height="24" viewBox="0 0 24 24" version="1.1" xmlns="http://www.w3.org/2000/svg" xmlns:xlink="http://www.w3.org/1999/xlink">
  <path d="M 17.746094 13.714844 L 16.285156 13.714844 C 16.054688 13.714844 15.851562 13.628906 15.683594 13.460938 C 15.511719 13.289062 15.429688 13.089844 15.429688 12.855469 L 15.429688 11.144531 C 15.429688 10.910156 15.511719 10.710938 15.683594 10.539062 C 15.851562 10.371094 16.054688 10.285156 16.285156 10.285156 L 17.746094 10.285156 C 17.460938 9.320312 16.957031 8.480469 16.238281 7.761719 C 15.519531 7.042969 14.679688 6.539062 13.714844 6.253906 L 13.714844 7.714844 C 13.714844 7.945312 13.628906 8.148438 13.460938 8.316406 C 13.289062 8.488281 13.089844 8.570312 12.855469 8.570312 L 11.144531 8.570312 C 10.910156 8.570312 10.710938 8.488281 10.539062 8.316406 C 10.371094 8.148438 10.285156 7.945312 10.285156 7.714844 L 10.285156 6.253906 C 9.320312 6.539062 8.480469 7.042969 7.761719 7.761719 C 7.042969 8.480469 6.539062 9.320312 6.253906 10.285156 L 7.714844 10.285156 C 7.945312 10.285156 8.148438 10.371094 8.316406 10.539062 C 8.488281 10.710938 8.570312 10.910156 8.570312 11.144531 L 8.570312 12.855469 C 8.570312 13.089844 8.488281 13.289062 8.316406 13.460938 C 8.148438 13.628906 7.945312 13.714844 7.714844 13.714844 L 6.253906 13.714844 C 6.539062 14.679688 7.042969 15.519531 7.761719 16.238281 C 8.480469 16.957031 9.320312 17.460938 10.285156 17.746094 L 10.285156 16.285156 C 10.285156 16.054688 10.371094 15.851562 10.539062 15.683594 C 10.710938 15.511719 10.910156 15.429688 11.144531 15.429688 L 12.855469 15.429688 C 13.089844 15.429688 13.289062 15.511719 13.460938 15.683594 C 13.628906 15.851562 13.714844 16.054688 13.714844 16.285156 L 13.714844 17.746094 C 14.679688 17.460938 15.519531 16.957031 16.238281 16.238281 C 16.957031 15.519531 17.460938 14.679688 17.746094 13.714844 Z M 22.285156 11.144531 L 22.285156 12.855469 C 22.285156 13.089844 22.199219 13.289062 22.03125 13.460938 C 21.863281 13.628906 21.660156 13.714844 21.429688 13.714844 L 19.511719 13.714844 C 19.183594 15.152344 18.492188 16.394531 17.445312 17.445312 C 16.394531 18.492188 15.152344 19.183594 13.714844 19.511719 L 13.714844 21.429688 C 13.714844 21.660156 13.628906 21.863281 13.460938 22.03125 C 13.289062 22.199219 13.089844 22.285156 12.855469 22.285156 L 11.144531 22.285156 C 10.910156 22.285156 10.710938 22.199219 10.539062 22.03125 C 10.371094 21.863281 10.285156 21.660156 10.285156 21.429688 L 10.285156 19.511719 C 8.847656 19.183594 7.605469 18.492188 6.554688 17.445312 C 5.507812 16.394531 4.816406 15.152344 4.488281 13.714844 L 2.570312 13.714844 C 2.339844 13.714844 2.136719 13.628906 1.96875 13.460938 C 1.800781 13.289062 1.714844 13.089844 1.714844 12.855469 L 1.714844 11.144531 C 1.714844 10.910156 1.800781 10.710938 1.96875 10.539062 C 2.136719 10.371094 2.339844 10.285156 2.570312 10.285156 L 4.488281 10.285156 C 4.816406 8.847656 5.507812 7.605469 6.554688 6.554688 C 7.605469 5.507812 8.847656 4.816406 10.285156 4.488281 L 10.285156 2.570312 C 10.285156 2.339844 10.371094 2.136719 10.539062 1.96875 C 10.710938 1.800781 10.910156 1.714844 11.144531 1.714844 L 12.855469 1.714844 C 13.089844 1.714844 13.289062 1.800781 13.460938 1.96875 C 13.628906 2.136719 13.714844 2.339844 13.714844 2.570312 L 13.714844 4.488281 C 15.152344 4.816406 16.394531 5.507812 17.445312 6.554688 C 18.492188 7.605469 19.183594 8.847656 19.511719 10.285156 L 21.429688 10.285156 C 21.660156 10.285156 21.863281 10.371094 22.03125 10.539062 C 22.199219 10.710938 22.285156 10.910156 22.285156 11.144531 Z M 22.285156 11.144531 "/>
</svg>
