<svg xmlns="http://www.w3.org/2000/svg" width="24" height="24" ><path  d="M17.59 8.262c-.294 0-.588-.147-.735-.294a7.55 7.55 0 0 0-9.7 0c-.44.441-1.175.294-1.616-.147-.441-.44-.294-1.176.147-1.616 3.674-2.94 8.965-2.94 12.639 0 .441.44.588 1.175.147 1.616-.147.294-.588.441-.882.441ZM5.394 20.902c-.294 0-.588-.147-.882-.44-1.616-1.764-2.645-4.263-2.498-6.615 0-.881.147-1.91.44-2.792.148-.588.883-1.029 1.47-.735.588.147 1.03.882.735 1.47-.147.735-.294 1.323-.294 2.057 0 1.911.735 3.675 1.911 5.144.44.441.44 1.176-.147 1.617-.147.147-.44.294-.735.294ZM18.62 20.901c-.294 0-.588-.147-.735-.294-.441-.44-.588-1.175-.147-1.616 1.323-1.323 1.91-3.234 1.91-5.144 0-.735-.146-1.47-.293-2.058-.148-.588.146-1.323.734-1.47.588-.147 1.323.147 1.47.735.294.882.441 1.764.441 2.793 0 2.498-.882 4.85-2.498 6.613-.294.294-.588.441-.882.441ZM13.916 16.348c-.294 1.175-1.47 1.91-2.645 1.616-1.176-.294-1.91-1.47-1.617-2.645 0-.147.147-.294.147-.441.44-1.176 3.233-5.585 4.262-5.291 1.029.294.294 5.732-.147 6.76Z"/></svg>