<svg xmlns="http://www.w3.org/2000/svg" width="24" height="24" ><path  d="M12.118 10.803C8.06 10.803 4 9.403 4 6.884c0-5.179 16.236-5.179 16.236 0 0 2.52-4.059 3.92-8.118 3.92Zm0-5.599c-3.919 0-5.879 1.26-5.879 1.68 0 .42 1.96 1.68 5.88 1.68 3.918 0 5.878-1.26 5.878-1.68 0-.42-1.96-1.68-5.879-1.68Z"/><path  d="M12.118 16.401C7.5 16.401 4 14.441 4 11.922V6.884c0-.56.56-1.12 1.12-1.12s1.12.56 1.12 1.12v4.898c0 .98 2.379 2.38 5.878 2.38 3.5 0 5.879-1.4 5.879-2.38V6.884c0-.56.56-1.12 1.12-1.12s1.12.56 1.12 1.12v4.898c0 2.66-3.5 4.62-8.119 4.62Z"/><path  d="M12.118 22C7.5 22 4 20.04 4 17.521v-5.039c0-.56.56-1.12 1.12-1.12s1.12.56 1.12 1.12v4.9c0 .979 2.379 2.379 5.878 2.379 3.5 0 5.879-1.4 5.879-2.38v-4.899c0-.56.56-1.12 1.12-1.12s1.12.56 1.12 1.12v4.9c0 2.659-3.5 4.618-8.119 4.618Z"/></svg>