<svg width="24" height="24" viewBox="0 0 24 24" xmlns="http://www.w3.org/2000/svg">
<path fill-rule="evenodd" clip-rule="evenodd" d="M11.5859 2C11.9359 2 12.2693 2.09206 12.5859 2.27539L19.5859 6.2998C19.9026 6.48314 20.1482 6.72539 20.3232 7.02539C20.4982 7.32534 20.5859 7.65881 20.5859 8.02539V10.6885C20.1159 10.5702 19.6239 10.5078 19.1172 10.5078C18.9382 10.5078 18.761 10.5159 18.5859 10.5312V9.09961L12.5859 12.5752V19.4248L13.5889 18.8438C13.8523 19.4662 14.2175 20.0352 14.6641 20.5293L12.5859 21.7246C12.2693 21.9079 11.9359 22 11.5859 22C11.2359 22 10.9026 21.9079 10.5859 21.7246L3.58594 17.7002C3.26927 17.5169 3.02363 17.2746 2.84863 16.9746C2.67371 16.6747 2.58594 16.3412 2.58594 15.9746V8.02539C2.58594 7.65881 2.67371 7.32534 2.84863 7.02539C3.02363 6.72539 3.26927 6.48314 3.58594 6.2998L10.5859 2.27539C10.9026 2.09206 11.2359 2 11.5859 2ZM4.58594 15.9502L10.5859 19.4248V12.5752L4.58594 9.09961V15.9502ZM5.66113 7.4248L11.5859 10.8496L13.5361 9.72461L7.61133 6.2998L5.66113 7.4248ZM9.63574 5.125L15.5859 8.52539L17.5107 7.4248L11.5859 4L9.63574 5.125Z" />
<path fill-rule="evenodd" clip-rule="evenodd" d="M19.5635 11.373C19.796 11.373 19.9981 11.5333 20.0508 11.7598L20.2471 12.6045C20.2856 12.7703 20.4064 12.9038 20.5645 12.9668C20.7262 13.0313 20.886 13.1017 21.0439 13.1777C21.1906 13.2483 21.3258 13.3342 21.4492 13.4346C21.5956 13.5536 21.787 13.6139 21.9688 13.5635L22.7441 13.3486C22.9631 13.2878 23.1961 13.3818 23.3105 13.5781L23.7734 14.374C23.89 14.5743 23.8535 14.8287 23.6855 14.9883L23.1074 15.5371C22.9803 15.658 22.9284 15.8368 22.9512 16.0107C22.9721 16.1706 22.9824 16.3382 22.9824 16.5137C22.9824 16.6931 22.972 16.8665 22.9502 17.0332C22.9276 17.2058 22.9794 17.383 23.1055 17.5029L23.7129 18.0801C23.8807 18.2397 23.9163 18.4942 23.7998 18.6943L23.3398 19.4854C23.2244 19.6838 22.9881 19.778 22.7676 19.7139L21.9414 19.4736C21.7746 19.4251 21.5963 19.4693 21.457 19.5732C21.3224 19.6739 21.1797 19.7622 21.0303 19.8369C20.8786 19.9127 20.7228 19.9825 20.5635 20.0469C20.4058 20.1106 20.2856 20.2445 20.2471 20.4102L20.0508 21.2549C19.9982 21.4814 19.796 21.6416 19.5635 21.6416H18.6465C18.4141 21.6415 18.2128 21.4813 18.1602 21.2549L17.9639 20.4102C17.9254 20.2444 17.804 20.1114 17.6465 20.0469C17.4897 19.9827 17.3387 19.9125 17.1934 19.8369C17.0517 19.7632 16.9151 19.677 16.7842 19.5781C16.643 19.4715 16.461 19.4273 16.292 19.4795L15.4736 19.7324C15.2515 19.801 15.0117 19.7076 14.8945 19.5068L14.4346 18.7168C14.3193 18.5187 14.3536 18.2675 14.5176 18.1074L15.1357 17.5039C15.2594 17.383 15.3088 17.2067 15.2861 17.0352C15.2648 16.8739 15.2549 16.7045 15.2549 16.5273C15.2549 16.3478 15.2652 16.1746 15.2871 16.0078C15.3097 15.8354 15.2578 15.659 15.1318 15.5391L14.5244 14.9609C14.3569 14.8014 14.3203 14.5477 14.4365 14.3477L14.8965 13.5576C15.0125 13.3584 15.2497 13.2646 15.4707 13.3301L16.2529 13.5615C16.4287 13.6136 16.6167 13.562 16.7588 13.4463C16.8918 13.338 17.0322 13.2445 17.1797 13.165C17.3237 13.0875 17.4712 13.0198 17.6221 12.9629C17.7921 12.8988 17.9276 12.7609 17.9688 12.584L18.1602 11.7598C18.2128 11.5334 18.4141 11.3732 18.6465 11.373H19.5635ZM19.0996 14.582C18.5685 14.582 18.1156 14.7713 17.7412 15.1494C17.367 15.5274 17.1798 15.9818 17.1797 16.5127C17.1797 17.0438 17.369 17.4967 17.7471 17.8711C18.1252 18.2455 18.5802 18.4326 19.1113 18.4326C19.6422 18.4325 20.0945 18.2432 20.4688 17.8652C20.8431 17.4872 21.0302 17.033 21.0303 16.502C21.0303 15.971 20.8419 15.5179 20.4639 15.1436C20.0857 14.7692 19.6307 14.582 19.0996 14.582Z" />
</svg>
