<svg xmlns="http://www.w3.org/2000/svg" width="24" height="24" ><path  d="M13.189 12c0-.608.507-1.116 1.115-1.116l5.932.001c.608 0 1.116.507 1.116 1.115s-.508 1.115-1.116 1.115h-5.932c-.656 0-1.115-.589-1.115-1.115Z"/><path  d="M16.244 16.128c-.405-.405-.405-1.216 0-1.622l2.512-2.518-2.508-2.464c-.405-.406-.405-1.217 0-1.623.406-.405 1.21-.405 1.616 0l3.325 3.276c.405.405.405 1.216 0 1.622l-3.33 3.33c-.405.405-1.21.405-1.615 0ZM6.894 6.701h2v-2.19c0-1.673-.906-2.25-2.25-2.25L2 2.25l.02 2.005 4.624.006a.27.27 0 0 1 .25.25v2.19ZM6.894 17.302h2v2.19c0 1.673-.906 2.25-2.25 2.25L2 21.752l.02-2.004 4.624-.007a.27.27 0 0 0 .25-.25v-2.19ZM9.806 16.182H5.96c-1.253 0-2.256-.97-2.256-2.18v-3.997c0-1.212 1.003-2.181 2.256-2.181h3.845c1.254 0 2.257.969 2.257 2.18V14c.001 1.213-1.002 2.182-2.256 2.182ZM5.96 9.762c-.125 0-.25.121-.25.242V14c0 .122.126.242.25.242h3.845c.126 0 .25-.121.25-.242v-3.995c0-.122-.125-.242-.25-.242L5.96 9.762Z"/></svg>