<svg width="24" height="24" viewBox="0 0 24 24" fill="none" xmlns="http://www.w3.org/2000/svg">
  <path d="M3 20V4C3 3.20435 3.3163 2.44152 3.87891 1.87891C4.44152 1.3163 5.20435 1 6 1H15L15.0986 1.00488C15.3276 1.02757 15.5429 1.12883 15.707 1.29297L20.707 6.29297C20.8946 6.48051 21 6.73478 21 7V10.5C21 11.0523 20.5523 11.5 20 11.5C19.4477 11.5 19 11.0523 19 10.5V9H16C15.2044 9 14.4415 8.6837 13.8789 8.12109C13.3163 7.55848 13 6.79565 13 6V3H6C5.73478 3 5.4805 3.10543 5.29297 3.29297C5.10543 3.4805 5 3.73478 5 4V20C5 20.2652 5.10543 20.5195 5.29297 20.707C5.48051 20.8946 5.73478 21 6 21H13C13.5523 21 14 21.4477 14 22C14 22.5523 13.5523 23 13 23H6C5.20435 23 4.44151 22.6837 3.87891 22.1211C3.3163 21.5585 3 20.7957 3 20ZM16.5 22V18.5H13C12.4477 18.5 12 18.0523 12 17.5C12 16.9477 12.4477 16.5 13 16.5H16.5V13C16.5 12.4477 16.9477 12 17.5 12C18.0523 12 18.5 12.4477 18.5 13V16.5H22C22.5523 16.5 23 16.9477 23 17.5C23 18.0523 22.5523 18.5 22 18.5H18.5V22C18.5 22.5523 18.0523 23 17.5 23C16.9477 23 16.5 22.5523 16.5 22ZM15 6C15 6.26522 15.1054 6.51949 15.293 6.70703C15.4805 6.89457 15.7348 7 16 7H18.5859L15 3.41406V6Z"/>
</svg>
