<svg width="24" height="24" viewBox="0 0 24 24" fill="none" xmlns="http://www.w3.org/2000/svg">
  <path d="M3 20V4C3 3.20435 3.3163 2.44152 3.87891 1.87891C4.44152 1.3163 5.20435 1 6 1H15L15.0986 1.00488C15.3276 1.02757 15.5429 1.12883 15.707 1.29297L20.707 6.29297C20.8946 6.48051 21 6.73478 21 7V10C21 10.5523 20.5523 11 20 11C19.4477 11 19 10.5523 19 10V9H16C15.2044 9 14.4415 8.6837 13.8789 8.12109C13.3163 7.55848 13 6.79565 13 6V3H6C5.73478 3 5.4805 3.10543 5.29297 3.29297C5.10543 3.4805 5 3.73478 5 4V20C5 20.2652 5.10543 20.5195 5.29297 20.707C5.48051 20.8946 5.73478 21 6 21H10.5C11.0523 21 11.5 21.4477 11.5 22C11.5 22.5523 11.0523 23 10.5 23H6C5.20435 23 4.44151 22.6837 3.87891 22.1211C3.3163 21.5585 3 20.7957 3 20ZM20 22V21.0791C19.4964 21.4701 18.9245 21.7669 18.3105 21.9502C17.5223 22.1855 16.6894 22.2297 15.8809 22.0781C15.0723 21.9265 14.3116 21.584 13.6621 21.0791C13.0126 20.5742 12.4928 19.9211 12.1465 19.1748C11.9141 18.6739 12.1319 18.0792 12.6328 17.8467C13.1337 17.6144 13.7285 17.8322 13.9609 18.333C14.1732 18.7904 14.4916 19.1905 14.8896 19.5C15.2876 19.8093 15.7536 20.0193 16.249 20.1123C16.7446 20.2052 17.2561 20.1784 17.7393 20.0342C18.0224 19.9496 18.2908 19.8251 18.5381 19.667H17.667C17.1149 19.667 16.6673 19.2191 16.667 18.667C16.667 18.1147 17.1147 17.667 17.667 17.667H21C21.5519 17.6672 21.9997 18.1141 22 18.666V22C22 22.552 21.553 22.9997 21.001 23C20.4487 23.0001 20.0001 22.5523 20 22ZM15.3555 12.0488C16.1437 11.8136 16.9767 11.7703 17.7852 11.9219C18.5937 12.0735 19.3544 12.416 20.0039 12.9209C20.6534 13.4258 21.1732 14.0789 21.5195 14.8252C21.7518 15.3261 21.5341 15.9209 21.0332 16.1533C20.5323 16.3855 19.9375 16.1678 19.7051 15.667C19.4928 15.2096 19.1745 14.8095 18.7764 14.5C18.3784 14.1906 17.9124 13.9807 17.417 13.8877C16.9214 13.7948 16.4099 13.8216 15.9268 13.9658C15.6436 14.0504 15.3753 14.1749 15.1279 14.333H16C16.5521 14.333 16.9998 14.7809 17 15.333C17 15.8853 16.5523 16.333 16 16.333H12.667C12.1147 16.333 11.667 15.8853 11.667 15.333V12C11.667 11.4477 12.1147 11 12.667 11C13.2191 11.0002 13.667 11.4479 13.667 12V12.9189C14.1703 12.5285 14.7421 12.2319 15.3555 12.0488ZM15 6C15 6.26522 15.1054 6.51949 15.293 6.70703C15.4805 6.89457 15.7348 7 16 7H18.5859L15 3.41406V6Z"/>
</svg>
