<svg xmlns="http://www.w3.org/2000/svg" width="24" height="24" ><path  fill-rule="evenodd" d="M12 2c1.945 0 3.544 1.539 3.732 3.509 2.75 1.426 4.638 4.379 4.638 7.79 0 .224-.008.446-.024.666A3.937 3.937 0 0 1 22 17.197c0 2.153-1.679 3.898-3.75 3.898a3.622 3.622 0 0 1-1.757-.453A8.103 8.103 0 0 1 12 22a8.103 8.103 0 0 1-4.493-1.358 3.621 3.621 0 0 1-1.757.453C3.679 21.095 2 19.35 2 17.197c0-1.345.656-2.531 1.653-3.232a9.177 9.177 0 0 1-.024-.666c0-3.412 1.889-6.365 4.64-7.79C8.455 3.538 10.054 2 12 2Zm1.464 3.898c0 .84-.655 1.522-1.464 1.522-.809 0-1.464-.682-1.464-1.522S11.19 4.376 12 4.376c.809 0 1.464.681 1.464 1.522Zm1.741 2.024C14.547 9.045 13.358 9.796 12 9.796s-2.547-.75-3.205-1.874c-1.73 1.115-2.88 3.107-2.88 5.377v.004c1.994.09 3.585 1.799 3.585 3.894a4.01 4.01 0 0 1-.367 1.683c.854.475 1.83.744 2.867.744 1.036 0 2.012-.27 2.866-.744a4.011 4.011 0 0 1-.366-1.683c0-2.095 1.59-3.804 3.585-3.894v-.004c0-2.27-1.151-4.261-2.88-5.377Zm-7.99 9.275c0 .84-.656 1.522-1.465 1.522s-1.464-.681-1.464-1.522c0-.84.655-1.522 1.464-1.522.809 0 1.464.681 1.464 1.522ZM8.25 5.873v.025-.025Zm10 12.846c.809 0 1.464-.681 1.464-1.522 0-.84-.655-1.522-1.464-1.522-.809 0-1.464.681-1.464 1.522 0 .84.655 1.522 1.464 1.522Z" clip-rule="evenodd"/></svg>