<svg xmlns="http://www.w3.org/2000/svg" width="24" height="24" ><path  fill-rule="evenodd" d="M12 19.714a7.715 7.715 0 1 0-.001-15.43A7.715 7.715 0 0 0 12 19.714ZM12 22c5.522 0 10-4.478 10-10S17.522 2 12 2 2 6.478 2 12s4.478 10 10 10Z" clip-rule="evenodd"/><path  d="M12.006 18.039c-.624 0-1.144-.52-1.144-1.144V7.032c0-.624.52-1.144 1.143-1.144.624 0 1.144.52 1.144 1.144v9.863c.001.604-.561 1.144-1.143 1.144Z"/><path  d="m16.986 13.598-4.16 4.16c-.416.416-1.248.416-1.663 0l-4.16-4.16c-.416-.416-.416-1.248 0-1.664.416-.415 1.248-.415 1.664 0l3.328 3.328 3.327-3.328c.416-.415 1.248-.415 1.664 0 .416.416.416 1.248 0 1.664Z"/></svg>