<svg xmlns="http://www.w3.org/2000/svg" xmlns:xlink="http://www.w3.org/1999/xlink" width="24" height="24" viewBox="0 0 24 22" version="1.1">
<path style=" stroke:none;fill-rule:nonzero;fill:rgb(5.098039%,7.450981%,13.333334%);fill-opacity:1;" d="M 8.382812 11 C 8.382812 9.992188 7.566406 9.167969 6.574219 9.167969 C 5.578125 9.167969 4.765625 9.992188 4.765625 11 C 4.765625 12.007812 5.578125 12.832031 6.574219 12.832031 C 7.566406 12.832031 8.382812 12.007812 8.382812 11 Z M 10.191406 11 C 10.191406 12.007812 11.003906 12.832031 12 12.832031 C 12.992188 12.832031 13.804688 12.007812 13.804688 11 C 13.804688 9.992188 12.992188 9.167969 12 9.167969 C 11.003906 9.167969 10.191406 9.992188 10.191406 11 Z M 15.613281 11 C 15.613281 12.007812 16.429688 12.832031 17.421875 12.832031 C 18.417969 12.832031 19.230469 12.007812 19.230469 11 C 19.230469 9.992188 18.417969 9.167969 17.421875 9.167969 C 16.429688 9.167969 15.613281 9.992188 15.613281 11 Z M 15.613281 11 "/>
</svg>