<svg width="24" height="24" viewBox="0 0 24 24" xmlns="http://www.w3.org/2000/svg">
<path d="M9.52667 3.80669L6.46667 6.86669C6.20667 7.12669 6.20667 7.54669 6.46667 7.80669C6.72667 8.06669 7.14667 8.06669 7.40667 7.80669L10 5.22003L12.5867 7.80669C12.8467 8.06669 13.2667 8.06669 13.5267 7.80669C13.7867 7.54669 13.7867 7.12669 13.5267 6.86669L10.4667 3.80669C10.2133 3.54669 9.78667 3.54669 9.52667 3.80669Z"/>
<path d="M12.5867 12.1934L10 14.78L7.41333 12.1934C7.15333 11.9334 6.73333 11.9334 6.47333 12.1934C6.21333 12.4534 6.21333 12.8734 6.47333 13.1334L9.53333 16.1934C9.79333 16.4534 10.2133 16.4534 10.4733 16.1934L13.5333 13.1334C13.7933 12.8734 13.7933 12.4534 13.5333 12.1934C13.2733 11.94 12.8467 11.9334 12.5867 12.1934Z"/>
<path fill-rule="evenodd" clip-rule="evenodd" d="M10 17.7143C14.26 17.7143 17.7143 14.26 17.7143 10C17.7143 5.73995 14.26 2.28571 10 2.28571C5.73996 2.28571 2.28571 5.73995 2.28571 10C2.28571 14.26 5.73996 17.7143 10 17.7143ZM10 20C15.5223 20 20 15.5223 20 10C20 4.47768 15.5223 0 10 0C4.47768 0 0 4.47768 0 10C0 15.5223 4.47768 20 10 20Z"/>
</svg>
