<svg xmlns="http://www.w3.org/2000/svg" width="24" height="24" ><path  d="M16.412 22H4.647A2.636 2.636 0 0 1 2 19.353V7.588a2.636 2.636 0 0 1 2.647-2.647H9.06c.588 0 1.177.588 1.177 1.176s-.589 1.176-1.177 1.176H4.647a.317.317 0 0 0-.294.295v11.765c0 .147.147.294.294.294h11.765a.317.317 0 0 0 .295-.294V14.94c0-.588.588-1.177 1.176-1.177s1.176.589 1.176 1.177v4.412A2.636 2.636 0 0 1 16.412 22Z"/><path  d="M10.532 14.648c-.295 0-.589-.148-.883-.294a1.154 1.154 0 0 1 0-1.617L19.944 2.442c.44-.44 1.176-.44 1.617 0 .44.441.44 1.177 0 1.617L11.266 14.354c-.146.146-.44.294-.734.294Z"/><path  d="M20.823 11.706c-.588 0-1.176-.589-1.176-1.177V4.353H13.47c-.589 0-1.177-.588-1.177-1.177 0-.588.588-1.176 1.177-1.176h7.352C21.411 2 22 2.588 22 3.176v7.353c0 .588-.589 1.177-1.177 1.177Z"/></svg>