<svg xmlns="http://www.w3.org/2000/svg" width="24" height="24" ><path  fill-rule="evenodd" d="M7.882 17.59c0-.65.527-1.177 1.176-1.177h5a1.177 1.177 0 0 1 0 2.352h-5c-.65 0-1.176-.527-1.176-1.176ZM7.882 14.06c0-.65.527-1.177 1.176-1.177h5a1.176 1.176 0 0 1 0 2.353h-5c-.65 0-1.176-.527-1.176-1.176Z" clip-rule="evenodd"/><path  d="m19.794 7-4.265-4.265C14.941 2.295 14.353 2 13.617 2h-7.5A2.636 2.636 0 0 0 3.47 4.647v14.706A2.636 2.636 0 0 0 6.117 22h11.765a2.636 2.636 0 0 0 2.647-2.647V8.912c0-.736-.294-1.471-.735-1.912Zm-6.03-2.5 4.265 4.265c.148 0 .148.147.148.147v.44h-5.002v-5h.442s.146 0 .148.148Zm4.118 15.147H6.117a.317.317 0 0 1-.294-.294V4.647c0-.147.147-.294.294-.294h4.706v6.176c0 .588.588 1.176 1.176 1.176h6.178v7.648a.317.317 0 0 1-.295.294Z"/></svg>