<svg xmlns="http://www.w3.org/2000/svg" width="24" height="24" ><path  d="M13.376 22c-.147 0-.44 0-.587-.15l-2.936-.746c-1.174-.298-2.055-1.492-2.055-2.686v-5.971L2.22 3.792c-.293-.298-.293-.895 0-1.194C2.367 2.149 2.807 2 3.248 2h17.614c.44 0 .881.299 1.028.597.147.448.147.896 0 1.194l-5.578 8.657v6.716c0 .15 0 .448-.147.746-.587 1.344-1.615 2.09-2.789 2.09ZM5.303 4.537l4.403 6.717c.294.447.44.895.44 1.492v5.821c0 .15.148.299.294.299l2.936.746c.147 0 .294 0 .294-.15v-6.716c0-.597.146-1.045.44-1.492l4.404-6.717H5.303Z"/></svg>