<svg xmlns="http://www.w3.org/2000/svg" width="24" height="24" ><path  fill-rule="evenodd" d="M12 19.714a7.714 7.714 0 1 0 0-15.428 7.714 7.714 0 0 0 0 15.428ZM12 22c5.523 0 10-4.477 10-10S17.523 2 12 2 2 6.477 2 12s4.477 10 10 10Z" clip-rule="evenodd"/><path  fill-rule="evenodd" d="M17.4 8.015c.417.405.42 1.062.006 1.47l-6.59 6.493c-.399.394-1.045.412-1.466.04l-2.713-2.392a1.022 1.022 0 0 1-.077-1.468 1.08 1.08 0 0 1 1.501-.075l1.96 1.728 5.875-5.79a1.08 1.08 0 0 1 1.504-.006Z" clip-rule="evenodd"/></svg>