<svg width="24" height="24" viewBox="0 0 24 24" fill="none" xmlns="http://www.w3.org/2000/svg">
  <path fill-rule="evenodd" clip-rule="evenodd"
        d="M2 3.42993C0.89543 3.42993 0 4.32536 0 5.42993V18.5728C0 19.6774 0.895431 20.5728 2 20.5728H22C23.1046 20.5728 24 19.6774 24 18.5728V5.42993C24 4.32536 23.1046 3.42993 22 3.42993H2Z"
        fill="white" />
  <mask style="mask-type:luminance" maskUnits="userSpaceOnUse" x="0" y="3" width="24" height="18">
    <path fill-rule="evenodd" clip-rule="evenodd"
          d="M2 3.42993C0.89543 3.42993 0 4.32536 0 5.42993V18.5728C0 19.6774 0.895431 20.5728 2 20.5728H22C23.1046 20.5728 24 19.6774 24 18.5728V5.42993C24 4.32536 23.1046 3.42993 22 3.42993H2Z"
          fill="white" />
  </mask>
  <g mask="url(#mask0_6733_62183)">
    <rect y="3.42993" width="10.2857" height="8" fill="#444379" />
    <path fill-rule="evenodd" clip-rule="evenodd"
          d="M1.14282 4.57275V5.71561H2.28568V4.57275H1.14282ZM3.42857 4.57279V5.71565H4.57143V4.57279H3.42857ZM5.71429 4.57279V5.71565H6.85714V4.57279H5.71429ZM8 4.57279V5.71565H9.14286V4.57279H8ZM6.85714 5.71565V6.8585H8V5.71565H6.85714ZM4.57143 5.71565V6.8585H5.71429V5.71565H4.57143ZM2.28571 5.71565V6.8585H3.42857V5.71565H2.28571ZM1.14286 6.8585V8.00136H2.28571V6.8585H1.14286ZM3.42857 6.8585V8.00136H4.57143V6.8585H3.42857ZM5.71429 6.8585V8.00136H6.85714V6.8585H5.71429ZM8 6.8585V8.00136H9.14286V6.8585H8ZM1.14286 9.14422V10.2871H2.28571V9.14422H1.14286ZM3.42857 9.14422V10.2871H4.57143V9.14422H3.42857ZM5.71429 9.14422V10.2871H6.85714V9.14422H5.71429ZM8 9.14422V10.2871H9.14286V9.14422H8ZM6.85714 8.00136V9.14422H8V8.00136H6.85714ZM4.57143 8.00136V9.14422H5.71429V8.00136H4.57143ZM2.28571 8.00136V9.14422H3.42857V8.00136H2.28571Z"
          fill="#A7B6E6" />
    <path fill-rule="evenodd" clip-rule="evenodd"
          d="M10.2857 3.42993V4.57279H24V3.42993H10.2857ZM10.2857 5.71565V6.8585H24V5.71565H10.2857ZM10.2857 8.00136V9.14422H24V8.00136H10.2857ZM10.2857 10.2871V11.4299H24V10.2871H10.2857ZM0 12.5728V13.7156H24V12.5728H0ZM0 14.8585V16.0014H24V14.8585H0ZM0 17.1442V18.2871H24V17.1442H0ZM0 19.4299V20.5728H24V19.4299H0Z"
          fill="#ED4C49" />
  </g>
  <path fill-rule="evenodd" clip-rule="evenodd"
        d="M2.07153 4.00146C1.24311 4.00146 0.571533 4.67304 0.571533 5.50146V18.5015C0.571533 19.3299 1.24311 20.0015 2.07153 20.0015H21.9287C22.7571 20.0015 23.4287 19.3299 23.4287 18.5015V5.50146C23.4287 4.67304 22.7571 4.00146 21.9287 4.00146H2.07153Z"
        fill="white" fill-opacity="0.01" stroke="black" stroke-opacity="0.1" />
  <mask style="mask-type:luminance" maskUnits="userSpaceOnUse" x="0" y="3" width="24" height="18">
    <path fill-rule="evenodd" clip-rule="evenodd"
          d="M2.07153 4.00146C1.24311 4.00146 0.571533 4.67304 0.571533 5.50146V18.5015C0.571533 19.3299 1.24311 20.0015 2.07153 20.0015H21.9287C22.7571 20.0015 23.4287 19.3299 23.4287 18.5015V5.50146C23.4287 4.67304 22.7571 4.00146 21.9287 4.00146H2.07153Z"
          fill="white" stroke="white" />
  </mask>
</svg>
