<svg  viewBox="0 0 24 24" fill="currentColor" xmlns="http://www.w3.org/2000/svg">
<path d="M20 15C20 14.4477 19.5523 14 19 14H15C14.4477 14 14 14.4477 14 15V19C14 19.5523 14.4477 20 15 20H19C19.5523 20 20 19.5523 20 19V15ZM10 5C10 4.44772 9.55228 4 9 4H5C4.44772 4 4 4.44772 4 5V9C4 9.55228 4.44772 10 5 10H9C9.55228 10 10 9.55228 10 9V5ZM12 9C12 10.6569 10.6569 12 9 12H8V15L8.00488 15.0986C8.02757 15.3276 8.12883 15.5429 8.29297 15.707C8.48051 15.8946 8.73478 16 9 16H12V15C12 13.3431 13.3431 12 15 12H19C20.6569 12 22 13.3431 22 15V19C22 20.6569 20.6569 22 19 22H15C13.3431 22 12 20.6569 12 19V18H9C8.20435 18 7.44152 17.6837 6.87891 17.1211C6.3163 16.5585 6 15.7956 6 15V12H5C3.34315 12 2 10.6569 2 9V5C2 3.34315 3.34315 2 5 2H9C10.6569 2 12 3.34315 12 5V9Z"/>
<path d="M18.5 1H17.5C17.5 2.933 15.933 4.5 14 4.5V5.5C15.933 5.5 17.5 7.067 17.5 9H18.5C18.5 7.067 20.067 5.5 22 5.5V4.5C20.067 4.5 18.5 2.933 18.5 1Z"/>
</svg>
