<svg xmlns="http://www.w3.org/2000/svg" width="24" height="24" ><path  d="M19.415 20.143H4.449A2.439 2.439 0 0 1 2 17.693V5.45A2.439 2.439 0 0 1 4.449 3h4.762c.816 0 1.633.408 2.04 1.088l1.905 2.858c0 .136.136.136.273.136h6.122A2.439 2.439 0 0 1 22 9.53v8.163c-.136 1.36-1.224 2.449-2.585 2.449ZM9.211 5.177H4.449a.293.293 0 0 0-.272.272v12.245c0 .136.136.272.272.272h14.966a.293.293 0 0 0 .272-.272V9.53a.293.293 0 0 0-.272-.273h-6.122c-.817 0-1.633-.408-2.041-1.088L9.347 5.313c0-.136-.136-.136-.136-.136Z"/></svg>