<svg xmlns="http://www.w3.org/2000/svg" width="24" height="24" ><path  d="M12 20.06c-3.859 0-7.074-3.469-9.518-6.552-.643-.771-.643-2.056 0-2.955C4.797 7.469 8.142 4 12 4c3.858 0 7.074 3.469 9.518 6.553.643.77.643 2.055 0 2.955-2.316 3.083-5.66 6.552-9.518 6.552Zm0-13.876c-3.087 0-5.916 3.34-7.846 5.782-.128.128-.128.257 0 .385 2.187 2.698 4.888 5.782 7.975 5.782 3.086 0 5.916-3.34 7.845-5.782.129-.128.129-.257 0-.385C17.788 9.268 14.958 6.184 12 6.184Z"/><path  d="M12.001 14.922a2.828 2.828 0 0 0 2.83-2.827A2.828 2.828 0 0 0 12 9.27a2.828 2.828 0 0 0-2.83 2.826 2.828 2.828 0 0 0 2.83 2.827Z"/></svg>