<svg xmlns="http://www.w3.org/2000/svg" width="24" height="24" ><rect width="2.286" height="7.143" x="2" y="2"  rx="1.143"/><rect width="2.286" height="8.571" x="2" y="3.616"  rx="1.143" transform="rotate(-45 2 3.616)"/><rect width="7.143" height="2.286"  rx="1.143" transform="matrix(1 0 0 -1 2 4.286)"/><rect width="2.286" height="7.143" x="22" y="2"  rx="1.143" transform="rotate(90 22 2)"/><rect width="7.143" height="2.286"  rx="1.143" transform="matrix(0 1 1 0 19.714 2)"/><rect width="8.571" height="2.286"  rx="1.143" transform="scale(-1 1) rotate(45 -12.607 -23.608)"/><rect width="2.286" height="7.143" x="22" y="22"  rx="1.143" transform="rotate(-180 22 22)"/><rect width="2.286" height="8.571" x="21.524" y="19.908"  rx="1.143" transform="rotate(135 21.524 19.908)"/><rect width="7.143" height="2.286"  rx="1.143" transform="matrix(-1 0 0 1 22 19.714)"/><rect width="2.286" height="7.143"  rx="1.143" transform="matrix(1 0 0 -1 2 22)"/><rect width="2.286" height="8.571"  rx="1.143" transform="scale(1 -1) rotate(-45 -22.793 -12.943)"/><rect width="7.143" height="2.286" x="2" y="19.714"  rx="1.143"/></svg>