<svg width="24" height="24" viewBox="0 0 24 24" xmlns="http://www.w3.org/2000/svg">
<path fill-rule="evenodd" clip-rule="evenodd" d="M2.46432 8.17834V4.51467C2.46432 3.30759 3.44285 2.32906 4.64993 2.32906H8.6472C9.26219 2.32906 9.84872 2.58816 10.2629 3.04278L11.4459 4.34133C11.6529 4.56864 11.9462 4.69819 12.2537 4.69819H19.349C20.556 4.69819 21.5346 5.67672 21.5346 6.8838V8.18107C21.5346 8.18107 23.2153 8.81336 22.8738 10.6192L21.1205 19.8914C20.9253 20.9236 20.0234 21.6709 18.973 21.6709H4.98575C3.93245 21.6709 3.02897 20.9197 2.83682 19.884L1.11643 10.6118C0.918962 9.54754 1.52479 8.54813 2.46432 8.17834ZM19.349 6.8838V8.0275H4.64993L4.64993 4.51467L8.6472 4.51467L9.83017 5.81321C10.4514 6.49515 11.3312 6.8838 12.2537 6.8838H19.349ZM3.26536 10.2131L20.7262 10.2131L18.973 19.4853H4.98575L3.26536 10.2131Z"/>
</svg>
