<svg xmlns="http://www.w3.org/2000/svg" width="24" height="24" ><path  d="M6.853 19.393H4.299A2.29 2.29 0 0 1 2 17.093V6.878a2.29 2.29 0 0 1 2.3-2.299h2.554a2.29 2.29 0 0 1 2.299 2.3v10.216a2.292 2.292 0 0 1-2.3 2.299ZM4.299 6.622a.275.275 0 0 0-.256.255v10.217c0 .128.128.255.256.255h2.555a.275.275 0 0 0 .255-.255V6.877a.275.275 0 0 0-.255-.255H4.299Z"/><path  d="M11.961 19.393H9.407a2.29 2.29 0 0 1-2.299-2.3V6.878a2.29 2.29 0 0 1 2.3-2.299h2.554a2.29 2.29 0 0 1 2.3 2.3v10.216a2.291 2.291 0 0 1-2.301 2.299ZM9.407 6.622a.275.275 0 0 0-.255.255v10.217c0 .128.127.255.255.255h2.555a.275.275 0 0 0 .256-.255V6.877a.275.275 0 0 0-.256-.255H9.407Z"/><path  d="M17.199 19.52c-.383 0-.767-.127-1.15-.255-.511-.256-.894-.767-1.021-1.405l-2.682-9.834c-.127-.638-.127-1.15.256-1.788.382-.638.765-.894 1.405-1.02l2.426-.64c1.277-.382 2.426.384 2.81 1.662l2.681 9.833c.127.639.127 1.15-.256 1.788-.382.638-.766.894-1.405 1.021l-2.426.639h-.638Zm-2.81-12.388c-.128 0-.256.256-.129.256l2.682 9.834c0 .127.256.255.256.127l2.426-.639c.127 0 .127-.128.127-.128v-.256l-2.68-9.832c0-.127-.128-.256-.256-.127l-2.427.765Z"/></svg>