<svg xmlns="http://www.w3.org/2000/svg" width="24" height="24" ><path  fill-rule="evenodd" d="M3 11.572c0-.631.512-1.143 1.143-1.143H19a1.143 1.143 0 0 1 0 2.285H4.143A1.143 1.143 0 0 1 3 11.572ZM3 20.857c0-.631.512-1.143 1.143-1.143H19A1.143 1.143 0 0 1 19 22H4.143A1.143 1.143 0 0 1 3 20.857Z" clip-rule="evenodd"/><path  fill-rule="evenodd" d="M4.429 20.572V12h2.285v8.572H4.43ZM16.428 20.572V12h2.286v8.572h-2.286ZM10.428 20.572V12h2.286v8.572h-2.286ZM12.16 2.163a1.143 1.143 0 0 0-1.177 0L3.841 6.448a1.143 1.143 0 0 0 .588 2.123h14.285a1.143 1.143 0 0 0 .588-2.123l-7.143-4.285Z" clip-rule="evenodd"/></svg>