<svg xmlns="http://www.w3.org/2000/svg" width="24" height="24" ><path  d="M3.096 17.902c-.548 0-1.096-.548-1.096-1.096 0-1.78.685-3.425 1.918-4.658a6.523 6.523 0 0 1 4.657-1.918c2.466 0 4.795 1.37 5.89 3.7.275.547 0 1.232-.547 1.506-.548.274-1.233 0-1.507-.548-.685-1.507-2.192-2.466-3.973-2.466-1.095 0-2.328.411-3.15 1.233-.822.822-1.233 1.918-1.37 3.151.274.548-.274 1.096-.822 1.096Z"/><path  d="M8.576 12.421c-2.466 0-4.521-2.055-4.521-4.52 0-2.466 2.055-4.521 4.52-4.521 2.466 0 4.521 2.055 4.521 4.52 0 2.466-2.055 4.521-4.52 4.521Zm0-6.85c-1.233 0-2.33 1.097-2.33 2.33s1.097 2.328 2.33 2.328c1.232 0 2.328-1.095 2.328-2.328 0-1.233-1.096-2.33-2.328-2.33ZM20.904 20.64c-.548 0-1.096-.548-1.096-1.096 0-2.466-1.918-4.384-4.383-4.384-2.466 0-4.384 1.918-4.384 4.384 0 .548-.548 1.095-1.096 1.095s-1.096-.547-1.096-1.095c0-3.562 3.014-6.576 6.576-6.576 3.561 0 6.575 3.014 6.575 6.576 0 .548-.548 1.095-1.096 1.095Z"/><path  d="M15.425 15.16c-2.466 0-4.52-2.055-4.52-4.52 0-2.466 2.054-4.52 4.52-4.52 2.466 0 4.52 2.054 4.52 4.52 0 2.465-2.054 4.52-4.52 4.52Zm0-6.85c-1.233 0-2.33 1.097-2.33 2.33s1.097 2.329 2.33 2.329 2.329-1.096 2.329-2.33c0-1.232-1.096-2.328-2.33-2.328Z"/></svg>