<svg xmlns="http://www.w3.org/2000/svg" width="24" height="24" ><path  d="m21.78 10.638-2.414-6.247c-.439-1.025-1.463-1.611-2.488-1.611h-9.66c-1.17 0-2.048.586-2.487 1.61l-2.635 6.44a.809.809 0 0 0-.095.404L2 11.27v7.318a2.63 2.63 0 0 0 2.647 2.635h14.706A2.63 2.63 0 0 0 22 18.588V11.27a1.1 1.1 0 0 0-.22-.632ZM6.926 5.268c0-.146.147-.146.293-.146h9.66c.147 0 .293 0 .293.146l1.903 4.83H5.023l1.903-4.83Zm12.721 13.32c0 .146-.147.293-.294.293H4.647c-.147 0-.294-.147-.294-.293v-6.147h15.294v6.147Z"/><path  d="M16.44 16.937a1.563 1.563 0 1 0 0-3.125 1.563 1.563 0 0 0 0 3.125Z"/></svg>