<svg xmlns="http://www.w3.org/2000/svg" width="24" height="24" ><path  d="m7.233 12.952-.038-.255.04.297a7.587 7.587 0 0 1 0-1.986l-.04.297a7.439 7.439 0 0 1 .512-1.882l-.112.266c.248-.587.571-1.14.96-1.648l-.174.226c.392-.509.85-.967 1.359-1.36l-.226.175a7.598 7.598 0 0 1 1.648-.96l-.266.112a7.44 7.44 0 0 1 1.882-.512l-.297.04a7.554 7.554 0 0 1 1.982 0l-.297-.04a7.44 7.44 0 0 1 1.881.512l-.265-.112c.587.248 1.14.571 1.647.96l-.225-.174c.508.392.966.85 1.359 1.359l-.174-.226a7.6 7.6 0 0 1 .96 1.648l-.112-.266c.252.603.424 1.234.511 1.882l-.04-.297a7.55 7.55 0 0 1 0 1.982l.04-.297a7.44 7.44 0 0 1-.511 1.881l.112-.265a7.51 7.51 0 0 1-.96 1.647l.174-.226c-.393.51-.85.967-1.36 1.36l.226-.174c-.507.388-1.06.71-1.647.96.09-.039.178-.077.265-.112a7.441 7.441 0 0 1-1.881.51c.098-.012.198-.026.297-.04a7.557 7.557 0 0 1-1.996-.002l.297.04a7.532 7.532 0 0 1-1.877-.513l.266.112a7.561 7.561 0 0 1-1.643-.958l.225.174a7.366 7.366 0 0 1-.43-.359c-.221-.199-.487-.326-.79-.326-.275 0-.6.12-.79.326-.195.212-.34.491-.326.79.013.286.107.592.325.79a8.389 8.389 0 0 0 2.17 1.436 9.24 9.24 0 0 0 1.364.5 9.3 9.3 0 0 0 1.464.252c1.573.156 3.174-.179 4.586-.877 1.329-.657 2.453-1.692 3.277-2.915.848-1.26 1.315-2.755 1.402-4.266.089-1.53-.273-3.08-.982-4.434-.686-1.31-1.741-2.422-2.982-3.217-1.275-.817-2.78-1.26-4.29-1.312A8.575 8.575 0 0 0 9.327 4.54a8.595 8.595 0 0 0-3.158 3.04 8.557 8.557 0 0 0-1.232 4.34 9.031 9.031 0 0 0 .145 1.625c.042.26.294.54.513.668.239.14.592.198.86.111.27-.087.53-.254.667-.513.038-.09.076-.178.111-.266a1.117 1.117 0 0 0 0-.593Z"/><path  d="M12.337 8.695v3.295c.004.319.127.596.35.821l.364.362 1.39 1.381 1.011 1.007c.203.203.502.326.79.326.275 0 .6-.12.79-.326.195-.212.34-.491.326-.79a1.176 1.176 0 0 0-.326-.79 8314.51 8314.51 0 0 0-2.441-2.426c-.116-.117-.232-.23-.348-.346.109.263.218.526.325.79V8.695c0-.285-.124-.587-.325-.79-.195-.194-.511-.339-.79-.326-.288.014-.587.108-.79.326a1.172 1.172 0 0 0-.326.79ZM8.355 9.832 7.337 10.85l-1.622 1.622-.373.373H6.92l-1.018-1.018-1.622-1.622-.373-.373a1.147 1.147 0 0 0-.79-.326c-.275 0-.6.12-.79.326-.194.212-.34.491-.326.79.013.297.114.576.326.79l1.017 1.018 1.623 1.623.373.372a1.133 1.133 0 0 0 1.578 0l1.018-1.018 1.622-1.622.373-.373c.203-.203.326-.502.326-.79 0-.274-.12-.6-.326-.79-.212-.194-.491-.34-.79-.326a1.15 1.15 0 0 0-.786.326Z"/></svg>