<svg width="24" height="24" viewBox="0 0 24 24" fill="none" xmlns="http://www.w3.org/2000/svg">
<path fill-rule="evenodd" clip-rule="evenodd" d="M4.51849 8.68143C5.98393 9.39236 8.0319 9.76786 10.0799 9.76786C12.1279 9.76786 14.1758 9.39236 15.6413 8.68142V10.6913C15.6413 10.8782 15.5493 11.0812 15.375 11.2863C16.3567 11.7589 17.1838 12.5017 17.7599 13.4182V11.3515C17.7599 11.2737 17.7484 11.1959 17.7271 11.1198C17.7488 10.9793 17.7599 10.8364 17.7599 10.6913V6.07153C17.7599 1.18709 2.3999 1.18709 2.3999 6.07153V10.8234C2.3999 10.9369 2.40746 11.0493 2.42234 11.1603C2.4077 11.2234 2.3999 11.2875 2.3999 11.3515V16.1039C2.3999 18.1884 4.94747 19.8666 8.52291 20.2471C7.94024 19.574 7.51095 18.7645 7.28939 17.8729C5.56872 17.419 4.51849 16.6031 4.51849 15.9718V13.7801C5.30195 14.2271 6.27086 14.5753 7.37043 14.7928C7.59337 14.0635 7.95713 13.3958 8.43001 12.8212C6.04393 12.4811 4.51849 11.452 4.51849 10.6913V8.68143ZM15.6413 6.07153C15.6413 6.46756 13.7874 7.65566 10.0799 7.65566C6.37229 7.65566 4.51849 6.46756 4.51849 6.07153C4.51849 5.67549 6.37229 4.48739 10.0799 4.48739C13.7874 4.48739 15.6413 5.67549 15.6413 6.07153ZM16.3352 16.4788C16.3352 16.6311 16.3214 16.7745 16.3029 16.9179L17.2747 17.6571C17.3622 17.7243 17.3853 17.8452 17.33 17.9438L16.4089 19.4939C16.3536 19.5924 16.2339 19.6327 16.1279 19.5924L14.9811 19.1444C14.7416 19.3191 14.4837 19.4715 14.2027 19.5835L14.0277 20.7707C14.0139 20.8782 13.9172 20.9588 13.8021 20.9588H11.9598C11.8446 20.9588 11.7479 20.8782 11.7341 20.7707L11.5591 19.5835C11.2781 19.4715 11.0202 19.3236 10.7807 19.1444L9.63392 19.5924C9.53259 19.6283 9.40824 19.5924 9.35297 19.4939L8.43183 17.9438C8.37657 17.8452 8.39959 17.7243 8.4871 17.6571L9.4589 16.9179C9.44048 16.7745 9.42666 16.6267 9.42666 16.4788C9.42666 16.331 9.44048 16.1831 9.4589 16.0398L8.4871 15.3006C8.39959 15.2334 8.37196 15.1124 8.43183 15.0139L9.35297 13.4638C9.40824 13.3652 9.52799 13.3249 9.63392 13.3652L10.7807 13.8132C11.0202 13.6385 11.2781 13.4862 11.5591 13.3742L11.7341 12.187C11.7479 12.0795 11.8446 11.9988 11.9598 11.9988H13.8021C13.9172 11.9988 14.0139 12.0795 14.0277 12.187L14.2027 13.3742C14.4837 13.4862 14.7416 13.634 14.9811 13.8132L16.1279 13.3652C16.2292 13.3294 16.3536 13.3652 16.4089 13.4638L17.33 15.0139C17.3853 15.1124 17.3622 15.2334 17.2747 15.3006L16.3029 16.0398C16.3214 16.1831 16.3352 16.3265 16.3352 16.4788ZM11.2689 16.4788C11.2689 17.3435 11.992 18.0468 12.8809 18.0468C13.7698 18.0468 14.4929 17.3435 14.4929 16.4788C14.4929 15.6142 13.7698 14.9108 12.8809 14.9108C11.992 14.9108 11.2689 15.6142 11.2689 16.4788ZM23.5373 16.4054L21.979 14.2261C21.8479 14.041 21.6358 13.9291 21.4082 13.9291C20.8335 13.9291 20.5018 14.5771 20.8335 15.0439L21.9636 16.6291L20.8335 18.2144C20.4979 18.6811 20.8335 19.3291 21.4082 19.3291C21.6358 19.3291 21.8518 19.2173 21.9829 19.0321L23.5412 16.8529C23.6338 16.7179 23.6338 16.5404 23.5373 16.4054ZM19.2829 14.2261L20.8373 16.4054C20.9338 16.5404 20.9338 16.7179 20.8412 16.8529L19.2829 19.0321C19.1518 19.2173 18.9358 19.3291 18.7082 19.3291C18.1335 19.3291 17.7979 18.6811 18.1335 18.2144L19.2636 16.6291L18.1335 15.0439C17.7979 14.5771 18.1335 13.9291 18.7082 13.9291C18.9358 13.9291 19.1479 14.041 19.2829 14.2261Z"/>
</svg>
