<svg viewBox="0 0 24 24" fill="none" xmlns="http://www.w3.org/2000/svg">
<path d="M20.1924 12C20.1924 10.3797 19.7117 8.79547 18.8115 7.44825C17.9113 6.10117 16.6316 5.05166 15.1348 4.43164C13.6378 3.81163 11.9905 3.64875 10.4014 3.96485C8.81233 4.28099 7.35268 5.06139 6.20703 6.20703C5.81651 6.59756 5.18349 6.59755 4.79297 6.20703C4.40244 5.81651 4.40244 5.1835 4.79297 4.79297C6.2184 3.36755 8.03459 2.39718 10.0117 2.00391C11.9888 1.61067 14.0381 1.81166 15.9004 2.58301C17.7628 3.35445 19.3547 4.66176 20.4746 6.33789C21.5944 8.01396 22.1924 9.98426 22.1924 12C22.1924 14.0159 21.5946 15.987 20.4746 17.6631C19.3547 19.3391 17.7627 20.6456 15.9004 21.417C14.0381 22.1883 11.9887 22.3903 10.0117 21.9971C8.03458 21.6038 6.2184 20.6325 4.79297 19.207C4.40246 18.8165 4.40245 18.1835 4.79297 17.793C5.18349 17.4025 5.81652 17.4025 6.20703 17.793C7.35268 18.9386 8.81232 19.719 10.4014 20.0352C11.9904 20.3512 13.6379 20.1892 15.1348 19.5693C16.6316 18.9493 17.9113 17.8989 18.8115 16.5518C19.7117 15.2045 20.1924 13.6203 20.1924 12ZM11.293 8.29297C11.6835 7.90245 12.3165 7.90245 12.707 8.29297L15.707 11.293C16.0976 11.6835 16.0976 12.3165 15.707 12.707L12.707 15.707C12.3165 16.0976 11.6835 16.0976 11.293 15.707C10.9024 15.3165 10.9024 14.6835 11.293 14.293L12.5859 13H5C4.44772 13 4 12.5523 4 12C4 11.4477 4.44772 11 5 11H12.5859L11.293 9.70703C10.9024 9.31651 10.9024 8.6835 11.293 8.29297Z" fill="currentColor"/>
</svg>
