<svg width="24" height="24" viewBox="0 0 16 16" xmlns="http://www.w3.org/2000/svg">
  <path d="M12.6667 2H3.33333C2.6 2 2 2.6 2 3.33333V12.6667C2 13.4 2.6 14 3.33333 14H12.6667C13.4 14 14 13.4 14 12.6667V3.33333C14 2.6 13.4 2 12.6667 2ZM5.33333 11.3333C4.96667 11.3333 4.66667 11.0333 4.66667 10.6667V7.33333C4.66667 6.96667 4.96667 6.66667 5.33333 6.66667C5.7 6.66667 6 6.96667 6 7.33333V10.6667C6 11.0333 5.7 11.3333 5.33333 11.3333ZM8 11.3333C7.63333 11.3333 7.33333 11.0333 7.33333 10.6667V5.33333C7.33333 4.96667 7.63333 4.66667 8 4.66667C8.36667 4.66667 8.66667 4.96667 8.66667 5.33333V10.6667C8.66667 11.0333 8.36667 11.3333 8 11.3333ZM10.6667 11.3333C10.3 11.3333 10 11.0333 10 10.6667V9.33333C10 8.96667 10.3 8.66667 10.6667 8.66667C11.0333 8.66667 11.3333 8.96667 11.3333 9.33333V10.6667C11.3333 11.0333 11.0333 11.3333 10.6667 11.3333Z"/>
</svg>
