<svg width="24" height="24" viewBox="0 0 24 24" xmlns="http://www.w3.org/2000/svg">
<path d="M18.75 5.62514H5.25C4.00874 5.62514 3 6.63389 3 7.87515V16.1251C3 17.3664 4.00874 18.3751 5.25 18.3751H13.6426V19.5001C13.6426 19.7598 13.7776 20.0017 13.9979 20.1376C14.2191 20.2736 14.4948 20.2858 14.7273 20.1704L15.8916 19.5883L17.056 20.1704C17.162 20.2229 17.2773 20.2492 17.3916 20.2492C17.5285 20.2492 17.6654 20.2117 17.7863 20.1367C18.0076 19.9998 18.1416 19.7589 18.1416 19.4992V18.3742H18.7491C19.9904 18.3742 20.9991 17.3655 20.9991 16.1242V7.87421C20.9991 6.63295 19.9904 5.62421 18.7491 5.62421L18.75 5.62514ZM15.8926 15.7503C15.0657 15.7503 14.3926 15.0771 14.3926 14.2503C14.3926 13.4234 15.0657 12.7503 15.8926 12.7503C16.7194 12.7503 17.3926 13.4234 17.3926 14.2503C17.3926 15.0771 16.7194 15.7503 15.8926 15.7503ZM16.2282 18.079C16.0172 17.974 15.7679 17.974 15.5569 18.079L15.1425 18.2862V17.1509C15.3825 17.2128 15.6329 17.2493 15.8925 17.2493C16.1522 17.2493 16.4025 17.2128 16.6425 17.1509V18.2862L16.2282 18.079ZM19.5001 16.1253C19.5001 16.5387 19.1635 16.8753 18.7501 16.8753H18.1426V16.2284C18.6076 15.6997 18.8926 15.0087 18.8926 14.2503C18.8926 12.5965 17.5464 11.2503 15.8926 11.2503C14.2389 11.2503 12.8926 12.5965 12.8926 14.2503C12.8926 15.0078 13.1776 15.6997 13.6426 16.2284V16.8753H5.25005C4.8366 16.8753 4.50005 16.5387 4.50005 16.1253V7.87527C4.50005 7.46182 4.8366 7.12527 5.25005 7.12527H18.75C19.1635 7.12527 19.5 7.46182 19.5 7.87527L19.5001 16.1253Z"  />
</svg>
