<svg xmlns="http://www.w3.org/2000/svg" width="24" height="24" ><path  d="M20.824 20.48H3.176C2.588 20.48 2 19.892 2 19.303c0-.588.588-1.176 1.176-1.176h17.648c.588 0 1.176.588 1.176 1.176s-.588 1.177-1.176 1.177ZM4.649 14.594c-.295 0-.441-.147-.736-.293a1.197 1.197 0 0 1-.294-1.617L7.295 7.83C8.03 6.802 9.5 6.507 10.53 7.096l3.677 1.911c.147 0 .293 0 .293-.147l3.677-4.853a1.197 1.197 0 0 1 1.617-.294c.44.293.588 1.176.294 1.617l-3.676 4.853c-.735 1.029-2.206 1.323-3.235.735L9.5 9.006c-.147 0-.294 0-.294.148L5.53 14.006c-.146.441-.588.588-.881.588Z"/></svg>