<svg xmlns="http://www.w3.org/2000/svg" width="24" height="24" ><path  d="M19.204 11.863c-.273-.958-1.096-1.506-2.055-1.644V7.205A5.203 5.203 0 0 0 11.944 2 5.203 5.203 0 0 0 6.74 7.205v3.014c-.958.138-1.78.686-1.917 1.507a11.738 11.738 0 0 0 0 8.63c.273.959 1.096 1.507 2.055 1.644H17.15c.958-.137 1.78-.821 2.054-1.507a11.738 11.738 0 0 0 0-8.63ZM8.931 7.205c0-1.644 1.37-3.013 3.013-3.013 1.644 0 3.014 1.37 3.014 3.013v3.014H8.93V7.205Zm7.945 12.603-10.137-.137c-.821-2.33-.821-4.794 0-7.26l10.137.138c.959 2.328.959 4.794 0 7.26Z"/></svg>