<svg width="24" height="24" viewBox="0 0 24 24" xmlns="http://www.w3.org/2000/svg">
<path d="M19.8387 11.3614L17.2915 8.81417C16.9388 8.46149 16.3668 8.46149 16.0132 8.81417C15.6606 9.16684 15.6606 9.73888 16.0132 10.0924L17.0308 11.0998H11.2529C10.756 11.0998 10.3527 11.5031 10.3527 12.0001C10.3527 12.497 10.756 12.9003 11.2529 12.9003H17.0308L16.0141 13.9086L16.0132 13.9078C15.8428 14.0773 15.7475 14.3068 15.7475 14.5473C15.7475 14.7869 15.8428 15.0172 16.0132 15.186C16.1837 15.3547 16.4132 15.4484 16.6528 15.4467C16.8916 15.4484 17.1219 15.3547 17.2915 15.186L19.8387 12.6388C20.0091 12.47 20.1044 12.2397 20.1044 12.0001C20.1044 11.7605 20.0091 11.5301 19.8387 11.3614Z"/>
<path d="M14.6997 16.4996C14.2027 16.4996 13.7994 16.9029 13.7994 17.3998V18.3001C13.7994 18.5389 13.7049 18.7675 13.5362 18.9362C13.3674 19.105 13.1388 19.1995 12.9 19.1995H6.59992C6.10296 19.1995 5.69966 18.797 5.69966 18.3001V5.69991C5.69966 5.20296 6.10296 4.8005 6.59992 4.8005H12.9C13.1388 4.8005 13.3674 4.89499 13.5362 5.06375C13.7049 5.2325 13.7994 5.46113 13.7994 5.69991V6.60017C13.7994 7.09713 14.2027 7.50043 14.6997 7.50043C15.1966 7.50043 15.5999 7.09713 15.5999 6.60017V5.69991C15.5999 4.20906 14.3909 3 12.9 3H6.59994C5.10909 3 3.90002 4.20906 3.90002 5.69991V18.3001C3.90002 19.7909 5.10909 21 6.59994 21H12.9C14.3909 21 15.5999 19.7909 15.5999 18.3001V17.3998C15.5999 17.161 15.5046 16.9324 15.3358 16.7637C15.1671 16.5949 14.9385 16.4996 14.6997 16.4996Z"/>
</svg>
