<svg width="24" height="24" viewBox="0 0 24 24" xmlns="http://www.w3.org/2000/svg">
<path d="M2.6964 16.7432C2.5074 16.7432 2.32192 16.6678 2.18733 16.5265C1.9854 16.3146 1.94225 16.0007 2.07972 15.7439L6.2388 7.97503C6.33251 7.79991 6.49913 7.67332 6.69555 7.62791C6.8919 7.58251 7.09872 7.62291 7.26235 7.73853L12.1925 11.221L21.0235 7.41327C21.2935 7.29686 21.609 7.3598 21.811 7.57038C22.0131 7.78096 22.0577 8.09346 21.9226 8.3504L17.9111 15.9769C17.8183 16.1534 17.6515 16.2815 17.4545 16.3278C17.2574 16.374 17.0495 16.3339 16.8853 16.2178L12.0243 12.7843L2.97653 16.6854C2.88627 16.7243 2.7909 16.7432 2.6964 16.7432ZM7.09901 9.30521L4.23711 14.6512L10.7138 11.8586L7.09901 9.30521ZM13.503 12.1467L17.0437 14.6477L19.7838 9.43861L13.503 12.1467Z" />
</svg>
