<svg width="24" height="24" viewBox="0 0 24 24" version="1.1" xmlns="http://www.w3.org/2000/svg" xmlns:xlink="http://www.w3.org/1999/xlink">
  <path style="fill-rule:evenodd;" d="M 12.957031 0.84375 C 12.851562 0.734375 12.507812 0.390625 12.050781 0.222656 C 12.03125 0.214844 12.019531 0.210938 12 0.203125 C 11.984375 0.195312 11.96875 0.1875 11.941406 0.179688 C 11.890625 0.160156 11.816406 0.128906 11.730469 0.105469 C 11.578125 0.0546875 11.332031 -0.0078125 11.035156 0 L 7.058594 0 C 7.035156 0 7.011719 0 6.988281 0.00390625 C 6.628906 0.0234375 6.277344 0.113281 5.957031 0.269531 C 5.632812 0.425781 5.339844 0.640625 5.097656 0.90625 C 4.851562 1.171875 4.65625 1.480469 4.519531 1.820312 C 4.382812 2.160156 4.3125 2.527344 4.308594 2.898438 L 4.308594 10.574219 L 1.375 10.574219 C 0.613281 10.574219 0 11.191406 0 11.949219 C 0 12.707031 0.613281 13.324219 1.375 13.324219 L 4.308594 13.324219 L 4.308594 16.964844 C 4.308594 16.972656 4.308594 16.984375 4.308594 17.003906 C 4.304688 17.101562 4.300781 17.359375 4.320312 17.5625 C 4.34375 17.847656 4.425781 18.277344 4.726562 18.679688 L 7.964844 23.199219 C 8.21875 23.558594 8.625 23.769531 9.054688 23.765625 C 9.488281 23.765625 9.890625 23.550781 10.144531 23.191406 L 13.328125 18.675781 C 13.804688 18.023438 13.796875 17.242188 13.792969 17.011719 C 13.792969 16.996094 13.792969 16.984375 13.792969 16.972656 L 13.792969 13.339844 L 19.238281 13.339844 L 17.53125 15.054688 C 17.03125 15.554688 17.03125 16.554688 17.53125 17.054688 C 18.03125 17.554688 19.019531 17.554688 19.519531 17.054688 L 23.625 12.949219 C 24.125 12.449219 24.125 11.449219 23.625 10.949219 L 19.527344 6.914062 C 19.027344 6.414062 18.035156 6.414062 17.535156 6.914062 C 17.035156 7.410156 17.035156 8.410156 17.535156 8.910156 L 19.242188 10.589844 L 13.792969 10.589844 L 13.792969 2.917969 C 13.792969 2.5625 13.734375 2.179688 13.589844 1.824219 C 13.492188 1.574219 13.300781 1.179688 12.976562 0.863281 C 12.972656 0.855469 12.964844 0.851562 12.957031 0.84375 Z M 11.070312 2.839844 C 11.070312 2.839844 11.074219 2.84375 11.074219 2.84375 C 11.078125 2.851562 11.082031 2.863281 11.085938 2.871094 L 11.085938 4.640625 L 7.011719 4.644531 L 7.011719 2.917969 C 7.011719 2.910156 7.015625 2.902344 7.019531 2.886719 C 7.027344 2.867188 7.039062 2.851562 7.054688 2.835938 C 7.070312 2.816406 7.085938 2.804688 7.101562 2.796875 C 7.109375 2.792969 7.117188 2.792969 7.121094 2.792969 L 10.996094 2.792969 L 11.023438 2.800781 L 11.039062 2.808594 L 11.070312 2.835938 Z M 7.011719 7.390625 L 7.011719 16.980469 C 7.011719 17.03125 7.011719 17.078125 7.011719 17.117188 L 7.011719 17.128906 C 7.011719 17.148438 7.011719 17.164062 7.011719 17.179688 L 9.039062 20.011719 L 11.085938 17.109375 C 11.085938 17.09375 11.085938 17.078125 11.085938 17.054688 C 11.085938 17.03125 11.085938 17.003906 11.085938 16.96875 L 11.085938 7.386719 Z M 7.011719 7.390625 "/>
</svg>
