<svg width="24" height="24" viewBox="0 0 24 24" xmlns="http://www.w3.org/2000/svg">
<path fill-rule="evenodd" clip-rule="evenodd" d="M18.204 13.3242C18.4366 13.3242 18.6387 13.4844 18.6913 13.7109L18.8876 14.5557C18.9261 14.7211 19.0462 14.8549 19.204 14.918C19.3659 14.9825 19.5264 15.0528 19.6844 15.1289C19.831 15.1995 19.9663 15.2845 20.0897 15.3848C20.2361 15.5038 20.4274 15.565 20.6092 15.5146L21.3846 15.2988C21.6037 15.238 21.8367 15.3328 21.951 15.5293L22.4139 16.3252C22.5301 16.5253 22.4938 16.779 22.326 16.9385L21.7479 17.4873C21.6207 17.6081 21.5689 17.787 21.5917 17.9609C21.6126 18.121 21.6229 18.2891 21.6229 18.4648C21.6229 18.6444 21.6126 18.8176 21.5907 18.9844C21.5681 19.1569 21.6199 19.3332 21.746 19.4531L22.3534 20.0312C22.5209 20.1909 22.5567 20.4445 22.4403 20.6445L21.9803 21.4365C21.8648 21.6349 21.6285 21.7292 21.4081 21.665L20.5819 21.4248C20.4149 21.3762 20.2359 21.4202 20.0966 21.5244C19.962 21.625 19.8201 21.7125 19.6708 21.7871C19.519 21.863 19.3634 21.9336 19.204 21.998C19.0463 22.0618 18.926 22.1956 18.8876 22.3613L18.6913 23.2051C18.6387 23.4316 18.4366 23.5928 18.204 23.5928H17.287C17.0544 23.5927 16.8523 23.4316 16.7997 23.2051L16.6044 22.3613C16.5659 22.1956 16.4445 22.0616 16.287 21.9971C16.1302 21.9329 15.9793 21.8627 15.8339 21.7871C15.6922 21.7134 15.5556 21.6272 15.4247 21.5283C15.2836 21.4217 15.1015 21.3784 14.9325 21.4307L14.1141 21.6836C13.8918 21.7522 13.6511 21.6582 13.5341 21.457L13.0751 20.667C12.9598 20.4689 12.994 20.2177 13.1581 20.0576L13.7753 19.4551C13.8992 19.3342 13.9493 19.1579 13.9266 18.9863C13.9053 18.8251 13.8944 18.6557 13.8944 18.4785C13.8944 18.2991 13.9058 18.1257 13.9276 17.959C13.9502 17.7864 13.8984 17.6092 13.7723 17.4893L13.1649 16.9121C12.9971 16.7525 12.9606 16.498 13.077 16.2979L13.537 15.5088C13.6529 15.3095 13.8901 15.2148 14.1112 15.2803L14.8934 15.5127C15.0691 15.5646 15.2572 15.5131 15.3993 15.3975C15.5324 15.2891 15.6726 15.1947 15.8202 15.1152C15.9641 15.0377 16.1117 14.9709 16.2626 14.9141C16.4326 14.85 16.5682 14.7112 16.6092 14.5342L16.7997 13.7109C16.8523 13.4844 17.0544 13.3243 17.287 13.3242H18.204ZM17.7401 16.5322C17.2091 16.5322 16.7561 16.7216 16.3817 17.0996C16.0073 17.4777 15.8202 17.9328 15.8202 18.4639C15.8202 18.9949 16.0095 19.4479 16.3876 19.8223C16.7656 20.1964 17.22 20.3837 17.7508 20.3838C18.2819 20.3838 18.7349 20.1944 19.1092 19.8164C19.4836 19.4383 19.6708 18.9832 19.6708 18.4521C19.6707 17.9212 19.4814 17.469 19.1034 17.0947C18.7253 16.7204 18.2711 16.5323 17.7401 16.5322Z" />
<path fill-rule="evenodd" clip-rule="evenodd" d="M18.9344 3C19.8442 3.00015 20.6245 3.61985 20.8446 4.51953L21.8944 8.88965C22.1444 9.90958 21.9142 10.9603 21.2743 11.7803C21.1943 11.8801 21.0839 11.9697 20.994 12.0596V13.1621C20.0038 12.5383 18.8318 12.1769 17.5751 12.1768C17.2892 12.1768 17.0073 12.1962 16.7313 12.2324C16.6637 12.1741 16.5969 12.1137 16.5341 12.0498C16.4366 12.1472 16.3318 12.2355 16.2245 12.3193C15.5876 12.4556 14.986 12.6865 14.4344 12.9961C14.3881 12.9982 14.3414 13 14.2948 13C13.395 13 12.5947 12.64 12.0048 12.0703C11.4248 12.6403 10.6442 12.9999 9.77429 13C8.86442 13 8.06467 12.6497 7.46472 12.0498C6.8848 12.6397 6.09434 12.9999 5.22448 13C5.14457 13 5.07391 12.9797 4.99401 12.9697V18C4.99401 18.5499 5.44418 18.9998 5.99401 19H11.163C11.206 19.7035 11.3636 20.3757 11.6151 21H4.99401C3.89418 20.9998 2.99401 20.0999 2.99401 19V12.0596C2.90412 11.9598 2.7946 11.8793 2.71472 11.7695C2.07479 10.9496 1.85461 9.9096 2.0946 8.88965L3.1444 4.51953C3.35458 3.6298 4.14497 3 5.04479 3H18.9344ZM4.04479 9.36035C3.94489 9.77028 4.03484 10.2003 4.29479 10.5303C4.42501 10.7103 4.73494 11 5.22448 11C5.83422 10.9998 6.35432 10.5101 6.43444 9.86035L7.01452 5H5.04479L4.04479 9.36035ZM8.48425 9.51953C8.44425 9.90948 8.56439 10.2999 8.81433 10.5898C9.05422 10.8497 9.36419 10.9999 9.70397 11C10.4437 10.9999 10.9938 10.4102 10.994 9.69043V5H9.03405L8.48425 9.51953ZM12.994 9.69043C12.9942 10.4102 13.5448 11 14.2147 11C14.6244 10.9999 14.9448 10.8497 15.1747 10.5898C15.4344 10.2999 15.5547 9.90936 15.5048 9.51953L14.954 5H12.994V9.69043ZM16.9745 5L17.5546 9.86035C17.6247 10.5102 18.1546 11 18.7645 11C19.2639 10.9998 19.5639 10.7103 19.704 10.5303C19.9638 10.2004 20.0538 9.7802 19.954 9.36035L18.9042 4.99023L16.9745 5Z" />
</svg>
