<svg width="25" height="25" viewBox="0 0 25 25" fill="none" xmlns="http://www.w3.org/2000/svg">
  <g clip-path="url(#clip0_2911_21815)">
    <path d="M17.1568 9.50372H23.356C23.9417 9.50372 24.4165 10.0141 24.4165 10.6437V16.7139C24.4165 19.0279 22.6715 20.9037 20.519 20.9037H20.5006C18.3481 20.904 16.6029 19.0285 16.6025 16.7145C16.6025 16.7143 16.6025 16.7141 16.6025 16.7139V10.0995C16.6025 9.77047 16.8507 9.50372 17.1568 9.50372Z" fill="#5059C9"/>
    <path d="M21.3466 8.30369C22.7337 8.30369 23.8582 7.09486 23.8582 5.60369C23.8582 4.11252 22.7337 2.90369 21.3466 2.90369C19.9595 2.90369 18.835 4.11252 18.835 5.60369C18.835 7.09486 19.9595 8.30369 21.3466 8.30369Z" fill="#5059C9"/>
    <path d="M13.5327 8.30373C15.5363 8.30373 17.1606 6.55764 17.1606 4.40373C17.1606 2.24981 15.5363 0.503723 13.5327 0.503723C11.5291 0.503723 9.90479 2.24981 9.90479 4.40373C9.90479 6.55764 11.5291 8.30373 13.5327 8.30373Z" fill="#7B83EB"/>
    <path d="M18.37 9.50372H8.13711C7.5584 9.51912 7.10061 10.0354 7.11404 10.6575V17.5809C7.03323 21.3143 9.7808 24.4124 13.2536 24.5037C16.7264 24.4124 19.4739 21.3143 19.3931 17.5809V10.6575C19.4065 10.0354 18.9487 9.51912 18.37 9.50372Z" fill="#7B83EB"/>
    <path opacity="0.1" d="M13.8117 9.50372V19.2057C13.809 19.6506 13.5582 20.0503 13.1755 20.2197C13.0536 20.2751 12.9227 20.3037 12.7903 20.3037H7.60523C7.53267 20.1057 7.4657 19.9077 7.40987 19.7037C7.2145 19.0152 7.11481 18.2995 7.11406 17.5797V10.6557C7.10064 10.0346 7.55768 9.51912 8.13545 9.50372H13.8117Z" fill="black"/>
    <path opacity="0.2" d="M13.2536 9.50372V19.8057C13.2536 19.948 13.227 20.0887 13.1755 20.2197C13.0179 20.6311 12.6461 20.9007 12.2322 20.9037H7.86756C7.77267 20.7057 7.68337 20.5077 7.60523 20.3037C7.52708 20.0997 7.4657 19.9077 7.40987 19.7037C7.2145 19.0153 7.11481 18.2995 7.11406 17.5797V10.6557C7.10064 10.0346 7.55768 9.51912 8.13545 9.50372H13.2536Z" fill="black"/>
    <path opacity="0.2" d="M13.2536 9.50372V18.6057C13.2493 19.2102 12.7945 19.6992 12.2322 19.7037H7.40987C7.2145 19.0153 7.11481 18.2995 7.11406 17.5797V10.6557C7.10064 10.0346 7.55768 9.51912 8.13545 9.50372H13.2536Z" fill="black"/>
    <path opacity="0.2" d="M12.6954 9.50372V18.6057C12.6912 19.2102 12.2364 19.6992 11.6741 19.7037H7.40987C7.2145 19.0153 7.11481 18.2995 7.11406 17.5797V10.6557C7.10064 10.0346 7.55768 9.51912 8.13545 9.50372H12.6954Z" fill="black"/>
    <path opacity="0.1" d="M13.8119 6.4017V8.2917C13.717 8.2977 13.6277 8.3037 13.5328 8.3037C13.4379 8.3037 13.3486 8.29771 13.2537 8.2917C13.0653 8.27826 12.8785 8.24613 12.6956 8.1957C11.5654 7.90797 10.6316 7.05587 10.184 5.90371C10.107 5.71022 10.0472 5.50932 10.0054 5.30371H12.7905C13.3537 5.306 13.8097 5.79624 13.8119 6.4017Z" fill="black"/>
    <path opacity="0.2" d="M13.2538 7.00174V8.29174C13.0654 8.2783 12.8786 8.24617 12.6957 8.19574C11.5655 7.90801 10.6317 7.05591 10.1841 5.90375H12.2325C12.7957 5.90604 13.2517 6.39629 13.2538 7.00174Z" fill="black"/>
    <path opacity="0.2" d="M13.2538 7.00174V8.29174C13.0654 8.2783 12.8786 8.24617 12.6957 8.19574C11.5655 7.90801 10.6317 7.05591 10.1841 5.90375H12.2325C12.7957 5.90604 13.2517 6.39629 13.2538 7.00174Z" fill="black"/>
    <path opacity="0.2" d="M12.6957 7.00169V8.19568C11.5655 7.90795 10.6317 7.05585 10.1841 5.90369H11.6743C12.2375 5.90599 12.6936 6.39624 12.6957 7.00169Z" fill="black"/>
    <path d="M1.43957 5.90369H11.6725C12.2375 5.90369 12.6956 6.39609 12.6956 7.00348V18.0039C12.6956 18.6113 12.2375 19.1037 11.6725 19.1037H1.43957C0.874541 19.1037 0.416504 18.6113 0.416504 18.0039V7.00348C0.416504 6.39609 0.874552 5.90369 1.43957 5.90369Z" fill="url(#paint0_linear_2911_21815)"/>
    <path d="M9.2487 10.0905H7.20311V16.0785H5.89986V10.0905H3.86377V8.92889H9.2487V10.0905Z" fill="white"/>
  </g>
  <defs>
    <linearGradient id="paint0_linear_2911_21815" x1="2.54963" y1="5.04432" x2="11.4627" y2="19.4043" gradientUnits="userSpaceOnUse">
      <stop stop-color="#5A62C3"/>
      <stop offset="0.5" stop-color="#4D55BD"/>
      <stop offset="1" stop-color="#3940AB"/>
    </linearGradient>
    <clipPath id="clip0_2911_21815">
      <rect width="24" height="24" fill="white" transform="translate(0.416504 0.503723)"/>
    </clipPath>
  </defs>
</svg>
