<svg width="24" height="24" viewBox="0 0 24 24" xmlns="http://www.w3.org/2000/svg">
  <path d="M 15.661394119262695 3.339920997619629 L 9.269022941589355 1.0745476484298706 C 8.732057571411133 0.880373477935791 8.14394474029541 0.880373477935791 7.6069817543029785 1.061603307723999 L 2.5058257579803467 2.7962327003479004 C 1.4702576398849487 3.158686876296997 0.7670911550521851 4.1424970626831055 0.7670911550521851 5.255768299102783 L 0.7670911550521851 20.595516204833984 C 0.7670911550521851 22.420753479003906 2.5697550773620605 23.663469314575195 4.244576930999756 23.003276824951172 L 7.990528106689453 21.52755355834961 C 8.271804809570312 21.41104507446289 8.59142017364502 21.41104507446289 8.872682571411133 21.514659881591797 L 15.26511287689209 23.779972076416016 C 15.802080154418945 23.974149703979492 16.390127182006836 23.974149703979492 16.927093505859375 23.792865753173828 L 22.028249740600586 22.05834197998047 C 23.063825607299805 21.708833694458008 23.767091751098633 20.712018966674805 23.767091751098633 19.59869956970215 L 23.767091751098633 4.2590012550354 C 23.767091751098633 2.4337639808654785 21.964427947998047 1.1910521984100342 20.28956413269043 1.8512413501739502 L 16.543546676635742 3.326965808868408 C 16.262332916259766 3.430530071258545 15.955496788024902 3.4434690475463867 15.661394119262695 3.339920997619629 L 15.661394119262695 3.339920997619629 L 15.661394119262695 3.339920997619629 L 15.661394119262695 3.339920997619629 L 15.661394119262695 3.339920997619629 L 15.661394119262695 3.339920997619629 L 15.661394119262695 3.339920997619629 L 15.661394119262695 3.339920997619629 L 15.661394119262695 3.339920997619629 Z M 16.10891342163086 21.346269607543945 L 8.438002586364746 18.61493492126465 L 8.438002586364746 3.50819993019104 L 16.10891342163086 6.2395782470703125 L 16.10891342163086 21.346269607543945 L 16.10891342163086 21.346269607543945 L 16.10891342163086 21.346269607543945 L 16.10891342163086 21.346269607543945 L 16.10891342163086 21.346269607543945 L 16.10891342163086 21.346269607543945 L 16.10891342163086 21.346269607543945 L 16.10891342163086 21.346269607543945 L 16.10891342163086 21.346269607543945 Z " />
</svg>
