<svg width="24" height="24" viewBox="0 0 24 24" xmlns="http://www.w3.org/2000/svg">
<path d="M11.1328 13.6863H15.1428V11.8863C15.1428 11.4463 15.6828 11.2163 15.9928 11.5363L18.7728 14.3263C18.9628 14.5263 18.9628 14.8363 18.7728 15.0363L15.9928 17.8263C15.6828 18.1463 15.1428 17.9263 15.1428 17.4763V15.6863H11.1328C10.5828 15.6863 10.1328 15.2363 10.1328 14.6863C10.1328 14.1363 10.5828 13.6863 11.1328 13.6863Z"/>
<path fill-rule="evenodd" clip-rule="evenodd" d="M2.46432 4.51467V8.17834C1.52479 8.54813 0.918962 9.54754 1.11643 10.6118L2.83682 19.884C3.02897 20.9197 3.93245 21.6709 4.98575 21.6709H18.973C20.0234 21.6709 20.9253 20.9236 21.1205 19.8914L22.8738 10.6192C23.2153 8.81336 21.5346 8.18106 21.5346 8.18106V6.8838C21.5346 5.67672 20.556 4.69819 19.349 4.69819H12.2537C11.9462 4.69819 11.6529 4.56864 11.4459 4.34133L10.2629 3.04278C9.84872 2.58816 9.26219 2.32906 8.6472 2.32906H4.64993C3.44285 2.32906 2.46432 3.30759 2.46432 4.51467ZM19.349 8.0275V6.8838H12.2537C11.3312 6.8838 10.4514 6.49515 9.83017 5.81321L8.6472 4.51467L4.64993 4.51467L4.64993 8.0275H19.349ZM20.7262 10.2131L3.26536 10.2131L4.98575 19.4853H18.973L20.7262 10.2131Z"/>
</svg>
