<svg xmlns="http://www.w3.org/2000/svg" width="24" height="24" ><path  d="M9.857 3.857h9.286a1 1 0 0 1 1 1v9.286a1 1 0 0 1-1 1H17.86V17h1.282A2.857 2.857 0 0 0 22 14.143V4.857A2.857 2.857 0 0 0 19.143 2H9.857A2.857 2.857 0 0 0 7 4.857v.325h1.857v-.325a1 1 0 0 1 1-1Z"/><path  d="M15.055 8.477c.059.128.092.27.092.419v3.065l1.857-2.254v-.811c0-.73-.274-1.397-.726-1.903l-1.223 1.484Z"/><path  d="M15.084 6.196a2.853 2.853 0 0 0-.937-.157h-9.29A2.857 2.857 0 0 0 2 8.896v9.29a2.857 2.857 0 0 0 2.857 2.857h9.29a2.857 2.857 0 0 0 2.857-2.857v-6.233l-1.857 2.254v3.979a1 1 0 0 1-1 1h-9.29a1 1 0 0 1-1-1v-9.29a1 1 0 0 1 1-1h8.826l1.401-1.7Z"/><path  fill-rule="evenodd" d="M18.33 6.3c.488.401.557 1.121.156 1.609l-7.375 8.95a1.143 1.143 0 0 1-1.653.117l-3.92-3.58a1.143 1.143 0 0 1 1.54-1.687l3.033 2.768 6.611-8.022a1.143 1.143 0 0 1 1.609-.155Z" clip-rule="evenodd"/></svg>