<svg width="24" height="24" viewBox="0 0 24 24" xmlns="http://www.w3.org/2000/svg">
<path fill-rule="evenodd" clip-rule="evenodd" d="M18.9469 10.1235C18.9476 10.6902 19.4025 11.1492 19.965 11.1499C20.4305 11.1499 20.8088 11.5303 20.8088 12C20.8088 12.4696 20.4305 12.85 19.965 12.85C19.4025 12.8507 18.9476 13.3097 18.9469 13.8763V15.8788C18.9455 16.9088 18.5384 17.8962 17.8149 18.6244C17.092 19.3525 16.1111 19.7627 15.0888 19.7634H14.1606C13.6945 19.7634 13.3169 19.383 13.3169 18.9134C13.3169 18.4437 13.6945 18.0634 14.1606 18.0634H15.0888C16.2863 18.0626 17.2573 17.0851 17.2594 15.8788V13.8764C17.2594 13.1772 17.5266 12.505 18.0061 11.9999C17.5266 11.4948 17.2594 10.8226 17.2594 10.1235V8.12103C17.2572 6.91471 16.2862 5.93722 15.0888 5.93651H14.1606C13.6945 5.93651 13.3169 5.55613 13.3169 5.08651C13.3169 4.61689 13.6945 4.23651 14.1606 4.23651H15.0888C16.1112 4.23722 17.0921 4.64734 17.8149 5.3755C18.5384 6.10374 18.9455 7.09115 18.9469 8.12107V10.1235ZM8.91125 5.93682C7.71374 5.93754 6.74274 6.91506 6.74063 8.12134V10.1238C6.74063 10.823 6.47345 11.4952 5.99392 12.0002C6.47344 12.5053 6.74063 13.1775 6.74063 13.8767V15.8791C6.74279 17.0855 7.71383 18.063 8.91125 18.0637H9.83937C10.3055 18.0637 10.6831 18.444 10.6831 18.9137C10.6831 19.3833 10.3055 19.7637 9.83937 19.7637H8.91125C7.88827 19.763 6.90812 19.3535 6.18461 18.6254C5.46178 17.8964 5.05468 16.909 5.05327 15.8791V13.8766C5.05257 13.31 4.59766 12.8517 4.03516 12.8502C3.56969 12.8502 3.19141 12.4699 3.19141 12.0002C3.19141 11.5306 3.56969 11.1502 4.03516 11.1502C4.59766 11.1488 5.05257 10.6905 5.05327 10.1239V8.12139C5.05469 7.09138 5.4618 6.10397 6.18461 5.3751C6.90803 4.64694 7.8882 4.23752 8.91125 4.23682H9.83937C10.3055 4.23682 10.6831 4.6172 10.6831 5.08682C10.6831 5.55643 10.3055 5.93682 9.83937 5.93682H8.91125Z" />
</svg>
