<svg width="24" height="24" viewBox="0 0 24 24" xmlns="http://www.w3.org/2000/svg">
<path fill-rule="evenodd" clip-rule="evenodd" d="M19.965 11.1499C19.4025 11.1492 18.9476 10.6902 18.9469 10.1235V8.12107C18.9455 7.09115 18.5384 6.10374 17.8149 5.3755C17.0921 4.64734 16.1112 4.23722 15.0888 4.23651H14.1606C13.6945 4.23651 13.3169 4.61689 13.3169 5.08651C13.3169 5.55613 13.6945 5.93651 14.1606 5.93651H15.0888C16.2862 5.93722 17.2572 6.91471 17.2594 8.12103V10.1235C17.2594 10.8226 17.5266 11.4948 18.0061 11.9999C17.5266 12.505 17.2594 13.1772 17.2594 13.8764V15.8788C17.2573 17.0851 16.2863 18.0626 15.0888 18.0634H14.1606C13.6945 18.0634 13.3169 18.4437 13.3169 18.9134C13.3169 19.383 13.6945 19.7634 14.1606 19.7634H15.0888C16.1111 19.7627 17.092 19.3525 17.8149 18.6244C18.5384 17.8962 18.9455 16.9088 18.9469 15.8788V13.8763C18.9476 13.3097 19.4025 12.8507 19.965 12.85C20.4305 12.85 20.8088 12.4696 20.8088 12C20.8088 11.5303 20.4305 11.1499 19.965 11.1499ZM6.74063 8.12134C6.74274 6.91506 7.71374 5.93754 8.91125 5.93682H9.83937C10.3055 5.93682 10.6831 5.55643 10.6831 5.08682C10.6831 4.6172 10.3055 4.23682 9.83937 4.23682H8.91125C7.8882 4.23752 6.90803 4.64694 6.18461 5.3751C5.4618 6.10397 5.05469 7.09138 5.05327 8.12139V10.1239C5.05257 10.6905 4.59766 11.1488 4.03516 11.1502C3.56969 11.1502 3.19141 11.5306 3.19141 12.0002C3.19141 12.4699 3.56969 12.8502 4.03516 12.8502C4.59766 12.8517 5.05257 13.31 5.05327 13.8766V15.8791C5.05468 16.909 5.46178 17.8964 6.18461 18.6254C6.90812 19.3535 7.88827 19.763 8.91125 19.7637H9.83937C10.3055 19.7637 10.6831 19.3833 10.6831 18.9137C10.6831 18.444 10.3055 18.0637 9.83937 18.0637H8.91125C7.71383 18.063 6.74279 17.0855 6.74063 15.8791V13.8767C6.74063 13.1775 6.47344 12.5053 5.99392 12.0002C6.47345 11.4952 6.74063 10.823 6.74063 10.1238V8.12134ZM12 10C12.5523 10 13 9.55228 13 9C13 8.44771 12.5523 8 12 8C11.4477 8 11 8.44771 11 9C11 9.55228 11.4477 10 12 10ZM13 12C13 12.5523 12.5523 13 12 13C11.4477 13 11 12.5523 11 12C11 11.4477 11.4477 11 12 11C12.5523 11 13 11.4477 13 12ZM12 16C12.5523 16 13 15.5523 13 15C13 14.4477 12.5523 14 12 14C11.4477 14 11 14.4477 11 15C11 15.5523 11.4477 16 12 16Z" />
</svg>
