<svg width="24" height="24" viewBox="0 0 24 24" xmlns="http://www.w3.org/2000/svg">
<path fill-rule="evenodd" clip-rule="evenodd" d="M19.6358 8.60448V16.9254C19.6358 17.3234 19.5095 17.6592 19.2568 17.9328C19.0295 18.1816 18.7263 18.306 18.3474 18.306H5.72842C5.34947 18.306 5.03368 18.1816 4.78105 17.9328C4.55368 17.6592 4.44 17.3234 4.44 16.9254V8.60448C4.44 8.20647 4.55368 7.88308 4.78105 7.63433C5.03368 7.3607 5.34947 7.22388 5.72842 7.22388H18.3474C18.7263 7.22388 19.0295 7.3607 19.2568 7.63433C19.5095 7.88308 19.6358 8.20647 19.6358 8.60448ZM21 17.7836V6.21642C21 5.74378 20.8358 5.34577 20.5074 5.02239C20.1789 4.67413 19.7747 4.5 19.2947 4.5H4.74316C4.26316 4.5 3.84632 4.67413 3.49263 5.02239C3.16421 5.34577 3 5.74378 3 6.21642V17.7836C3 18.2562 3.16421 18.6667 3.49263 19.0149C3.84632 19.3383 4.26316 19.5 4.74316 19.5H19.2947C19.7747 19.5 20.1789 19.3383 20.5074 19.0149C20.8358 18.6667 21 18.2562 21 17.7836ZM16.2472 12.3877C15.9472 12.3873 15.7045 12.1425 15.7041 11.8402V10.7721C15.7034 10.2227 15.4862 9.69601 15.1003 9.30756C14.7147 8.91915 14.1915 8.70039 13.6462 8.70001H13.1511C12.9024 8.70001 12.701 8.90291 12.701 9.15341C12.701 9.40391 12.9024 9.60681 13.1511 9.60681H13.6462C14.2849 9.60719 14.8028 10.1286 14.804 10.7721V11.8402C14.804 12.2131 14.9465 12.5717 15.2023 12.8411C14.9465 13.1105 14.804 13.4691 14.804 13.842V14.9101C14.8029 15.5536 14.2849 16.075 13.6462 16.0754H13.1511C12.9024 16.0754 12.701 16.2783 12.701 16.5288C12.701 16.7793 12.9024 16.9822 13.1511 16.9822H13.6462C14.1915 16.9818 14.7147 16.763 15.1003 16.3746C15.4862 15.9862 15.7034 15.4595 15.7041 14.9101V13.842C15.7045 13.5397 15.9472 13.2949 16.2472 13.2945C16.4955 13.2945 16.6973 13.0916 16.6973 12.8411C16.6973 12.5906 16.4955 12.3877 16.2472 12.3877ZM9.19324 10.7722C9.19436 10.1288 9.71231 9.60737 10.3511 9.60698H10.8461C11.0948 9.60698 11.2962 9.40408 11.2962 9.15358C11.2962 8.90308 11.0948 8.70018 10.8461 8.70018H10.3511C9.80536 8.70056 9.28253 8.91895 8.89665 9.30735C8.5111 9.69614 8.29394 10.2228 8.29319 10.7723V11.8404C8.29281 12.1427 8.05016 12.3871 7.75011 12.3879C7.50183 12.3879 7.30005 12.5908 7.30005 12.8413C7.30005 13.0918 7.50183 13.2947 7.75011 13.2947C8.05016 13.2954 8.29281 13.5399 8.29319 13.8421V14.9103C8.29394 15.4597 8.51109 15.9863 8.89665 16.3752C9.28258 16.7636 9.8054 16.982 10.3511 16.9824H10.8461C11.0948 16.9824 11.2962 16.7795 11.2962 16.529C11.2962 16.2785 11.0948 16.0756 10.8461 16.0756H10.3511C9.71236 16.0752 9.19439 15.5538 9.19324 14.9103V13.8422C9.19324 13.4693 9.05072 13.1107 8.79494 12.8413C9.05072 12.5719 9.19324 12.2133 9.19324 11.8404V10.7722Z" />
</svg>
