<svg width="24" height="24" viewBox="0 0 24 24" xmlns="http://www.w3.org/2000/svg">
<path d="M17.8926 17.9586C17.7663 18.2343 17.5768 18.4975 17.3242 18.7481C16.8442 19.2494 16.2632 19.5 15.5811 19.5H5.50105C4.81895 19.5 4.22526 19.2494 3.72 18.7481C3.24 18.2469 3 17.6579 3 16.9812V9.5C3 8.82331 3.25263 8.23434 3.75789 7.73308C4.06105 7.45739 4.38947 7.25689 4.74316 7.13158V15.0639C4.74316 15.8409 5.02105 16.5175 5.57684 17.094C6.15789 17.6704 6.85263 17.9586 7.66105 17.9586H17.8926ZM21 6.9812V14.4624C21 15.1391 20.7474 15.7281 20.2421 16.2293C19.7621 16.7306 19.1811 16.9812 18.4989 16.9812H8.41895C7.7621 16.9812 7.18105 16.7306 6.67579 16.2293C6.17053 15.7281 5.91789 15.1391 5.91789 14.4624V6.9812C5.91789 6.30451 6.17053 5.72807 6.67579 5.25188C7.18105 4.75063 7.7621 4.5 8.41895 4.5H18.4989C19.1811 4.5 19.7621 4.75063 20.2421 5.25188C20.7474 5.72807 21 6.30451 21 6.9812ZM11.3368 14.8008H11.6779V13.9737H11.4126C11.3116 13.9737 11.2105 13.9612 11.1095 13.9361C11.0084 13.911 10.92 13.8609 10.8442 13.7857C10.7937 13.7105 10.7432 13.6103 10.6926 13.485C10.6674 13.3596 10.6547 13.1967 10.6547 12.9962V11.8684C10.6547 11.4424 10.5916 11.1291 10.4653 10.9286C10.3389 10.7281 10.1368 10.6028 9.85895 10.5526C9.98526 10.5276 10.0989 10.49 10.2 10.4398C10.3011 10.3897 10.3768 10.3145 10.4274 10.2143C10.5032 10.089 10.5537 9.95113 10.5789 9.80075C10.6295 9.65038 10.6547 9.46241 10.6547 9.23684V8.48496C10.6547 8.30952 10.6674 8.15915 10.6926 8.03383C10.7432 7.90852 10.7937 7.80827 10.8442 7.73308C10.92 7.65789 11.0084 7.60777 11.1095 7.58271C11.2105 7.53258 11.3116 7.50752 11.4126 7.50752H11.6779V6.68045H11.3368C11.0842 6.68045 10.8568 6.71804 10.6547 6.79323C10.4779 6.86842 10.3263 6.9812 10.2 7.13158C10.0737 7.28195 9.97263 7.46992 9.89684 7.69549C9.84632 7.92105 9.82105 8.19674 9.82105 8.52256V9.27444C9.82105 9.42481 9.80842 9.56266 9.78316 9.68797C9.75789 9.78822 9.70737 9.87594 9.63158 9.95113C9.58105 10.0013 9.50526 10.0514 9.40421 10.1015C9.32842 10.1266 9.22737 10.1391 9.10105 10.1391H8.87368V10.9662H9.10105C9.35368 10.9662 9.53053 11.0414 9.63158 11.1917C9.75789 11.3421 9.82105 11.5677 9.82105 11.8684V12.9962C9.82105 13.6228 9.94737 14.0865 10.2 14.3872C10.4526 14.6629 10.8316 14.8008 11.3368 14.8008ZM15.6189 6.68045H15.2779V7.50752H15.5432C15.6442 7.50752 15.7453 7.52005 15.8463 7.54511C15.9474 7.57018 16.0232 7.63283 16.0737 7.73308C16.1495 7.80827 16.2 7.90852 16.2253 8.03383C16.2758 8.15915 16.3011 8.30952 16.3011 8.48496V9.23684C16.3011 9.66291 16.3642 9.98872 16.4905 10.2143C16.6168 10.4148 16.8189 10.5276 17.0968 10.5526C16.9453 10.5777 16.8189 10.6278 16.7179 10.703C16.6421 10.7531 16.5663 10.8283 16.4905 10.9286C16.44 11.0288 16.3895 11.1541 16.3389 11.3045C16.3137 11.4549 16.3011 11.6429 16.3011 11.8684V12.9962C16.3011 13.1967 16.2758 13.3596 16.2253 13.485C16.2 13.6103 16.1495 13.7105 16.0737 13.7857C16.0232 13.8609 15.9474 13.911 15.8463 13.9361C15.7453 13.9612 15.6442 13.9737 15.5432 13.9737H15.2779V14.8008H15.6189C15.8716 14.8008 16.0863 14.7632 16.2632 14.688C16.4653 14.6128 16.6295 14.5 16.7558 14.3496C16.8821 14.1992 16.9705 14.0113 17.0211 13.7857C17.0968 13.5602 17.1347 13.297 17.1347 12.9962V11.8308C17.1347 11.6805 17.1474 11.5551 17.1726 11.4549C17.1979 11.3296 17.2358 11.2419 17.2863 11.1917C17.3368 11.1165 17.4126 11.0664 17.5137 11.0414C17.6147 10.9912 17.7284 10.9662 17.8547 10.9662H18.0821V10.1391H17.8547C17.6021 10.1391 17.4126 10.0639 17.2863 9.91353C17.1853 9.76316 17.1347 9.53759 17.1347 9.23684V8.52256C17.1347 7.87093 17.0084 7.40727 16.7558 7.13158C16.5032 6.83083 16.1242 6.68045 15.6189 6.68045Z" />
</svg>
