<svg width="24" height="24" viewBox="0 0 24 24" xmlns="http://www.w3.org/2000/svg">
<path fill-rule="evenodd" clip-rule="evenodd" d="M8.07099 17.1068H5.96132V6.84327H8.07099C9.30967 6.84327 9.30967 5 8.07099 5H4.98066C4.46463 5 4 5.41761 4 5.93412V18.0659C4 18.5574 4.43842 19 4.98066 19H8.07099C9.30866 18.9501 9.30866 17.1068 8.07099 17.1068ZM10 12C10 12.5523 9.55228 13 9 13C8.44772 13 8 12.5523 8 12C8 11.4477 8.44772 11 9 11C9.55228 11 10 11.4477 10 12ZM13 12C13 12.5523 12.5523 13 12 13C11.4477 13 11 12.5523 11 12C11 11.4477 11.4477 11 12 11C12.5523 11 13 11.4477 13 12ZM15 13C15.5523 13 16 12.5523 16 12C16 11.4477 15.5523 11 15 11C14.4477 11 14 11.4477 14 12C14 12.5523 14.4477 13 15 13ZM18.0387 17.1068H15.929C14.6913 17.1068 14.6913 18.9501 15.929 19H19.0193C19.5616 19 20 18.5574 20 18.0659V5.93412C20 5.41761 19.5354 5 19.0193 5H15.929C14.6903 5 14.6903 6.84327 15.929 6.84327H18.0387V17.1068Z" />
</svg>
