<svg viewBox="0 0 24 24" fill="none" xmlns="http://www.w3.org/2000/svg">
<path d="M1.80762 12C1.80763 9.98426 2.40557 8.01395 3.52539 6.33789C4.64535 4.66175 6.23718 3.35445 8.09961 2.58301C9.96194 1.81165 12.0112 1.61068 13.9883 2.00391C15.9654 2.39718 17.7816 3.36756 19.207 4.79297C19.5976 5.18349 19.5976 5.81651 19.207 6.20703C18.8165 6.59752 18.1835 6.59754 17.793 6.20703C16.6473 5.06139 15.1877 4.28098 13.5986 3.96484C12.0095 3.64874 10.3622 3.81161 8.86523 4.43164C7.36838 5.05166 6.08866 6.10116 5.18848 7.44824C4.28829 8.79547 3.80763 10.3797 3.80762 12C3.80762 13.6203 4.28828 15.2045 5.18848 16.5518C6.08867 17.8989 7.36835 18.9493 8.86523 19.5693C10.3621 20.1893 12.0096 20.3512 13.5986 20.0352C15.1877 19.719 16.6473 18.9386 17.793 17.793C18.1835 17.4025 18.8165 17.4025 19.207 17.793C19.5976 18.1835 19.5976 18.8165 19.207 19.207C17.7816 20.6325 15.9654 21.6038 13.9883 21.9971C12.0113 22.3903 9.9619 22.1883 8.09961 21.417C6.23729 20.6456 4.64534 19.3391 3.52539 17.6631C2.40543 15.9869 1.80762 14.0159 1.80762 12ZM16.293 8.29297C16.6835 7.90245 17.3165 7.90247 17.707 8.29297L20.707 11.293C21.0976 11.6835 21.0976 12.3165 20.707 12.707L17.707 15.707C17.3165 16.0975 16.6835 16.0975 16.293 15.707C15.9025 15.3165 15.9025 14.6835 16.293 14.293L17.5859 13H10C9.44775 13 9.00001 12.5523 9 12C9 11.4477 9.44774 11 10 11H17.5859L16.293 9.70703C15.9025 9.31652 15.9025 8.68349 16.293 8.29297Z" fill="currentColor"/>
</svg>
