<svg xmlns="http://www.w3.org/2000/svg" width="24" height="24" ><path  d="m21.214 5.74-2.993-2.992C17.622 2.299 17.023 2 16.275 2c-.747 0-1.496.3-1.945.748L3.705 13.373c-.45.299-.749.749-.899 1.347v.15l-.747 5.686c-.15.45 0 .749.299 1.048.3.15.6.3.898.3l5.687-.75c.598 0 1.048-.299 1.496-.748L21.214 9.632c1.048-1.047 1.048-2.844 0-3.892ZM8.944 18.76c0 .149-.15.149-.15.149l-4.04.598.598-4.04c0-.15 0-.15.15-.3l7.196-7.197 3.572 3.463-7.326 7.326ZM19.718 7.985l-1.802 1.802-3.572-3.463 1.932-1.932c.103-.102.154-.147.154-.147l.146.147 3.142 3.144c.15.148.15.299 0 .449Z"/></svg>