<svg xmlns="http://www.w3.org/2000/svg" width="24" height="24" ><path  d="M4.332 4.166a1.166 1.166 0 1 1-2.332 0 1.166 1.166 0 0 1 2.332 0ZM3.166 9.654a1.166 1.166 0 1 0 0-2.331 1.166 1.166 0 0 0 0 2.331ZM3.166 13.977a1.166 1.166 0 1 0 0-2.332 1.166 1.166 0 0 0 0 2.332ZM6.223 11.9a.91.91 0 0 0 0 1.821H9.95c.087-.067.175-.133.266-.197a5.242 5.242 0 0 1-.42-1.624H6.222ZM10.168 9.4H6.223a.91.91 0 0 1 0-1.822h5.204a5.268 5.268 0 0 0-1.26 1.821ZM5.313 4.166a.91.91 0 0 1 .91-.911H16.67a.91.91 0 0 1 0 1.822H6.223a.91.91 0 0 1-.91-.911Z"/><path  fill-rule="evenodd" d="M11.229 11.404c0 1.023.402 1.952 1.058 2.637-3.036 1.239-4.078 4.452-4.178 6.334-.034.501.353.922.854.957.49.045.922-.353.956-.854.012-.205.353-5.124 5.124-5.124 4.782 0 5.123 4.919 5.134 5.124.023.49.433.865.911.865.012 0 .034 0 .046-.011a.915.915 0 0 0 .865-.957c-.1-1.885-1.144-5.104-4.19-6.34a3.783 3.783 0 0 0 1.048-2.62 3.822 3.822 0 0 0-3.814-3.814c-2.095 0-3.814 1.696-3.814 3.803Zm3.814-1.981a1.995 1.995 0 0 0-1.993 1.992c0 1.105.9 1.981 1.992 1.981a1.995 1.995 0 0 0 1.993-1.992 1.978 1.978 0 0 0-1.992-1.981Z" clip-rule="evenodd"/></svg>