<svg xmlns="http://www.w3.org/2000/svg" width="24" height="24" ><circle cx="3.571" cy="6.111" r="1.571" /><circle cx="3.571" cy="11.995" r="1.571" /><circle cx="3.571" cy="17.878" r="1.571" /><path  fill-rule="evenodd" d="M7.566 6.112c0-.632.512-1.143 1.143-1.143h12.148a1.143 1.143 0 1 1 0 2.285H8.71a1.143 1.143 0 0 1-1.143-1.142ZM7.566 11.994c0-.63.512-1.143 1.143-1.143h12.148a1.143 1.143 0 0 1 0 2.286H8.71a1.143 1.143 0 0 1-1.143-1.143ZM7.566 17.878c0-.632.512-1.143 1.143-1.143h12.148a1.143 1.143 0 0 1 0 2.285H8.71a1.143 1.143 0 0 1-1.143-1.142Z" clip-rule="evenodd"/></svg>