<svg width="24" height="24" viewBox="0 0 24 24" xmlns="http://www.w3.org/2000/svg">
<path fill-rule="evenodd" clip-rule="evenodd" d="M2.51199 12C2.51199 11.259 3.18446 10.6584 4.01398 10.6584L19.7848 10.6584C20.6144 10.6584 21.2868 11.259 21.2874 11.9994C21.2874 12.7405 20.6144 13.3405 19.7848 13.3405L4.01342 13.3411C3.1839 13.3411 2.51144 12.7405 2.51199 12Z"/>
<path fill-rule="evenodd" clip-rule="evenodd" d="M11.8989 2.61219C12.6399 2.61219 13.2394 3.28466 13.2399 4.11473L13.24 19.8855C13.24 20.715 12.6394 21.3875 11.8995 21.3875C11.1585 21.3875 10.5579 20.715 10.5584 19.885L10.5578 4.11472C10.5578 3.2852 11.1584 2.61274 11.8989 2.61219Z"/>
</svg>
