<svg xmlns="http://www.w3.org/2000/svg" width="24" height="24" ><path  fill-rule="evenodd" d="M12 19.714a7.715 7.715 0 1 0-.001-15.43A7.715 7.715 0 0 0 12 19.714ZM12 22c5.522 0 10-4.478 10-10S17.522 2 12 2 2 6.478 2 12s4.478 10 10 10Z" clip-rule="evenodd"/><path  fill-rule="evenodd" d="M12 6.857c.633 0 1.144.511 1.144 1.143v7.714a1.142 1.142 0 1 1-2.286 0V8c0-.632.511-1.143 1.143-1.143Z" clip-rule="evenodd"/><path  fill-rule="evenodd" d="M7 12c0-.631.511-1.143 1.143-1.143h7.714a1.142 1.142 0 1 1 0 2.286H8.143A1.142 1.142 0 0 1 7 12Z" clip-rule="evenodd"/></svg>