<svg width="24" height="24" viewBox="0 0 24 24" xmlns="http://www.w3.org/2000/svg">
  <path fill-rule="evenodd" clip-rule="evenodd" d="M14.9619 18.0988C15.6923 17.3425 15.8329 16.2854 15.8329 15.3122V9.37821H17.4978C18.0552 9.37821 18.5566 8.96954 18.698 8.41342C18.8218 7.91701 18.906 7.40815 18.9581 6.8986C19.0367 6.12931 19.0822 4.89919 18.6059 3.91281C18.1532 2.97549 17.4533 2.48501 16.8691 2.24298C16.5161 2.09676 16.1372 2.00085 15.7555 2.00085H8.20611C7.42758 2.00085 6.55012 2.20854 5.93209 3.00862C5.37275 3.73269 5.22507 4.7018 5.22507 5.68953V11.6233H3.56019C3.01902 11.6233 2.52942 12.0014 2.37353 12.5378C2.09614 13.4975 1.94732 14.5496 2.03063 15.5513C2.10569 16.4539 2.47097 17.2882 3.00158 18.0024C3.22372 18.3015 3.79947 19.0007 4.72163 19.0007L12.2712 19.0009C13.2109 19.0009 14.2316 18.8552 14.9619 18.0988ZM7.70281 5.68953C7.70281 4.88597 7.841 4.64686 7.86577 4.61308C7.86577 4.61308 7.87273 4.60976 7.8789 4.60736C7.91598 4.59297 8.01222 4.56689 8.20611 4.56689H13.4279C13.3845 4.72699 13.3553 4.90308 13.3554 5.08843L13.3554 6.24365C13.3381 8.2612 13.3438 10.2794 13.3495 12.2974C13.3523 13.3024 13.3552 14.3074 13.3552 15.3122C13.3552 15.8873 13.2677 16.1815 13.2296 16.2541C13.1773 16.3539 13.0041 16.3773 12.8915 16.3925C12.8764 16.3946 12.8624 16.3965 12.8499 16.3984C12.6087 16.0046 12.3485 15.4048 12.3484 14.7105V12.9063C12.3484 12.1977 11.7938 11.6233 11.1096 11.6233H7.70281V5.68953ZM15.8331 6.81217L15.8331 6.25705C15.8399 5.6868 16.0163 5.18948 16.2179 4.80751C16.2791 4.8711 16.3379 4.9532 16.3898 5.0606C16.6303 5.55869 16.5454 6.23637 16.4777 6.77598C16.4762 6.78812 16.4747 6.80018 16.4732 6.81217H15.8331ZM4.49924 15.3312C4.47064 14.9872 4.50116 14.5674 4.557 14.1893H9.8707C9.8707 14.9554 9.90748 15.699 10.1427 16.4346H4.96308C4.72228 16.1086 4.53347 15.7428 4.49924 15.3312Z"/>
  <path d="M16.687 18.3679C16.5808 18.6191 16.3869 19.0039 15.9807 19.3632C15.2491 20.0102 14.277 20.1397 13.3778 20.1397L5.68187 20.1395C5.60137 20.1395 5.52345 20.1343 5.44813 20.1247C5.62008 20.5549 5.85474 20.96 6.13449 21.3327C6.36091 21.6343 6.94772 21.999 7.88761 21.999L15.5822 21.9992C16.54 21.9992 17.194 21.688 17.9384 20.9251C18.6828 20.1621 18.9049 19.6007 18.9049 18.6191V12.4935H20.1943C20.7625 12.4935 21.5009 12.0105 21.6451 11.4496C21.7712 10.9489 21.857 10.4356 21.9101 9.92164C21.9902 9.14567 22.1306 8.10982 21.6451 7.11488C21.1837 6.16943 20.864 5.68056 20.2685 5.43643C20.1823 5.40108 20.0945 5.36864 20.0056 5.33975C20.3076 6.24548 20.2635 7.26227 20.1943 7.9324C20.1413 8.44617 20.0555 8.95926 19.9294 9.45979C19.8459 9.79121 19.7002 9.94199 19.5999 10.0453C19.3671 10.2851 19.0467 10.4335 18.7058 10.4335H17.0086V16.419C17.0086 17.0691 16.9457 17.7562 16.687 18.3679Z" />
</svg>
