<svg xmlns="http://www.w3.org/2000/svg" width="24" height="24" ><path  fill-rule="evenodd" d="M17.77 2H17.826l.117.006a5.374 5.374 0 0 1 1.586.338c.896.343 2.1 1.136 2.363 2.846a9.01 9.01 0 0 1-.053 3.092 7.438 7.438 0 0 1-.235.907 5.223 5.223 0 0 1-.127.342l-.011.026-.005.01-.001.004-.001.002-.001.002c-.182.404-.561.661-.977.661h-2.306v7.647c0 .91-.193 1.963-.846 2.775-.666.866-1.675 1.342-2.954 1.342H6.174l-.117-.006a5.37 5.37 0 0 1-1.586-.338c-.896-.343-2.1-1.136-2.363-2.846a9.008 9.008 0 0 1 .053-3.092 7.43 7.43 0 0 1 .235-.907 5.24 5.24 0 0 1 .127-.342l.011-.026.005-.01.001-.004.001-.002.001-.002c.182-.404.561-.661.977-.661h2.306V6.119c0-.91.208-1.946.846-2.775C7.337 2.477 8.346 2 9.625 2L17.768 2h.002Zm-1.362 2.353-6.783.001c-.756 0-1.105.26-1.286.496-.211.274-.342.708-.342 1.269V13.765h5.106a1 1 0 0 1 1 1v1.647c0 1.404.169 1.985.352 2.313.133.237.307.416.635.682.072.058.171.072.25.025.146-.084.247-.184.321-.28.211-.274.342-.709.342-1.27V8.157c0-1.316 0-2.375.208-3.208.053-.214.119-.411.197-.595Zm-4.476 11.765H6.911l-2.036-.001h-.572l-.018.09a6.463 6.463 0 0 0-.035 2.216c.076.496.398.806.945 1.015a3.345 3.345 0 0 0 1.034.21h6.219c-.38-.835-.516-1.866-.516-3.236v-.294Zm6.243-8.235c.003-1.248.021-1.88.132-2.321.07-.282.176-.497.564-.823a.226.226 0 0 1 .258-.026c.351.201.561.476.621.864a6.463 6.463 0 0 1-.053 2.306H18.175Z" clip-rule="evenodd"/></svg>