<svg width="24" height="24" viewBox="0 0 24 24" xmlns="http://www.w3.org/2000/svg">
<path d="M17.3056 20.8753H6.59135C5.60529 20.8753 4.80592 20.0759 4.80592 19.089V16.6968C4.80676 16.4029 4.95157 16.1284 5.19432 15.9618C5.43706 15.7961 5.74593 15.7601 6.01966 15.8664C6.33607 15.9752 6.67591 15.9945 7.00235 15.92C7.71468 15.7609 8.25961 15.185 8.3768 14.4643C8.46218 13.942 8.31235 13.4096 7.96664 13.0087C7.48115 12.4721 6.72695 12.2696 6.03807 12.4914C5.76183 12.6044 5.44711 12.5726 5.19933 12.406C4.95157 12.2386 4.80423 11.959 4.80592 11.661V9.26786C4.80592 8.2818 5.60532 7.48243 6.59135 7.48243H8.48392C8.3592 6.93834 8.3592 6.37417 8.48392 5.8301C8.63292 5.14539 8.97946 4.5201 9.48168 4.03128C9.98307 3.54245 10.6176 3.2118 11.3056 3.08038C12.3561 2.88116 13.4401 3.16325 14.2613 3.84795C15.0648 4.53099 15.5252 5.53462 15.5202 6.58931C15.5219 6.89064 15.4825 7.19115 15.4038 7.48245H17.3056C17.7794 7.48245 18.2331 7.66995 18.5679 8.00561C18.9036 8.34043 19.0911 8.79412 19.0911 9.26788V19.089C19.0911 19.5628 18.9036 20.0173 18.5679 20.3521C18.2331 20.687 17.7794 20.8753 17.3056 20.8753ZM6.59135 17.7497V19.089H17.3056V9.26787H13.9399C13.5875 9.26704 13.2685 9.05861 13.1254 8.73634C12.9823 8.41491 13.0425 8.03824 13.2786 7.77706C13.6017 7.41546 13.7641 6.93917 13.7289 6.45535C13.6938 5.97237 13.4636 5.52454 13.0911 5.21399C12.6826 4.85824 12.1335 4.70674 11.6003 4.80383C10.97 4.92771 10.4544 5.38139 10.2518 5.99078C10.0484 6.60016 10.1882 7.27232 10.6184 7.75026C10.8729 8.00974 10.9449 8.39813 10.7992 8.73128C10.6544 9.06526 10.3212 9.27704 9.95714 9.26783H6.59135V10.6071C7.64101 10.5946 8.64296 11.0449 9.33099 11.8376C10.0182 12.6303 10.3229 13.6858 10.163 14.7229C10.0542 15.4344 9.73361 16.0957 9.24309 16.6214C8.75257 17.1471 8.11475 17.5129 7.41245 17.6694C7.14292 17.7263 6.86757 17.7531 6.59135 17.7497Z" />
</svg>
