<svg xmlns="http://www.w3.org/2000/svg" width="24" height="24" ><path  d="M19.694 20.716H4.307A2.298 2.298 0 0 1 2 18.41V5.589A2.298 2.298 0 0 1 4.307 3.28h15.385A2.298 2.298 0 0 1 22 5.588v12.82a2.297 2.297 0 0 1-2.306 2.308ZM4.307 5.331a.275.275 0 0 0-.256.257v12.82c0 .128.129.256.256.256h15.385a.276.276 0 0 0 .257-.256V5.588c0-.128-.129-.256-.257-.256H4.307Z"/><path  d="M12 8.408H6.872v2.052H12V8.408ZM12 13.538H6.872v2.052H12v-2.052ZM17.128 13.921c0-1.025-.897-1.922-1.923-1.922-1.025 0-1.922.897-1.922 1.922 0 1.026.897 1.923 1.922 1.923v1.283c1.026-.64 1.667-1.666 1.923-2.82v-.386ZM15.206 10.972a1.666 1.666 0 1 0 0-3.333 1.666 1.666 0 0 0 0 3.333Z"/></svg>