<svg xmlns="http://www.w3.org/2000/svg" width="24" height="24" ><path  fill-rule="evenodd" d="M12 19.714a7.715 7.715 0 1 0-.001-15.43A7.715 7.715 0 0 0 12 19.714ZM12 22c5.522 0 10-4.478 10-10S17.522 2 12 2 2 6.478 2 12s4.478 10 10 10Z" clip-rule="evenodd"/><path  d="M12.146 7.145c.338.037.674.096 1.006.175 1.015.304 1.618 1.159 1.694 2.295a2.19 2.19 0 0 1-.159 1.067 2.07 2.07 0 0 1-.643.84c-.27.221-.553.422-.826.639a1.388 1.388 0 0 0-.463.546c-.106.222-.155.47-.142.718a.833.833 0 0 1-.142.501.768.768 0 0 1-.405.303.805.805 0 0 1-.544.022.837.837 0 0 1-.442-.333.883.883 0 0 1-.113-.415 2.927 2.927 0 0 1 .267-1.312c.189-.409.47-.762.817-1.03.306-.245.594-.513.862-.803.128-.16.205-.356.222-.565.043-.568-.303-.934-.86-.972-.675-.046-1.242.139-1.637.767a.82.82 0 0 1-.354.338.764.764 0 0 1-.473.064c-.57-.1-.816-.59-.583-1.154a2.51 2.51 0 0 1 1.19-1.245 3.95 3.95 0 0 1 1.728-.446ZM11.93 17.004a1.071 1.071 0 1 0 0-2.143 1.071 1.071 0 0 0 0 2.143Z"/></svg>