<svg xmlns="http://www.w3.org/2000/svg" width="24" height="24" ><path  d="M21.293 5.134a.996.996 0 0 0-1.055.315.986.986 0 0 0-.183.34l-.413 1.365A9.287 9.287 0 0 0 3.301 8.77l-.248.626-.022.05a.988.988 0 0 0 .023.759.99.99 0 0 0 1.83-.057l.248-.627A7.303 7.303 0 0 1 15.058 5.7a7.304 7.304 0 0 1 2.95 2.585l-1.659-.52h-.044a.989.989 0 0 0-1.197.693.99.99 0 0 0 .661 1.213l3.788 1.159a.999.999 0 0 0 .756-.073.993.993 0 0 0 .482-.587l1.159-3.789a.992.992 0 0 0-.661-1.247ZM2.763 19.71a.99.99 0 0 0 1.184-.743l.325-1.3a9.288 9.288 0 0 0 9.013 3.888 9.293 9.293 0 0 0 7.473-6.364.995.995 0 0 0-.305-1.058.993.993 0 0 0-1.584.455A7.308 7.308 0 0 1 8.863 19.01a7.321 7.321 0 0 1-3.081-2.653l1.758.441a.992.992 0 0 0 .494-1.923l-3.798-.942-.055-.015a.99.99 0 0 0-1.199.724l-.957 3.842v.044a.988.988 0 0 0 .738 1.183Z"/></svg>