<svg xmlns="http://www.w3.org/2000/svg" width="24" height="24" ><path  d="M6.21 10.547c0-.156.048-.281.142-.375.125-.125.25-.188.375-.188H9.68c.156 0 .28.063.375.188a.445.445 0 0 1 .187.375v2.906a.583.583 0 0 1-.187.422.507.507 0 0 1-.375.14H6.727a.623.623 0 0 1-.375-.14.686.686 0 0 1-.141-.422v-2.906Zm0-6.985c0-.156.048-.28.142-.374.125-.126.25-.188.375-.188H9.68c.156 0 .28.063.375.188a.445.445 0 0 1 .187.374v2.954c0 .125-.062.25-.187.375a.507.507 0 0 1-.375.14H6.727a.623.623 0 0 1-.375-.14.623.623 0 0 1-.141-.375V3.562Zm0 13.922a.45.45 0 0 1 .142-.328c.125-.125.25-.187.375-.187H9.68c.156 0 .28.062.375.187.125.094.187.203.187.328v2.953a.583.583 0 0 1-.187.422.507.507 0 0 1-.375.141H6.727a.624.624 0 0 1-.375-.14.686.686 0 0 1-.141-.422v-2.954Zm7.595-6.937c0-.156.047-.281.14-.375a.446.446 0 0 1 .375-.188h2.953c.157 0 .282.063.375.188.094.094.141.219.141.375v2.906a.685.685 0 0 1-.14.422.506.506 0 0 1-.376.14H14.32a.507.507 0 0 1-.375-.14.686.686 0 0 1-.14-.422v-2.906Zm0-6.985c0-.156.047-.28.14-.374A.446.446 0 0 1 14.32 3h2.953c.157 0 .282.063.375.188.094.093.141.218.141.374v2.954c0 .125-.047.25-.14.375a.507.507 0 0 1-.376.14H14.32a.507.507 0 0 1-.375-.14.624.624 0 0 1-.14-.375V3.562Zm0 13.922a.45.45 0 0 1 .14-.328.446.446 0 0 1 .375-.187h2.953c.157 0 .282.062.375.187a.45.45 0 0 1 .141.328v2.953a.685.685 0 0 1-.14.422.507.507 0 0 1-.376.141H14.32a.507.507 0 0 1-.375-.14.686.686 0 0 1-.14-.422v-2.954Z"/></svg>