<svg width="24" height="24" viewBox="0 0 24 24" xmlns="http://www.w3.org/2000/svg">
<path fill-rule="evenodd" clip-rule="evenodd" d="M19 6.5H5C4.72386 6.5 4.5 6.72386 4.5 7V17C4.5 17.2761 4.72386 17.5 5 17.5H19C19.2761 17.5 19.5 17.2761 19.5 17V7C19.5 6.72386 19.2761 6.5 19 6.5ZM5 5C3.89543 5 3 5.89543 3 7V17C3 18.1046 3.89543 19 5 19H19C20.1046 19 21 18.1046 21 17V7C21 5.89543 20.1046 5 19 5H5Z" />
<path d="M3 7C3 5.89543 3.89543 5 5 5H19C20.1046 5 21 5.89543 21 7V9H3V7Z" />
<path fill-rule="evenodd" clip-rule="evenodd" d="M19 6.5H5C4.72386 6.5 4.5 6.72386 4.5 7V7.5H19.5V7C19.5 6.72386 19.2761 6.5 19 6.5ZM5 5C3.89543 5 3 5.89543 3 7V9H21V7C21 5.89543 20.1046 5 19 5H5Z" />
<path d="M6.5 11.75C6.5 11.3358 6.83579 11 7.25 11H16.75C17.1642 11 17.5 11.3358 17.5 11.75C17.5 12.1642 17.1642 12.5 16.75 12.5H7.25C6.83579 12.5 6.5 12.1642 6.5 11.75Z" />
<path d="M6.5 14.75C6.5 14.3358 6.83579 14 7.25 14H16.75C17.1642 14 17.5 14.3358 17.5 14.75C17.5 15.1642 17.1642 15.5 16.75 15.5H7.25C6.83579 15.5 6.5 15.1642 6.5 14.75Z" />
</svg>
