<svg xmlns="http://www.w3.org/2000/svg" width="24" height="24" ><rect width="20" height="2.388" x="2" y="13.896"  rx="1.194"/><rect width="8.955" height="2.388" x="12.97" y="7.926"  rx="1.194"/><rect width="20" height="2.388" x="2" y="19.494"  rx="1.194"/><path  fill-rule="evenodd" d="M5.814 2.12a.97.97 0 0 1 .91.605L9.33 9.141l.424 1.051a.97.97 0 0 1-1.8.724l-.179-.443H4.071l-.16.424a.97.97 0 0 1-1.815-.685l2.822-7.465a.97.97 0 0 1 .896-.627Zm1.175 6.413L5.858 5.747 4.804 8.533H6.99Z" clip-rule="evenodd"/></svg>