<svg xmlns="http://www.w3.org/2000/svg" width="24" height="24" ><path  d="M5.26 21.922c-1.171 0-2.197-.732-2.49-1.905-.586-1.905-.88-3.808-.732-5.86 0-1.903.293-3.955.733-5.858.293-1.172 1.318-1.905 2.637-1.905h13.185c1.172 0 2.198.732 2.637 1.905.586 1.905.88 3.808.732 5.86 0 1.904-.292 3.954-.732 5.86-.293 1.171-1.465 2.05-2.637 1.904H5.261Zm0-13.184c-.146 0-.293.146-.293.146-.44 1.758-.732 3.517-.732 5.274 0 1.758.294 3.517.732 5.275 0 .146.146.293.294.146h13.185c.146 0 .293-.146.293-.146.44-1.758.732-3.517.732-5.274 0-1.758-.292-3.517-.732-5.128-.064-.221-.121-.245-.293-.294L5.26 8.738Z"/><path  d="M8.19 16.356a2.197 2.197 0 1 0 0-4.394 2.197 2.197 0 0 0 0 4.394ZM15.515 16.356a2.197 2.197 0 1 0 0-4.394 2.197 2.197 0 0 0 0 4.394ZM11.852 8.74c-.586 0-1.171-.587-1.171-1.172V3.172c0-.586.585-1.172 1.171-1.172.586 0 1.172.586 1.172 1.172v4.394c0 .586-.586 1.173-1.172 1.173Z"/></svg>