<svg xmlns="http://www.w3.org/2000/svg" width="24" height="24" ><path  d="M7.714 10.571H4.857A2.857 2.857 0 0 1 2 7.714V4.857A2.857 2.857 0 0 1 4.857 2h2.857a2.857 2.857 0 0 1 2.857 2.857v2.857a2.857 2.857 0 0 1-2.857 2.857ZM4.857 4.857v2.857h2.857V4.857H4.857Zm14.286 5.714h-2.857a2.857 2.857 0 0 1-2.857-2.857V4.857A2.857 2.857 0 0 1 16.286 2h2.857A2.857 2.857 0 0 1 22 4.857v2.857a2.857 2.857 0 0 1-2.857 2.857Zm-2.857-5.714v2.857h2.857V4.857h-2.857ZM7.714 22H4.857A2.857 2.857 0 0 1 2 19.143v-2.857a2.857 2.857 0 0 1 2.857-2.857h2.857a2.857 2.857 0 0 1 2.857 2.857v2.857A2.857 2.857 0 0 1 7.714 22Zm-2.857-5.714v2.857h2.857v-2.857H4.857ZM19.143 22h-2.857a2.857 2.857 0 0 1-2.857-2.857v-2.857a2.857 2.857 0 0 1 2.857-2.857h2.857A2.857 2.857 0 0 1 22 16.286v2.857A2.857 2.857 0 0 1 19.143 22Zm-2.857-5.714v2.857h2.857v-2.857h-2.857Z"/></svg>