<svg xmlns="http://www.w3.org/2000/svg" width="24" height="24" ><path  fill-rule="evenodd" d="M13.879 7.648a3.85 3.85 0 0 1-.285-1.45c0-.524.105-.997.285-1.449H3.196C2.598 4.75 2 5.474 2 6.2c0 .724.598 1.45 1.196 1.45H13.88Zm6.96-1.38Z" clip-rule="evenodd"/><path  d="M15.477 10.256c-.87 0-1.594-.435-2.174-1.16a5.226 5.226 0 0 1-.87-2.898c0-1.014.29-2.029.87-2.899.58-.724 1.305-1.159 2.174-1.159h3.479c.87 0 1.594.435 2.174 1.16.58.87.87 1.884.87 2.898 0 1.015-.29 2.03-.87 2.899-.58.724-1.305 1.16-2.174 1.16h-3.479Zm0-5.797c-.145 0-.145 0-.29.145-.29.435-.434 1.014-.434 1.594 0 .58.145 1.16.434 1.594 0 0 .145.145.29.145h3.479c.145 0 .145 0 .29-.145.29-.434.434-1.014.434-1.594 0-.58-.145-1.16-.434-1.594 0 0-.145-.145-.29-.145h-3.479Z"/><path  fill-rule="evenodd" d="M10.514 18.953H20.84c.58 0 1.16-.58 1.16-1.16s-.58-1.159-1.16-1.159H10.514a3.779 3.779 0 0 1 0 2.319Z" clip-rule="evenodd"/><path  d="M5.332 21.85c-.87 0-1.594-.434-2.174-1.16a5.226 5.226 0 0 1-.87-2.898c0-1.014.29-2.029.87-2.898.58-.725 1.305-1.16 2.174-1.16h3.479c.87 0 1.594.435 2.174 1.16.58.87.87 1.884.87 2.898 0 1.015-.29 2.03-.87 2.899-.58.725-1.305 1.16-2.174 1.16H5.332Zm0-5.797c-.145 0-.145 0-.29.145-.29.435-.434 1.014-.434 1.594 0 .58.145 1.16.434 1.595 0 0 .145.145.29.145h3.479c.145 0 .145 0 .29-.145.29-.435.434-1.015.434-1.595 0-.58-.145-1.16-.434-1.594 0 0-.145-.145-.29-.145H5.332Z"/></svg>