<svg width="25" height="25" viewBox="0 0 25 25" fill="none" xmlns="http://www.w3.org/2000/svg">
  <g clip-path="url(#clip0_2911_21810)">
    <path d="M5.64034 15.6181C5.64034 16.9977 4.52538 18.1126 3.14586 18.1126C1.76633 18.1126 0.651367 16.9977 0.651367 15.6181C0.651367 14.2386 1.76633 13.1237 3.14586 13.1237H5.64034V15.6181ZM6.88759 15.6181C6.88759 14.2386 8.00255 13.1237 9.38208 13.1237C10.7616 13.1237 11.8766 14.2386 11.8766 15.6181V21.8544C11.8766 23.2339 10.7616 24.3489 9.38208 24.3489C8.00255 24.3489 6.88759 23.2339 6.88759 21.8544V15.6181Z" fill="#E01E5A"/>
    <path d="M9.38193 5.60238C8.0024 5.60238 6.88744 4.48742 6.88744 3.10789C6.88744 1.72836 8.0024 0.613403 9.38193 0.613403C10.7615 0.613403 11.8764 1.72836 11.8764 3.10789V5.60238H9.38193ZM9.38193 6.86852C10.7615 6.86852 11.8764 7.98348 11.8764 9.36301C11.8764 10.7425 10.7615 11.8575 9.38193 11.8575H3.12681C1.74728 11.8575 0.632324 10.7425 0.632324 9.36301C0.632324 7.98348 1.74728 6.86852 3.12681 6.86852H9.38193Z" fill="#36C5F0"/>
    <path d="M19.3788 9.36301C19.3788 7.98348 20.4938 6.86852 21.8733 6.86852C23.2528 6.86852 24.3678 7.98348 24.3678 9.36301C24.3678 10.7425 23.2528 11.8575 21.8733 11.8575H19.3788V9.36301ZM18.1316 9.36301C18.1316 10.7425 17.0166 11.8575 15.6371 11.8575C14.2575 11.8575 13.1426 10.7425 13.1426 9.36301V3.10789C13.1426 1.72836 14.2575 0.613403 15.6371 0.613403C17.0166 0.613403 18.1316 1.72836 18.1316 3.10789V9.36301Z" fill="#2EB67D"/>
    <path d="M15.6371 19.3599C17.0166 19.3599 18.1316 20.4748 18.1316 21.8544C18.1316 23.2339 17.0166 24.3489 15.6371 24.3489C14.2575 24.3489 13.1426 23.2339 13.1426 21.8544V19.3599H15.6371ZM15.6371 18.1126C14.2575 18.1126 13.1426 16.9977 13.1426 15.6181C13.1426 14.2386 14.2575 13.1237 15.6371 13.1237H21.8922C23.2717 13.1237 24.3867 14.2386 24.3867 15.6181C24.3867 16.9977 23.2717 18.1126 21.8922 18.1126H15.6371Z" fill="#ECB22E"/>
  </g>
  <defs>
    <clipPath id="clip0_2911_21810">
      <rect width="24" height="24" fill="white" transform="translate(0.5 0.5)"/>
    </clipPath>
  </defs>
</svg>
