<svg xmlns="http://www.w3.org/2000/svg" width="24" height="24" ><path  fill-rule="evenodd" d="m9.08 13.4-.688 4.005L12 15.515l3.609 1.89-.69-4.005 2.92-2.836-4.035-.584-1.804-3.643-1.805 3.643-4.035.584 2.92 2.836Zm-2.34.758-1.086 6.313a.452.452 0 0 0 .658.477L12 17.968l5.688 2.98c.153.08.338.066.479-.035a.452.452 0 0 0 .18-.442l-1.086-6.313 4.6-4.47a.45.45 0 0 0-.25-.772l-6.36-.921-2.844-5.743a.454.454 0 0 0-.814 0L8.75 7.995l-6.36.921a.45.45 0 0 0-.252.771l4.602 4.471Z" clip-rule="evenodd"/></svg>