<svg xmlns="http://www.w3.org/2000/svg" width="24" height="24" ><path  fill-rule="evenodd" d="m9.08 14-.688 4.215L12 16.226l3.609 1.99-.69-4.214 2.92-2.986-4.035-.615-1.804-3.835-1.805 3.835-4.035.615 2.92 2.986Zm-2.34.798-1.086 6.645a.488.488 0 0 0 .18.466.436.436 0 0 0 .478.036L12 18.807l5.688 3.138c.153.084.338.07.479-.036a.488.488 0 0 0 .18-.466l-1.086-6.645 4.6-4.706a.492.492 0 0 0 .116-.488.46.46 0 0 0-.366-.324l-6.36-.97-2.844-6.044A.453.453 0 0 0 12 2a.452.452 0 0 0-.407.266L8.75 8.31l-6.36.97a.462.462 0 0 0-.368.324.492.492 0 0 0 .115.488l4.603 4.706Z" clip-rule="evenodd"/></svg>