<svg xmlns="http://www.w3.org/2000/svg" fill="none" viewBox="0 0 24 24" width="24" height="24">
  <defs>
    <linearGradient id="supabase-a" x1="20%" x2="80%" y1="20%" y2="80%" gradientUnits="userSpaceOnUse">
      <stop stop-color="#249361"></stop>
      <stop offset="1" stop-color="#3ecf8e"></stop>
    </linearGradient>
    <linearGradient id="supabase-b" x1="20%" x2="80%" y1="20%" y2="80%" gradientUnits="userSpaceOnUse">
      <stop stop-color="#000000"></stop>
      <stop offset="1" stop-color="#000000" stop-opacity="0"></stop>
    </linearGradient>
  </defs>
  <path fill="url(#supabase-a)" d="M14 22c-.6.8-1.8.3-1.8-.6l-.2-14h9.5c1.7 0 2.7 2 1.6 3.3L14 22Z"></path>
  <path fill="url(#supabase-b)" fill-opacity=".2" d="M14 22c-.6.8-1.8.3-1.8-.6l-.2-14h9.5c1.7 0 2.7 2 1.6 3.3L14 22Z"></path>
  <path fill="#3ecf8e" d="M10 2c.6-.8 1.8-.3 1.8.6l.1 14H2.4c-1.7 0-2.7-2-1.6-3.3L10 2Z"></path>
</svg>