<svg width="24" height="24" viewBox="0 0 24 24" xmlns="http://www.w3.org/2000/svg">
<path d="M15.8097 10.1495C16.1345 10.1495 16.4339 9.9648 16.5741 9.67814L17.4787 7.86898C17.5679 7.69061 17.6124 7.4995 17.6124 7.30203V4.41629C17.6124 4.06593 17.3258 3.77927 16.9754 3.77927H14.4273C14.0769 3.77927 13.7903 4.06593 13.7903 4.41629V6.9644C13.7903 7.31477 14.0769 7.60143 14.4273 7.60143H15.7014L15.0452 8.9137C14.7586 9.48066 15.1726 10.1495 15.8097 10.1495ZM20.8337 10.1495C21.1586 10.1495 21.458 9.9648 21.5981 9.67814L22.5027 7.86898C22.5919 7.69061 22.6365 7.4995 22.6365 7.30203V4.41629C22.6365 4.06593 22.3498 3.77927 21.9994 3.77927H19.4513C19.101 3.77927 18.8143 4.06593 18.8143 4.41629V6.9644C18.8143 7.31477 19.101 7.60143 19.4513 7.60143H20.7254L20.0693 8.9137C19.7826 9.48066 20.1967 10.1495 20.8337 10.1495Z" />
<path  clip-rule="evenodd" d="M12.5452 3H4.01085C2.53986 3 1.36353 4.17634 1.36353 5.64732V18.8828C1.36353 20.3538 2.53986 21.5301 4.01085 21.5301H18.7162C20.1872 21.5301 21.3635 20.3538 21.3635 18.8828V11.8032H19.0108V11.8237H12.5399V6.82255H12.5452V3ZM10.1872 6.82255H3.7162V11.8237H10.1872V6.82255ZM3.7162 14.1775V18.8828C3.7162 19.029 3.86353 19.1763 4.01085 19.1775H10.1872V14.1775H3.7162ZM12.5399 19.1763H18.7162C18.8635 19.1763 19.0108 19.029 19.0108 18.8817V14.1763H12.5399V19.1763Z" />
</svg>
