<svg xmlns="http://www.w3.org/2000/svg" width="24" height="24" ><path  fill-rule="evenodd" d="M2 6.842c0-.63.512-1.142 1.143-1.142h1.361a1.143 1.143 0 1 1 0 2.285H3.143A1.143 1.143 0 0 1 2 6.842ZM6.912 6.842c0-.63.512-1.142 1.143-1.142h11.872a1.143 1.143 0 1 1 0 2.285H8.055a1.143 1.143 0 0 1-1.143-1.143ZM2 11.983c0-.63.512-1.142 1.143-1.142h1.362a1.143 1.143 0 1 1 0 2.285H3.143A1.143 1.143 0 0 1 2 11.983ZM6.912 11.983c0-.63.512-1.142 1.143-1.142h9.727a1.143 1.143 0 1 1 0 2.285H8.055a1.143 1.143 0 0 1-1.143-1.143ZM2 17.125c0-.631.512-1.143 1.143-1.143h1.362a1.143 1.143 0 1 1 0 2.285H3.143A1.143 1.143 0 0 1 2 17.125ZM6.912 17.125c0-.631.512-1.143 1.143-1.143h12.802a1.143 1.143 0 1 1 0 2.285H8.055a1.143 1.143 0 0 1-1.143-1.142Z" clip-rule="evenodd"/></svg>