<svg xmlns="http://www.w3.org/2000/svg" width="24" height="24" ><path  d="M10.693 21.97c-.734 0-1.321-.294-1.908-.735l-6.021-6.02c-.881-.88-1.028-2.203-.294-3.377a28.705 28.705 0 0 1 4.699-5.58c1.468-1.468 3.23-2.643 4.993-3.817.44-.294.88-.441 1.321-.441h5.874A2.632 2.632 0 0 1 22 4.643v5.874c0 .587-.147 1.027-.44 1.321-1.029 1.762-2.35 3.377-3.819 4.992a28.67 28.67 0 0 1-5.58 4.699c-.44.294-.88.44-1.468.44Zm2.79-17.62h-.147c-1.615 1.027-3.23 2.202-4.551 3.524-1.616 1.615-3.084 3.23-4.26 5.14-.146.147 0 .293 0 .44l6.02 6.02c.148.148.294.148.294 0a24.034 24.034 0 0 0 5.14-4.259c1.321-1.469 2.497-2.936 3.524-4.552v-6.02a.316.316 0 0 0-.293-.294h-5.727Z"/><path  d="M15.687 10.515a2.203 2.203 0 1 0-.001-4.406 2.203 2.203 0 0 0 0 4.406Z"/></svg>