<svg width="24" height="24" viewBox="0 0 24 24" xmlns="http://www.w3.org/2000/svg">
<path d="M21.5 13.2375L16.775 9.86249C16.6625 9.86249 16.55 9.86249 16.6625 9.97499L17.45 15.6L18.6875 14.5875L19.475 15.7125L19.5875 15.9375C19.5875 15.9375 19.8125 16.275 20.2625 16.05C20.7125 15.825 20.375 15.375 20.375 15.375L19.8125 14.25V14.1375L21.5 13.2375C21.5 13.4625 21.5 13.35 21.5 13.2375Z" />
<path d="M18.9125 16.95L18.6875 16.3875L18.35 16.725C18.35 16.725 18.2375 16.725 18.2375 16.8375V17.7375C18.2375 18.4125 17.675 18.75 17.225 18.75H12.5V16.275H16.325C16.325 16.1625 16.2125 16.05 16.2125 15.9375L16.1 14.7H12.5V12.225H15.875L15.5375 10.5375H12.5V8.175H18.125V9.63749L19.8125 10.7625V5.7C19.8125 4.2375 18.6875 3 17.1125 3H6.2C4.625 3.1125 3.5 4.35 3.5 5.7V17.625C3.5 19.0875 4.625 20.325 6.2 20.325H17.1125C18.575 20.325 19.8125 19.2 19.8125 17.625V17.4C19.3625 17.2875 19.025 17.0625 18.9125 16.95ZM10.8125 18.75H6.2C5.525 18.75 5.1875 18.1875 5.1875 17.7375V16.275H10.8125V18.75ZM10.8125 14.5875H5.1875V12.225H10.8125V14.5875ZM10.8125 10.5375H5.1875V8.175H10.8125V10.5375Z" />
</svg>
