<svg xmlns="http://www.w3.org/2000/svg" width="24" height="24" ><path  fill-rule="evenodd" d="M9.386 10.42 7.67 5.977l-1.684 4.445h3.401Zm.888 2.297.898 2.324a1.148 1.148 0 1 0 2.142-.828L8.93 2.873C8.48 1.704 6.829 1.71 6.386 2.88L2.075 14.258a1.148 1.148 0 1 0 2.147.814l.893-2.355h5.159Z" clip-rule="evenodd"/><path  fill-rule="evenodd" d="M21.664 12.03a1.148 1.148 0 0 1 0 1.623l-7.952 7.952a1.364 1.364 0 0 1-1.928 0l-3.458-3.459a1.148 1.148 0 0 1 1.624-1.624l2.798 2.799 7.292-7.292a1.148 1.148 0 0 1 1.624 0Z" clip-rule="evenodd"/></svg>