<svg xmlns="http://www.w3.org/2000/svg" width="24" height="24" ><path  d="M20.974 5.164h-5.64l-.385-1.154c-.385-.897-1.026-1.41-1.795-1.41h-2.308c-.77 0-1.41.513-1.667 1.41l-.384 1.154h-5.77C2.514 5.164 2 5.677 2 6.19s.513 1.025 1.026 1.025h1.05c-.182 2.213-.242 4.505-.024 6.796.257 1.923.641 3.718 1.154 5.641.385 1.026 1.282 1.667 2.308 1.667h8.974c1.026 0 1.923-.641 2.308-1.667a39.959 39.959 0 0 0 1.154-5.64c.22-2.306.25-4.518.014-6.797h1.01c.513 0 1.026-.512 1.026-1.025 0-.513-.513-1.026-1.026-1.026Zm-3.204 8.59c-.128 1.796-.512 3.59-1.025 5.257 0 .129-.257.257-.385.257H7.514c-.256 0-.385-.128-.385-.257-.512-1.666-.769-3.461-1.025-5.256-.226-2.14-.154-4.376.04-6.54h11.714c.192 2.163.25 4.4-.088 6.54Z"/><path  d="M9.436 16.19c-.513 0-1.026-.513-1.026-1.026v-3.846c0-.513.513-1.026 1.026-1.026s1.025.513 1.025 1.026v3.846c0 .513-.512 1.026-1.025 1.026ZM14.563 16.19c-.513 0-1.026-.513-1.026-1.026v-3.846c0-.513.513-1.026 1.026-1.026s1.026.513 1.026 1.026v3.846c0 .513-.512 1.026-1.026 1.026Z"/></svg>