<svg width="24" height="24" xmlns="http://www.w3.org/2000/svg">
<path fill-rule="evenodd" clip-rule="evenodd" d="M12 19.7143C16.26 19.7143 19.7143 16.26 19.7143 12C19.7143 7.73996 16.26 4.28571 12 4.28571C7.73996 4.28571 4.28571 7.73996 4.28571 12C4.28571 16.26 7.73996 19.7143 12 19.7143ZM12 22C17.5223 22 22 17.5223 22 12C22 6.47768 17.5223 2 12 2C6.47768 2 2 6.47768 2 12C2 17.5223 6.47768 22 12 22Z"/>
<path d="M12.006 18.0388C11.3821 18.0388 10.8622 17.5189 10.8622 16.895L10.8617 7.03161C10.8616 6.40777 11.3816 5.88777 12.0055 5.88777C12.6294 5.88777 13.1494 6.4077 13.1493 7.03162L13.1499 16.895C13.15 17.4992 12.5876 18.0388 12.006 18.0388Z"/>
<path d="M16.9859 10.4081L12.8264 6.24861C12.4104 5.83266 11.5785 5.83269 11.1626 6.24859L7.00306 10.4081C6.58711 10.8241 6.58712 11.6559 7.00307 12.0719C7.41903 12.4878 8.25091 12.4879 8.66686 12.0719L11.9945 8.74428L15.3221 12.0719C15.7381 12.4879 16.5699 12.4879 16.9859 12.0719C17.4018 11.656 17.4018 10.8241 16.9859 10.4081Z"/>
</svg>
