<svg viewBox="0 0 20 20" fill="currentColor" xmlns="http://www.w3.org/2000/svg">
<path d="M1.625 15.833V2.5C1.625 2.01675 2.01675 1.625 2.5 1.625C2.98325 1.625 3.375 2.01675 3.375 2.5V15.833C3.375 16.043 3.45798 16.2451 3.60645 16.3936C3.75491 16.542 3.95703 16.625 4.16699 16.625H17.5C17.9832 16.625 18.375 17.0168 18.375 17.5C18.375 17.9832 17.9832 18.375 17.5 18.375H4.16699C3.4929 18.375 2.84579 18.1075 2.36914 17.6309C1.89249 17.1542 1.625 16.5071 1.625 15.833ZM5.79199 14.167V11.667C5.79199 11.1837 6.18374 10.792 6.66699 10.792C7.15009 10.7922 7.54199 11.1839 7.54199 11.667V14.167C7.54182 14.65 7.14998 15.0418 6.66699 15.042C6.18385 15.042 5.79217 14.6501 5.79199 14.167ZM9.95801 14.167V7.5C9.95801 7.01686 10.3499 6.62518 10.833 6.625C11.3163 6.625 11.708 7.01675 11.708 7.5V14.167C11.7078 14.6501 11.3161 15.042 10.833 15.042C10.35 15.0418 9.95818 14.65 9.95801 14.167ZM14.125 14.167V10.5C14.125 10.0168 14.5168 9.625 15 9.625C15.4832 9.625 15.875 10.0168 15.875 10.5V14.167C15.8748 14.6501 15.4831 15.042 15 15.042C14.5169 15.042 14.1252 14.6501 14.125 14.167Z" />
<path d="M15.375 2H14.625C14.625 3.44975 13.4497 4.625 12 4.625V5.375C13.4497 5.375 14.625 6.55025 14.625 8H15.375C15.375 6.55025 16.5503 5.375 18 5.375V4.625C16.5503 4.625 15.375 3.44975 15.375 2Z" />
</svg>
