<svg xmlns="http://www.w3.org/2000/svg" width="24" height="24" ><path  d="M20.823 22c-.588 0-1.176-.588-1.176-1.176A7.595 7.595 0 0 0 12 13.176a7.595 7.595 0 0 0-7.647 7.648c0 .588-.589 1.176-1.177 1.176C2.588 22 2 21.412 2 20.824c0-5.588 4.56-10 10-10s10 4.412 10 10c0 .588-.588 1.176-1.177 1.176Z"/><path  d="M12 13.176a5.586 5.586 0 0 1-5.588-5.588C6.412 4.5 8.912 2 12 2s5.588 2.5 5.588 5.588-2.5 5.588-5.588 5.588Zm0-8.823c-1.764 0-3.235 1.47-3.235 3.235s1.47 3.235 3.235 3.235 3.236-1.47 3.236-3.235c0-1.764-1.471-3.235-3.236-3.235Z"/></svg>