<svg width="24" height="24" viewBox="0 0 24 24" xmlns="http://www.w3.org/2000/svg">
<path fill-rule="evenodd" clip-rule="evenodd" d="M18 6.8H6C5.88954 6.8 5.8 6.88954 5.8 7V17C5.8 17.1105 5.88954 17.2 6 17.2H18C18.1105 17.2 18.2 17.1105 18.2 17V7C18.2 6.88954 18.1105 6.8 18 6.8ZM6 5C4.89543 5 4 5.89543 4 7V17C4 18.1046 4.89543 19 6 19H18C19.1046 19 20 18.1046 20 17V7C20 5.89543 19.1046 5 18 5H6Z" />
<path d="M8 12C8 11.2268 8.6268 10.6 9.4 10.6H14.6C15.3732 10.6 16 11.2268 16 12C16 12.7732 15.3732 13.4 14.6 13.4H9.4C8.6268 13.4 8 12.7732 8 12Z" />
</svg>

