<svg width="24" height="24" viewBox="0 0 24 24" fill="none" xmlns="http://www.w3.org/2000/svg">
<path d="M13.832 8.76189C14.4466 8.04115 15.3451 7.625 16.2924 7.625H16.382C16.9343 7.625 17.382 8.07272 17.382 8.625C17.382 9.17728 16.9343 9.625 16.382 9.625H16.2924C15.9328 9.625 15.5898 9.78289 15.3539 10.0595L13.0138 12.8039L13.7547 15.4107C13.7706 15.4666 13.8193 15.5 13.8689 15.5H15.263C15.8153 15.5 16.263 15.9477 16.263 16.5C16.263 17.0523 15.8153 17.5 15.263 17.5H13.8689C12.9192 17.5 12.0896 16.8674 11.8309 15.9575L11.4544 14.6328L9.97906 16.3631C9.36446 17.0839 8.46593 17.5 7.51868 17.5H7.429C6.87672 17.5 6.429 17.0523 6.429 16.5C6.429 15.9477 6.87672 15.5 7.429 15.5H7.51868C7.87823 15.5 8.22125 15.3421 8.45715 15.0655L10.7974 12.3209L10.0565 9.71433C10.0406 9.65839 9.99196 9.625 9.94226 9.625H8.5482C7.99592 9.625 7.5482 9.17728 7.5482 8.625C7.5482 8.07272 7.99592 7.625 8.5482 7.625H9.94226C10.892 7.625 11.7217 8.25756 11.9803 9.16754L12.3568 10.4921L13.832 8.76189Z" fill="currentColor"/>
<path d="M5.429 3C3.61372 3 2.143 4.47071 2.143 6.286V10.4428L1.29289 11.2929C1.10536 11.4804 1 11.7348 1 12C1 12.2652 1.10536 12.5196 1.29289 12.7071L2.143 13.5572V17.714C2.143 19.5293 3.61372 21 5.429 21C5.98128 21 6.429 20.5523 6.429 20C6.429 19.4477 5.98128 19 5.429 19C4.71828 19 4.143 18.4247 4.143 17.714V13.143C4.143 12.8778 4.03764 12.6234 3.85011 12.4359L3.41421 12L3.85011 11.5641C4.03764 11.3766 4.143 11.1222 4.143 10.857V6.286C4.143 5.57528 4.71828 5 5.429 5C5.98128 5 6.429 4.55228 6.429 4C6.429 3.44772 5.98128 3 5.429 3Z" fill="currentColor"/>
<path d="M18.382 3C17.8297 3 17.382 3.44772 17.382 4C17.382 4.55228 17.8297 5 18.382 5C19.0927 5 19.668 5.57529 19.668 6.286V10.857C19.668 11.1222 19.7734 11.3766 19.9609 11.5641L20.3968 12L19.9609 12.4359C19.7734 12.6234 19.668 12.8778 19.668 13.143V17.714C19.668 18.4244 19.092 19 18.382 19C17.8297 19 17.382 19.4477 17.382 20C17.382 20.5523 17.8297 21 18.382 21C20.196 21 21.668 19.5296 21.668 17.714V13.5572L22.5181 12.7071C22.9086 12.3166 22.9086 11.6834 22.5181 11.2929L21.668 10.4428V6.286C21.668 4.47071 20.1973 3 18.382 3Z" fill="currentColor"/>
</svg>
