<svg xmlns="http://www.w3.org/2000/svg" width="24" height="24" ><path  fill-rule="evenodd" d="M12 5.944 4.574 18.807h14.852L12 5.944ZM13.092 3.8a1.261 1.261 0 0 0-2.184 0L2.171 18.933a1.261 1.261 0 0 0 1.092 1.892h17.475a1.26 1.26 0 0 0 1.091-1.892L13.092 3.8Z" clip-rule="evenodd"/><path  d="M11.835 15.404a1.01 1.01 0 1 0 .001 2.019 1.01 1.01 0 0 0 0-2.02ZM11.835 9.222c.505 0 1.01.536 1.01 1.073v2.014c0 .536-.505 1.073-1.01 1.073-.504 0-1.009-.537-1.009-1.073v-2.014c.002-.537.505-1.073 1.01-1.073Z"/></svg>