<svg xmlns="http://www.w3.org/2000/svg" width="24" height="24" ><path  d="M21.293 4.794a.996.996 0 0 0-1.055.315.986.986 0 0 0-.183.34l-.413 1.365A9.288 9.288 0 0 0 3.301 8.43l-.248.626-.022.05a.988.988 0 0 0 .023.759.99.99 0 0 0 1.83-.057l.248-.627a7.303 7.303 0 0 1 9.926-3.822 7.304 7.304 0 0 1 2.95 2.585l-1.659-.52h-.044a.989.989 0 0 0-1.197.693.99.99 0 0 0 .661 1.213l3.788 1.159a.999.999 0 0 0 .756-.073.993.993 0 0 0 .482-.587l1.159-3.789a.992.992 0 0 0-.661-1.247ZM2.763 19.37a.99.99 0 0 0 1.184-.743l.325-1.3a9.288 9.288 0 0 0 9.013 3.888 9.292 9.292 0 0 0 7.473-6.364.993.993 0 0 0-1.027-1.29.988.988 0 0 0-.862.687 7.308 7.308 0 0 1-10.006 4.421 7.322 7.322 0 0 1-3.081-2.653l1.758.441a.991.991 0 0 0 1.102-1.467.995.995 0 0 0-.608-.456l-3.798-.942-.055-.015a.99.99 0 0 0-1.198.723l-.958 3.842v.045a.988.988 0 0 0 .738 1.183Z"/><path  fill-rule="evenodd" d="M11.039 15.897c.307.231.615.386 1 .386.384 0 .691-.155.922-.386l2.921-2.928a1.351 1.351 0 0 0 0-1.926l-2.921-2.928a1.344 1.344 0 0 0-1.922 0l-2.922 2.928a1.351 1.351 0 0 0 0 1.926l2.922 2.928Zm.48-1.95c.154.116.308.193.5.193a.636.636 0 0 0 .461-.193l1.461-1.464a.676.676 0 0 0 0-.963l-1.46-1.464a.672.672 0 0 0-.962 0l-1.46 1.464a.675.675 0 0 0 0 .963l1.46 1.464Z" clip-rule="evenodd"/></svg>